<?xml version="1.0" encoding="UTF-8" standalone="no"?>
<svg
   xmlns:osb="http://www.openswatchbook.org/uri/2009/osb"
   xmlns:dc="http://purl.org/dc/elements/1.1/"
   xmlns:cc="http://creativecommons.org/ns#"
   xmlns:rdf="http://www.w3.org/1999/02/22-rdf-syntax-ns#"
   xmlns:svg="http://www.w3.org/2000/svg"
   xmlns="http://www.w3.org/2000/svg"
   xmlns:sodipodi="http://sodipodi.sourceforge.net/DTD/sodipodi-0.dtd"
   xmlns:inkscape="http://www.inkscape.org/namespaces/inkscape"
   width="116.93457mm"
   height="103.20793mm"
   viewBox="0 0 116.93457 103.20793"
   version="1.1"
   id="svg3562"
   sodipodi:docname="favicon.svg"
   inkscape:version="1.0.1 (1.0.1+r73)">
  <defs
     id="defs3556">
    <rect
       x="-486.10193"
       y="711.59406"
       width="339.72787"
       height="340.49969"
       id="rect5605" />
    <rect
       x="280.50986"
       y="104.14363"
       width="67.823967"
       height="44.086842"
       id="rect4650" />
    <linearGradient
       id="linearGradient3133"
       osb:paint="solid">
      <stop
         style="stop-color:#000000;stop-opacity:1;"
         offset="0"
         id="stop3131" />
    </linearGradient>
    <clipPath
       clipPathUnits="userSpaceOnUse"
       id="clipPath5392">
      <path
         id="path5394"
         style="fill:#ff0000;fill-opacity:1;fill-rule:nonzero;stroke:none"
         d="m 1378.9961,-242.22461 c 0.3826,0.38658 0.7642,0.77325 1.1523,1.15625 0.5332,-0.15492 1.0741,-0.26978 1.6172,-0.33008 0.9143,-0.10149 1.7133,-0.0601 2.4043,0.0781 v -0.9043 z m -1.7422,7.4707 c -0.3236,0.30082 -0.6493,0.59531 -0.9805,0.87696 v 13.375 h 4.2676 c 0.5027,-3.36348 1.037,-6.72099 1.6289,-10.06836 -1.6974,-1.31448 -3.3374,-2.71466 -4.916,-4.1836 z m 3.2754,0.77539 c -0.1226,0.0927 -0.2414,0.18888 -0.3359,0.3086 -0.064,0.0817 0.2585,-0.0329 0.2812,-0.13477 0.01,-0.0475 0.041,-0.12158 0.055,-0.17383 z" />
    </clipPath>
    <clipPath
       clipPathUnits="userSpaceOnUse"
       id="clipPath5416">
      <path
         id="path5418"
         style="fill:#ff0000;fill-opacity:1;fill-rule:nonzero;stroke:none"
         d="M 1313.0234,-172.88477 V 45.572266 h 464.8321 V -172.88477 Z m 60.918,90.47852 c 0.8302,-5.17e-4 1.7202,0.401726 2.4902,1.220703 0.4654,-0.335045 0.9783,-0.521543 1.5,-0.521484 v 0 c 1.6243,1.82e-4 3.2671,1.623775 3.3359,4.873047 0.035,1.68314 0.1,3.276572 -0.3574,4.910156 -0.1839,0.657301 -0.7262,1.571962 -1.0195,2.121094 -0.7214,1.198034 -1.263,2.518296 -1.6582,3.859375 -0.035,0.118072 -0.088,0.482436 -0.084,0.359375 0.012,-0.336503 0.073,-0.669078 0.1074,-1.003907 -0.041,-0.03085 -0.093,-0.08309 -0.1367,-0.11914 -0.1288,0.259374 -0.2718,0.512681 -0.4023,0.771484 -0.1037,0.129351 -0.1873,0.267979 -0.2598,0.410156 0.2568,0.262134 0.4952,0.531969 0.6719,0.826172 0.1558,0.259446 -0.1505,0.592314 -0.293,0.859375 -0.5122,0.960908 -1.1209,1.813385 -1.7363,2.667969 -0.119,0.279069 -0.2389,0.557372 -0.3536,0.837891 -0.06,0.08068 -0.1019,0.1688 -0.1562,0.251953 0.018,0.03073 0.039,0.05989 0.055,0.0918 0.1643,0.342153 -0.2984,0.698932 -0.4356,1.052734 -0.1874,0.482188 -0.3591,0.970048 -0.539,1.455078 -0.063,0.131088 -0.1119,0.265216 -0.166,0.398438 -0.1871,0.866517 -0.369,1.735312 -0.7032,2.541015 -0.2129,0.987726 -0.4411,1.968776 -0.9511,2.88086 -0.09,0.160104 -0.2035,0.304781 -0.3145,0.451171 -0.015,0.152894 -0.022,0.306995 -0.045,0.458985 -0.1455,0.95783 -2.0271,4.152463 -2.5117,5.091797 -0.045,0.247086 -1.15,1.914811 -1.045,2.410156 1.3496,6.358355 -8.0979,4.753648 -6.3886,-1.517578 0.3722,-1.365449 0.8797,-2.678086 1.5996,-3.904297 1.3388,-2.591327 0.5756,-1.145964 1.4922,-2.84375 0.1538,-0.28529 0.3029,-0.574222 0.4609,-0.857422 0.011,-0.01761 0.038,-0.063 0.041,-0.04297 0.054,0.351924 0.061,1.41445 0.1153,1.0625 0.1001,-0.654859 0.018,-1.325843 0.025,-1.988281 0.2419,-0.45067 0.4848,-0.900889 0.7266,-1.351562 -0.024,0.04965 -0.053,0.09766 -0.059,0.152343 -0.01,0.0666 0.1647,-0.01778 0.1836,-0.08203 0.1334,-0.451861 0.1469,-0.931329 0.252,-1.390625 0.067,-0.2944 0.085,-0.329282 0.1367,-0.546875 -0.031,0.08551 -0.059,0.171947 -0.094,0.255859 -0.05,0.120276 0.054,-0.171299 0.1231,-0.371093 0.2148,-0.902677 0.432,-1.624142 0.6777,-2.289063 0.1959,-0.784933 0.3956,-1.568656 0.6738,-2.322265 0,-6.7e-4 10e-5,-0.0013 0,-0.002 -0.038,-0.862728 0.4081,-1.532275 0.8633,-2.304688 0.2917,-0.420202 0.472,-0.692641 0.6602,-0.955078 4e-4,-6.32e-4 0,-0.0013 0,-0.002 0.036,-0.19961 0.065,-0.400574 0.1114,-0.597657 0.3174,-1.363331 0.6707,-2.849998 1.4687,-4.027343 0.011,0.0089 0.01,0.03452 0.018,0.04883 0.142,-2.587827 0.2966,-5.248755 -0.4746,-7.75 -1.0773,-3.493932 0.486,-5.528111 2.3906,-5.529297 z" />
    </clipPath>
    <clipPath
       clipPathUnits="userSpaceOnUse"
       id="clipPath5416-9">
      <path
         id="path5418-6"
         style="fill:#ff0000;fill-opacity:1;fill-rule:nonzero;stroke:none"
         d="M 1313.0234,-172.88477 V 45.572266 h 464.8321 V -172.88477 Z m 60.918,90.47852 c 0.8302,-5.17e-4 1.7202,0.401726 2.4902,1.220703 0.4654,-0.335045 0.9783,-0.521543 1.5,-0.521484 v 0 c 1.6243,1.82e-4 3.2671,1.623775 3.3359,4.873047 0.035,1.68314 0.1,3.276572 -0.3574,4.910156 -0.1839,0.657301 -0.7262,1.571962 -1.0195,2.121094 -0.7214,1.198034 -1.263,2.518296 -1.6582,3.859375 -0.035,0.118072 -0.088,0.482436 -0.084,0.359375 0.012,-0.336503 0.073,-0.669078 0.1074,-1.003907 -0.041,-0.03085 -0.093,-0.08309 -0.1367,-0.11914 -0.1288,0.259374 -0.2718,0.512681 -0.4023,0.771484 -0.1037,0.129351 -0.1873,0.267979 -0.2598,0.410156 0.2568,0.262134 0.4952,0.531969 0.6719,0.826172 0.1558,0.259446 -0.1505,0.592314 -0.293,0.859375 -0.5122,0.960908 -1.1209,1.813385 -1.7363,2.667969 -0.119,0.279069 -0.2389,0.557372 -0.3536,0.837891 -0.06,0.08068 -0.1019,0.1688 -0.1562,0.251953 0.018,0.03073 0.039,0.05989 0.055,0.0918 0.1643,0.342153 -0.2984,0.698932 -0.4356,1.052734 -0.1874,0.482188 -0.3591,0.970048 -0.539,1.455078 -0.063,0.131088 -0.1119,0.265216 -0.166,0.398438 -0.1871,0.866517 -0.369,1.735312 -0.7032,2.541015 -0.2129,0.987726 -0.4411,1.968776 -0.9511,2.88086 -0.09,0.160104 -0.2035,0.304781 -0.3145,0.451171 -0.015,0.152894 -0.022,0.306995 -0.045,0.458985 -0.1455,0.95783 -2.0271,4.152463 -2.5117,5.091797 -0.045,0.247086 -1.15,1.914811 -1.045,2.410156 1.3496,6.358355 -8.0979,4.753648 -6.3886,-1.517578 0.3722,-1.365449 0.8797,-2.678086 1.5996,-3.904297 1.3388,-2.591327 0.5756,-1.145964 1.4922,-2.84375 0.1538,-0.28529 0.3029,-0.574222 0.4609,-0.857422 0.011,-0.01761 0.038,-0.063 0.041,-0.04297 0.054,0.351924 0.061,1.41445 0.1153,1.0625 0.1001,-0.654859 0.018,-1.325843 0.025,-1.988281 0.2419,-0.45067 0.4848,-0.900889 0.7266,-1.351562 -0.024,0.04965 -0.053,0.09766 -0.059,0.152343 -0.01,0.0666 0.1647,-0.01778 0.1836,-0.08203 0.1334,-0.451861 0.1469,-0.931329 0.252,-1.390625 0.067,-0.2944 0.085,-0.329282 0.1367,-0.546875 -0.031,0.08551 -0.059,0.171947 -0.094,0.255859 -0.05,0.120276 0.054,-0.171299 0.1231,-0.371093 0.2148,-0.902677 0.432,-1.624142 0.6777,-2.289063 0.1959,-0.784933 0.3956,-1.568656 0.6738,-2.322265 0,-6.7e-4 10e-5,-0.0013 0,-0.002 -0.038,-0.862728 0.4081,-1.532275 0.8633,-2.304688 0.2917,-0.420202 0.472,-0.692641 0.6602,-0.955078 4e-4,-6.32e-4 0,-0.0013 0,-0.002 0.036,-0.19961 0.065,-0.400574 0.1114,-0.597657 0.3174,-1.363331 0.6707,-2.849998 1.4687,-4.027343 0.011,0.0089 0.01,0.03452 0.018,0.04883 0.142,-2.587827 0.2966,-5.248755 -0.4746,-7.75 -1.0773,-3.493932 0.486,-5.528111 2.3906,-5.529297 z" />
    </clipPath>
    <clipPath
       clipPathUnits="userSpaceOnUse"
       id="clipPath5392-7">
      <path
         id="path5394-2"
         style="fill:#ff0000;fill-opacity:1;fill-rule:nonzero;stroke:none"
         d="m 1378.9961,-242.22461 c 0.3826,0.38658 0.7642,0.77325 1.1523,1.15625 0.5332,-0.15492 1.0741,-0.26978 1.6172,-0.33008 0.9143,-0.10149 1.7133,-0.0601 2.4043,0.0781 v -0.9043 z m -1.7422,7.4707 c -0.3236,0.30082 -0.6493,0.59531 -0.9805,0.87696 v 13.375 h 4.2676 c 0.5027,-3.36348 1.037,-6.72099 1.6289,-10.06836 -1.6974,-1.31448 -3.3374,-2.71466 -4.916,-4.1836 z m 3.2754,0.77539 c -0.1226,0.0927 -0.2414,0.18888 -0.3359,0.3086 -0.064,0.0817 0.2585,-0.0329 0.2812,-0.13477 0.01,-0.0475 0.041,-0.12158 0.055,-0.17383 z" />
    </clipPath>
  </defs>
  <sodipodi:namedview
     id="base"
     pagecolor="#ffffff"
     bordercolor="#666666"
     borderopacity="1.0"
     inkscape:pageopacity="0.0"
     inkscape:pageshadow="2"
     inkscape:zoom="0.22627417"
     inkscape:cx="886.31369"
     inkscape:cy="194.84017"
     inkscape:document-units="mm"
     inkscape:current-layer="layer1"
     inkscape:document-rotation="0"
     showgrid="false"
     inkscape:object-paths="false"
     inkscape:snap-nodes="false"
     inkscape:object-nodes="false"
     inkscape:snap-intersection-paths="true"
     inkscape:snap-bbox="false"
     inkscape:snap-global="false"
     inkscape:window-width="1447"
     inkscape:window-height="1050"
     inkscape:window-x="50"
     inkscape:window-y="0"
     inkscape:window-maximized="0" />
  <metadata
     id="metadata3559">
    <rdf:RDF>
      <cc:Work
         rdf:about="">
        <dc:format>image/svg+xml</dc:format>
        <dc:type
           rdf:resource="http://purl.org/dc/dcmitype/StillImage" />
        <dc:title></dc:title>
      </cc:Work>
    </rdf:RDF>
  </metadata>
  <g
     inkscape:label="Layer 1"
     inkscape:groupmode="layer"
     id="layer1"
     transform="translate(-717.92917,-364.09428)">
    <g
       id="g4470"
       transform="matrix(-1.1419934,0,0,1,437.64913,91.869322)">
      <path
         id="path4494"
         style="fill:#fefefe;stroke-width:1.06864"
         transform="matrix(-0.23168552,0,0,0.26458333,343.88405,199.09768)"
         d="m 741.20898,-423.375 v 256 256 h 292.34962 292.3516 V 39.634766 c -2.9148,-1.101478 -6.412,-2.713331 -8.3633,-4.06836 -1.7649,-1.225496 -3.2952,-2.756396 -4.9434,-4.134765 -0.8696,-0.967788 -1.9286,-1.793598 -2.6094,-2.902344 -2.0058,-3.266751 -3.3316,-6.975142 -3.9707,-10.785156 -3.0011,0.809233 -5.972,1.767793 -9,2.447265 -0.847,1.031374 -2.0675,2.104763 -3.8437,3.310547 -7.209,4.893731 -14.6712,-2.249321 -16.875,-8.527344 -0.094,-0.271118 -0.7276,-2.078521 -1.1406,-3.457031 -1.0805,-1.385666 -1.9725,-2.5507733 -1.2871,-1.365234 -0.9412,-1.2866541 -1.7719,-2.4482823 -2.5079,-3.5703128 -4.4453,0.091589 -8.8903,0.1543775 -13.3281,-0.080078 -1.5118,-0.1275193 -3.0233,-0.2555331 -4.5351,-0.3828125 -1.0291,-0.086637 -2.1242,0.055661 -3.1661,0.013672 -1.2441,1.0204157 -2.0295,1.0237266 -7.0605,3.3339844 -3.1773,-0.3172596 -6.6173,0.354693 -9.5313,-0.9511719 -6.8662,-3.0771194 -9.1637,-7.4225194 -11.4707,-13.6855469 -1.347,-3.6570635 -2.4455,-7.4037393 -3.5117,-11.1523443 -0.069,-0.242298 -0.097,-0.852548 -0.025,-0.988281 -0.6064,-2.038142 -0.69,-4.107601 -0.4297,-6.175781 -9.3924,2.331043 -15.7575,-7.239112 -7.6816,-17.330078 -1.7732,-1.241295 -1.8314,-1.162393 -1.1387,-2.613282 -0.2324,-0.09079 -0.3191,-0.07124 -0.1914,-0.505859 0.5927,-2.016584 1.0975,-2.608605 2.3477,-3.46875 0.1492,-0.373253 0.3256,-0.702454 0.4648,-0.884765 0.28,-0.366694 1.0628,-1.03385 1.4668,-1.388672 0.3913,-0.749322 1.0647,-1.356589 1.4805,-2.082032 0.029,-0.05004 -0.1047,0.148681 -0.1387,0.103516 -0.042,-0.0525 0.05,-0.124873 0.072,-0.1875 1.3214,-1.881373 2.6644,-3.71098 4.4844,-5.142578 0.6777,-0.533091 1.3247,-0.822978 1.9922,-1.416016 0.3679,-0.18703 0.7359,-0.373353 1.1035,-0.560547 -5e-4,-0.264868 0.01,-0.514889 0.029,-0.742187 -0.01,-1.995723 -0.6744,-8.691779 0.072,-9.947266 0.4558,-0.765279 1.134,-1.325115 1.8907,-1.814453 0.1906,-0.771423 0.6138,-1.172697 1.3828,-0.914062 0.3766,-0.317998 0.808,-0.631765 1.2089,-0.960938 0.1534,-0.04855 0.4432,-0.173311 0.6622,-0.257812 -0.418,-1.706434 -0.2792,-3.269916 -0.2266,-7.642579 -0.012,-5.2385 0.028,-10.476358 0.039,-15.714843 0,-2.835493 -0.323,-5.684419 0.2461,-8.476559 0.07,-0.45519 0.038,-0.9377 0.2089,-1.36524 0.042,-0.10378 0.16,0.15555 0.2461,0.22656 2.341,1.92536 4.6134,3.93908 7.0352,5.76172 0.1746,0.13142 0.7167,0.23706 0.6562,0.0274 -1.7893,-6.22769 -4.5154,-12.18604 -5.9629,-18.50196 -0.015,-0.0653 -0.01,-0.12176 0.01,-0.17578 -3.8844,4.19621 -6.4818,5.00308 -13.5879,-1.46875 -1.7494,-1.59327 1.5124,-9.99347 1.8008,-10.64648 1.3152,-2.97627 3.0141,-5.76863 4.5215,-8.65235 5.6173,-6.32123 5.0454,-6.35476 13.2949,-11.82031 0.4574,-0.303 1.4781,-0.756 1.6289,-0.22851 0.06,0.21117 0.047,0.41875 -0.01,0.62304 2.9911,-1.073 6.3158,-1.19592 9.4843,-1.76367 1.3398,-6.41311 3.5423,-12.65599 4.834,-19.125 1.8913,-8.0568 3.3049,-14.82185 6.1524,-22.83203 0.2461,-0.69223 4.171,-4.54917 4.2636,-4.63867 5.4397,-5.25459 5.8,-5.44222 11.4883,-10.4043 7.5864,-6.64744 10.2051,-10.87692 21.1836,-12.33008 1.2642,-0.16733 2.9825,0.85714 4.5195,2.04297 1.4887,-0.50558 3.0046,-0.85586 4.584,-0.87109 3.2675,-0.0315 5.3304,6.02693 6.3828,8.57422 1.6085,3.60406 3.4989,7.16156 5.1309,10.80273 1.2309,-0.68443 2.5498,-1.03516 3.8711,-1.03516 2.2517,0 4.4989,1.00086 6.3027,2.98829 V -423.375 h -292.3515 z m 484.73832,350.994141 c -0.105,0.0886 -0.2013,0.177869 -0.295,0.267578 0.1364,-0.07648 0.2716,-0.154052 0.4082,-0.230469 -0.014,-0.0052 -0.024,-0.01041 -0.037,-0.01563 -0.027,-0.01032 -0.05,-0.01271 -0.076,-0.02148 z m 0.1132,0.03711 c 0.9373,0.359966 1.7787,0.701229 2.5723,1.033203 -0.3503,-0.835034 -0.6146,-1.542904 -0.7773,-2.173828 -0.5536,0.424889 -1.1675,0.789762 -1.795,1.140625 z m 60.0079,-134.013671 c -0.041,0.0605 0.2234,0.45479 0.6718,0.94531 0.026,-0.10336 0.054,-0.20419 0.08,-0.30664 -0.099,-0.0994 -0.1927,-0.20294 -0.293,-0.30078 -0.289,-0.28205 -0.4331,-0.37574 -0.4589,-0.33789 z m -4.1524,15.79492 c -2.6903,2.38834 -5.3285,4.83575 -7.7715,7.47461 -1.2821,1.38482 0.083,3.79465 -0.2148,5.6582 -0.5129,3.21228 -1.486,6.33291 -2.2285,9.5 -0.1793,1.46946 -0.4835,2.91508 -0.8301,4.35352 3.6717,-5.96646 6.8432,-12.56597 9.123,-19.13477 0.8657,-2.49398 1.3856,-5.17206 1.9219,-7.85156 z m 13.582,23.13477 c -0.5225,1.1842 -1.0651,2.3598 -1.621,3.52734 2.8673,0.57089 5.3026,0.71436 6.2324,-0.2793 0.068,-0.67199 0.1584,-1.31614 0.2676,-1.9375 -1.8065,-0.54648 -3.393,-0.95559 -4.879,-1.31054 z m -36.9355,18.53515 c 0.8924,0.69431 1.8773,1.30601 2.8691,1.91211 0.014,-0.005 0.027,-0.009 0.041,-0.0137 0.016,-0.0176 0.034,-0.0426 0.051,-0.0606 -0.9945,-0.60214 -1.9915,-1.20137 -2.9609,-1.83789 z m 2.9102,1.89844 c -0.01,0.0103 -0.016,0.0133 -0.025,0.0234 0.3511,0.21453 0.7007,0.43094 1.0507,0.64648 0.031,-0.0212 0.072,-0.0489 0.1036,-0.0703 -0.3434,-0.21285 -0.6874,-0.42528 -1.0332,-0.63477 -0.03,0.0106 -0.066,0.0249 -0.096,0.0352 z m 19.8828,-0.85938 c -0.3325,0.24172 -0.67,0.47663 -0.9922,0.73243 -0.3261,0.25887 0.3243,0.0641 0.9629,-0.1875 0.01,-0.17067 0.02,-0.37303 0.029,-0.54493 z m -0.4864,8.22071 c -0.085,0.16981 -0.1534,0.30653 -0.2402,0.48047 -2.1097,2.85373 -4.3724,6.3621 -7.4297,8.59961 2.3341,-0.26094 4.6668,-0.53885 6.9981,-0.83399 0.2778,-2.85422 0.4962,-5.55907 0.6757,-8.24609 z m -45,15.21875 c -1.4072,1.27647 -2.8581,2.4999 -4.4941,3.49609 -0.3602,0.41616 -0.6857,0.76631 -1.0215,1.13672 0.3422,-0.19568 0.8901,-0.31 1.1973,-0.51953 1.5004,-1.04639 2.9417,-2.15809 4.3594,-3.29688 -3e-4,-0.003 0,-0.005 0,-0.008 -0.029,-0.273 -0.032,-0.54003 -0.039,-0.80859 z m -6.9257,1.38281 c -0.087,0.35727 -0.1838,0.71242 -0.2559,1.07227 -0.066,0.33016 0.764,-0.65686 0.5059,-0.87305 -0.082,-0.0685 -0.1674,-0.13196 -0.25,-0.19922 z m 49.6914,4.80859 c -3.6232,0.43792 -7.2504,0.83014 -10.8828,1.16602 0,1.0328 -3e-4,2.0745 0.01,3.10156 0.086,4.05097 0.085,8.10271 0.074,12.1543 2.2012,1.03357 4.4429,1.870803 6.5625,3.029297 0.8604,-2.272877 1.9367,-4.553907 2.3555,-6.857427 0.7594,-4.17647 1.341,-8.3827 1.8848,-12.59375 z m -38.7266,41.800786 c -1.0829,0.332195 -2.5638,1.058856 -3.1055,1.671875 -1.4621,1.654743 -2.6513,3.599411 -3.5039,5.664062 0.093,0.05279 0.1653,0.102285 0.2539,0.154297 1.8086,-1.527428 3.6761,-3.003535 5.3164,-4.675781 0.1696,-0.484538 0.2887,-0.851895 0.5059,-1.449219 0.1669,-0.459098 0.3546,-0.910371 0.5332,-1.365234 z m -16.6191,22.371094 c -0.1421,0.101193 -0.2451,0.183916 -0.4512,0.318359 -0.8076,0.52682 -0.1189,-0.268207 -0.7012,0.304688 0.1997,0.386223 0.4724,0.867736 0.8906,1.541015 -0.01,-0.465456 0.108,-1.252741 0.2618,-2.164062 z m 90.4921,2.845703 c -0.3501,0.441948 -0.7019,0.864717 -1.455,1.865234 0,0.38185 -0.3416,0.918778 -0.711,1.365235 0.057,-0.216806 0.1221,-0.437345 0.1914,-0.658203 -0.328,0.446021 -0.574,0.757597 -0.9785,1.332031 -0.2624,0.372752 0.2806,-0.06242 0.7852,-0.671875 -0.8,3.032773 -0.4868,5.712527 -0.793,9.130859 -0.1156,1.291705 -0.2819,2.577429 -0.4648,3.861328 0.9166,0.437274 1.7577,1.168828 3.1543,2.601563 0.115,-0.409304 0.2381,-0.815702 0.3672,-1.220703 -0.065,-0.01819 -0.1308,-0.02969 -0.1954,-0.04883 -1.0177,-0.30221 0.018,-2.124846 0.025,-3.1875 0.02,-3.31546 0.04,-6.62982 0.055,-9.945312 0.01,-1.474438 0.014,-2.949151 0.019,-4.423828 z m -1.9746,2.572266 c 0.1742,-0.236773 0.3655,-0.502398 0.5196,-0.707032 0,-0.139156 -0.047,-0.260331 -0.1582,-0.345703 -0.1428,0.3592 -0.2525,0.706086 -0.3614,1.052735 z m -99.3086,0.654296 c -0.4296,-0.02276 -0.6186,0.166554 -0.6777,0.457032 0.2202,-0.148166 0.4067,-0.280619 0.6777,-0.457032 z m 39.9239,4.992188 c -0.1842,0.157578 -0.3754,0.305523 -0.5801,0.435547 -0.1323,0.08406 -0.2704,0.188343 -0.4063,0.285156 -1.2277,2.8726 -2.5849,5.69352 -4.1113,8.462891 -1.9968,2.911089 -4.0513,5.816077 -6.6894,8.193359 -0.5142,0.463336 -1.1636,0.779145 -1.6641,1.25 0.032,0.01868 0.075,0.03384 0.1055,0.05273 0.2754,-0.176612 0.6014,-0.356869 0.6347,-0.175781 0.036,0.194496 -0.049,0.36637 -0.164,0.533203 2.7938,2.349077 -1.6407,5.974424 -0.5938,8.544922 0.4255,1.044687 1.5137,1.696381 2.0664,2.679688 0.09,0.159735 0.1681,0.326826 0.2481,0.492187 1.0619,-0.69594 2.1494,-1.34024 3.3398,-1.757812 3.9961,-1.40179 10.9132,0.0051 15.1367,0.361328 1.6261,0.06676 3.3143,0.08955 5.0411,0.08984 -0.3534,-0.391983 -0.7038,-0.787689 -1.0684,-1.167969 -1.6428,-3.089584 -2.0376,-4.560997 -2.0527,-7.898438 -0.01,-1.399909 0.368,-1.865762 -0.2403,-0.794922 -1.1068,-1.648909 -1.8273,-3.413585 -2.2851,-5.246093 -3.8564,-2.753677 -6.4578,-6.8366 -6.6856,-12.845704 -0.016,-0.499527 -0.023,-0.996592 -0.031,-1.49414 z m -10.25,33.0097655 c 0.3838,1.041948 0.7935,2.0647314 1.4765,2.9238281 0.3807,0.4787052 0.8649,-1.303891 0.4707,-1.7714844 -0.4913,-0.5828516 -1.2076,-0.8829113 -1.9472,-1.1523437 z m 83.3398,1.7539063 c -1.741,3.2110439 -2.6992,6.277997 -7.3457,7.91992182 -0.8464,0.29911086 -6.9179,-0.022366 -9.9043,-0.17382812 -0.7375,-0.12625681 -1.2842,-0.22193314 -1.7851,-0.31445312 0.2144,0.94133374 0.3113,1.88439542 0.2695,2.74414062 0.146,-0.1539525 -0.031,0.599535 -0.031,0.8789062 0,1.0403013 -3e-4,2.0808529 0.014,3.1210938 0,0.1343119 0.01,0.4322052 0.01,0.5898438 0.1144,-0.049299 0.2332,-0.093098 0.3008,-0.082031 0.036,0.00585 0.06,0.028097 0.053,0.072266 -0.01,0.058791 -0.038,0.1167259 -0.062,0.1757813 4.574,0.9931402 4.594,1.6137215 2.0879,3.6289069 0.5141,0.01992 0.9314,-0.241725 1.2402,-0.7871101 0.012,-0.071671 0.024,-0.1430419 0.035,-0.2148437 0.034,-0.00499 0.112,-0.04599 0.1,-0.015625 -0.04,0.089861 -0.091,0.1522748 -0.1348,0.2304687 -0.08,0.4837251 -0.178,0.9662211 -0.2109,1.4550781 -0.2201,3.387618 0.2298,6.852137 1.3789,10.048829 0.5449,1.51597 1.0624,3.062969 1.873,4.455078 0.5478,0.940589 1.4352,1.638272 2.1524,2.457031 1.3945,1.204061 2.6803,2.54612 4.1836,3.611328 1.158,0.820566 3.8428,2.169061 6.1797,3.216797 V -8.1757812 c -0.1378,-0.015995 -0.2674,-0.031509 -0.3985,-0.046875 z m -71.5488,10.84375 c -0.012,0.00426 -0.064,0.04961 -0.1621,0.1464843 -0.9636,0.955174 -1.4736,1.4691645 -2.0196,2.0097657 0.9119,-0.6937793 2.2569,-2.1821058 2.1817,-2.15625 z m 20.9648,3.8886718 c -0.2623,0.0052 -0.5247,0.010187 -0.7871,0.015625 0.1326,2.6799256 2.9696,5.0048784 3.6934,7.7207034 0.06,0.22615 0.022,0.291739 -0.088,0.242187 0.1311,1.730886 -3.0673,0.04068 2.2422,1.892578 l -1.291,-2.517578 c 0.025,0.232273 0.045,0.46317 0.037,0.685547 -0.037,-0.260067 -0.058,-0.522177 -0.086,-0.783203 z m 12.7344,8.7460934 c -0.3803,0.439401 -0.7163,0.905585 -0.9707,1.419922 -0.3784,0.765251 0.249,0.464642 1.1758,-0.195312 -0.039,-0.242863 -0.078,-0.485696 -0.1172,-0.728516 z" />
      <path
         id="path4492"
         style="fill:#e6e6e6;stroke-width:1.06864"
         transform="matrix(-0.23168552,0,0,0.26458333,343.88405,199.09768)"
         d="m 766.33203,-348.37305 v 8.5 8.5 h 36.83789 36.83789 l 30.0918,26.36328 30.08984,26.36329 40.95117,116.38671 40.95118,116.386723 0.0391,2.189453 0.0391,2.191406 -1.27148,0.6875 -1.27149,0.689454 -2.23242,4.417968 -2.23242,4.417969 -0.89258,4.947266 -0.89258,4.945312 1.00196,5.59375 1.00195,5.595703 2.72461,4.7070316 2.72461,4.70703128 4.5293,3.96875002 4.53124,3.9667969 5.24024,2.2929687 5.24216,2.2910155 6.7989,1.107422 6.8008,1.107422 7.7949,-1.677734 7.7949,-1.677735 5.8828,-3.5390624 5.8828,-3.5371094 2.9141,-3.69726558 2.914,-3.69531252 2.4161,-4.8007812 2.416,-4.7988279 0.029,-7.201172 0.031,-7.199219 -2.3926,-5.5 -2.3906,-5.5 v -0.25 -0.25 h 31.3399 31.3398 l -2.3672,4.6875 -2.3691,4.689453 -0.5762,6.292969 -0.5781,6.291016 1.4765,4.769531 1.4766,4.7695311 2.6192,4 2.6171,4.00000002 4.3399,3.69726568 4.3398,3.6972656 6.2813,2.4921876 6.2812,2.490234 6.8496,0.527344 6.8496,0.525391 5.8438,-1.291016 5.8418,-1.292969 5.1348,-2.6347654 5.1347,-2.6347656 3.7539,-3.7441406 3.752,-3.7421875 2.6426,-5.0546875 2.6425,-5.0546874 0.7559,-5.634766 0.7578,-5.634765 -1.4394,-5.355469 -1.4395,-5.357422 -2.7519,-4.162109 -2.752,-4.164063 -5.123,-4.134766 -5.1211,-4.134765 -5.3907,-2.201172 -5.3906,-2.203125 -77.7461,-0.28125 -77.7461,-0.283203 -9.1914,-26.216797 -9.19336,-26.2168 91.09186,-0.25586 91.0898,-0.25586 30.3926,-38.9707 30.3945,-38.9707 v -0.52344 -0.52344 h -106.2051 -106.207 v -7.5 -7.5 h 112.4141 112.4121 l 32.3906,-41.75 32.3926,-41.75 -191.3496,-0.2539 -191.35162,-0.25196 -35.38477,-30.99804 -35.38476,-30.9961 H 806.5957 Z m 246.58597,308.939456 3.1836,0.658203 3.1836,0.65625 4.0156,1.923829 4.0176,1.925781 2.6484,3.384765 2.6484,3.384766 0.625,4.070312 0.6231,4.06836 -1.8945,4.341797 -1.8926,4.341797 -2.541,2.083984 -2.5411,2.0839844 -3.4257,1.5605468 -3.4258,1.5605469 -5.1387,-0.011719 v 0.00195 l -5.1387,-0.011719 -4.5351,-2.2480469 -4.53322,-2.2480469 -2.57618,-3.3476563 -2.57617,-3.345703 -0.72461,-3.388672 -0.72656,-3.388672 0.75781,-3.537109 0.75781,-3.53711 4.79297,-4.365234 4.79495,-4.365235 4.8105,-1.125 z m 125.08,0.773438 h 6.0059 6.0039 l 4.5625,2.644531 4.5625,2.642578 2.3067,3.960938 2.3066,3.958984 v 3.974609 3.97461 l -1.2149,2.814453 -1.2148,2.814453 -3.0664,2.8730469 -3.0684,2.8710937 -3.4257,1.3398438 -3.4258,1.3378906 -4.4942,0.039063 -4.4921,0.039063 -4.9454,-2.0957031 -4.9433,-2.0957031 -2.9356,-4.3847658 -2.9336,-4.382812 0.01,-4.269532 0.01,-4.271484 1.3066,-3 1.3067,-3 2.4941,-2.34375 2.4922,-2.345703 3.4004,-1.546875 z" />
      <path
         id="path4490"
         style="fill:#cfcfcf;stroke-width:1.06864"
         transform="matrix(-0.23168552,0,0,0.26458333,343.88405,199.09768)"
         d="m 766.24023,-348.375 0.33204,8.25 0.33203,8.25 36.5664,0.26367 36.56836,0.26367 30.38086,26.73633 30.38086,26.73633 41.20117,117.47461 41.20313,117.472656 -1.52735,1.527343 -1.52539,1.525391 -2.61523,4.5 -2.61328,4.5 -0.48438,8 -0.48437,8 2.57226,5.9746094 2.57227,5.9746094 5.56445,5.1523437 5.5625,5.1503906 7.10547,2.8007809 7.10747,2.802735 h 8.5644 8.5645 l 7.1054,-2.802735 7.1074,-2.8007809 5.5626,-5.1503906 5.5624,-5.1523437 2.5626,-5.9746094 2.5605,-5.9746094 -0.3867,-8 -0.3867,-8 -2.4239,-4.25 -2.4238,-4.25 h 31.7676 31.7695 l -2.4941,4.75 -2.4942,4.75 -0.012,8.521484 -0.012,8.521485 3.7598,6.6874998 3.7597,6.68554682 4.8047,3.62890628 4.8067,3.6308593 4.0332,1.8203126 4.0332,1.8222652 6.7402,1.091797 6.7402,1.089844 1.2168,-0.109375 1.2168,-0.109375 4.9903,-0.857422 4.9882,-0.859375 5.0039,-2.1210936 5.0039,-2.1210938 5.0489,-4.296875 5.0508,-4.2988281 2.2402,-3.8632813 2.2402,-3.8632812 1.3848,-5.869141 1.3828,-5.86914 -0.7637,-4.63086 -0.7617,-4.630859 -2.6035,-5.044922 -2.6016,-5.044922 -3.8339,-3.824218 -3.8321,-3.822266 -4.1562,-2.296875 -4.1543,-2.296875 -6.0938,-1.583984 -6.0918,-1.585938 h -75.0879 -75.08785 l -0.59375,-1.75 -0.59571,-1.75 -8.16992,-23.449219 -8.17187,-23.451171 -0.56836,-1.29883 -0.57032,-1.30078 h 91.25198 91.2519 l 30.5684,-39.25 30.5683,-39.25 -106.2812,-0.25391 -106.2812,-0.25586 v -7.49414 -7.49609 h 112.3105 112.3105 l 32.1524,-41.42969 32.1523,-41.43164 v -0.56836 -0.57031 H 1108.6387 917.63281 l -35.38672,-31 -35.38867,-31 h -40.30859 z m 378.05857,308.916016 4.5332,1.068359 4.5332,1.068359 3.6328,2.677735 3.6329,2.677734 1.5586,3.263672 1.5566,3.265625 v 4.693359 4.69336 l -2.8242,4.220703 -2.8242,4.220703 -4.8848,2.1171875 -4.8828,2.1171875 h -4.8985 -4.9004 l -4.4257,-1.9765625 -4.4258,-1.9765625 -2.2617,-2.783203 -2.2637,-2.78125 -1.2148,-3.990234 -1.2149,-3.992188 1.0215,-3.921875 1.0215,-3.921875 2.1797,-2.578125 2.1777,-2.578125 3.5801,-2.132812 3.5781,-2.134766 4.0078,-0.658203 z m -136.4336,0.609375 5.8809,0.03906 5.8809,0.03906 4.5449,2.632812 4.5429,2.632813 2.5606,4.632812 2.5605,4.630859 -0.5468,4.97461 -0.545,4.972656 -3.3847,3.710938 -3.3848,3.7109371 -3.916,1.7480469 -3.916,1.7480469 -4.8906,0.00195 -4.8907,0.00195 -3.7265,-1.3652343 -3.7286,-1.3632813 -2.99018,-3.1113281 -2.98829,-3.1093752 -1.37304,-3.642578 -1.37305,-3.642578 0.60742,-3.955078 0.60547,-3.955078 2.84961,-3.771484 2.85156,-3.771485 4.3848,-1.894531 z" />
      <path
         id="path4488"
         style="fill:#a6a6a6;stroke-width:1.06864"
         transform="matrix(-0.23168552,0,0,0.26458333,343.88405,199.09768)"
         d="m 846.84375,-348.39062 -39.9707,0.25976 -39.96875,0.25977 v 8 8 l 36.5664,0.26367 36.56836,0.26367 30.43555,26.73633 30.4375,26.73633 41.17578,117.30468 41.17383,117.302738 -2.78516,3.697266 -2.78515,3.695312 -1.75782,4.375 -1.75781,4.376953 v 6.335938 6.337891 l 2.3457,5.4882808 2.34571,5.4902343 5.13086,4.9980469 5.13086,4.9980469 6.03125,2.5820312 6.02934,2.5839839 5.9003,0.816407 5.8985,0.816406 6.5137,-0.894531 6.5136,-0.894532 5.5977,-2.6679682 5.5957,-2.6660157 4.9668,-4.8359375 4.9648,-4.8359375 2.4551,-5.703125 2.457,-5.7011721 -0.4843,-8 -0.4844,-8 -2.5039,-4.25 -2.5059,-4.25 h 32 31.9981 v 0.3125 0.3125 l -2.5215,4.4375 -2.5235,4.4375 0.016,8.5 0.016,8.5 1.9883,4.0000002 1.9902,4 2.9805,3.7792969 2.9804,3.78125 5.4102,3.4765625 5.4082,3.4765625 4.4043,1.3417969 4.4043,1.339844 5.1406,0.503906 5.1387,0.507813 5.2168,-0.746094 5.2168,-0.746094 5.6309,-2.5039062 5.6328,-2.5058594 4.6718,-4.140625 4.6719,-4.140625 2.4649,-4.3203125 2.4628,-4.3203129 1.1563,-5.332031 1.1543,-5.330078 -1.2441,-6.007812 -1.2442,-6.007813 -2.0937,-3.554687 -2.0938,-3.554688 -4.1445,-4.207031 -4.1445,-4.208985 -7.6348,-3.291015 -7.6348,-3.292969 -77.3203,-0.283203 -77.31835,-0.28125 -1.16016,-3.216797 -1.16016,-3.21875 -7.51757,-21.5 -7.51563,-21.5 -0.61328,-1.75 -0.61133,-1.74805 91.15038,-0.0117 91.1504,-0.0117 29.6914,-38.11133 29.6934,-38.11133 0.3691,-1.375 0.3691,-1.37695 h -105.7187 -105.7187 v -7.5 -7.5 h 112.2382 112.2383 l 31.9395,-41.17188 31.9375,-41.17187 0.3808,-0.82813 0.3809,-0.82812 H 1108.7344 917.63281 l -35.39453,-31.00977 z m 166.16015,308.792964 3.8691,0.636718 3.8692,0.634766 3.8398,2.234375 3.8379,2.234375 2.5703,4.453125 2.5684,4.453125 v 3.72461 3.722656 l -1.2168,2.814453 -1.2188,2.814453 -2.4941,2.3828125 -2.4922,2.3847656 -3.4258,1.8632813 -3.4257,1.8632812 -5.461,0.00195 -5.4629,0.00391 -3.6738,-1.3769531 -3.6758,-1.3769531 -3.06639,-2.8730469 -3.06836,-2.8730465 -1.21484,-2.814453 -1.21484,-2.814453 v -3.722656 -3.72461 l 2.57031,-4.453125 2.56836,-4.453125 3.83986,-2.234375 3.8398,-2.234375 3.8692,-0.634766 z m 132.2363,0 4.1426,1.197265 4.1445,1.197266 3.4375,2.533203 3.4375,2.533203 1.7383,2.94336 1.7383,2.943359 0.043,4.900391 0.043,4.90039 -2.6816,4.257813 -2.6816,4.2558591 -4.5645,2.3222657 -4.5644,2.3203124 -7.002,-0.3300781 -7,-0.3300781 -4.1348,-2.7617188 -4.1347,-2.7636718 -1.9278,-3.1972654 -1.9257,-3.199219 -0.025,-5 -0.025,-5 2.5761,-4 2.5782,-4 3.8945,-2.230469 3.8965,-2.232422 4.498,-0.628906 z" />
      <path
         id="path4486"
         style="fill:#979797;stroke-width:1.06864"
         transform="matrix(-0.23168552,0,0,0.26458333,343.88405,199.09768)"
         d="m 767.47461,-348.37695 v 8 8 h 35.69531 35.69531 l 31.04883,27.25 31.04688,27.25 41.17187,117.2207 41.16992,117.222656 -3.32421,4.589844 -3.32422,4.591797 -1.38477,5.052734 -1.38476,5.054688 0.57421,6.277343 0.57618,6.275391 2.71093,4.857422 2.71094,4.8574219 5.94141,5.1601562 5.9414,5.1621094 6.37891,2.0878905 6.37695,2.089844 h 7.9082 7.9082 l 6.5742,-2.154297 6.5742,-2.1523438 5.8008,-5.0976562 5.8028,-5.0957031 2.7129,-4.9277344 2.7128,-4.9296875 0.5059,-7.628906 0.5039,-7.628907 -2.8574,-6.193359 -2.8555,-6.191406 h 31.9649 31.9648 l -0.8672,1.75 -0.8672,1.75 -2.0722,5 -2.0723,5 -0.02,3.5 -0.02,3.5 1.5664,5.826172 1.5645,5.8261716 4.2422,5.3945313 4.2422,5.3925781 5.8808,3.3769531 5.8789,3.3769529 3.8828,1.154297 3.8809,1.152344 8.1094,-0.08594 v 0.002 l 8.1094,-0.08594 2.8554,-0.761719 2.8535,-0.763672 4.5684,-2.068359 4.5684,-2.0683594 4.7949,-4.3320312 4.7969,-4.3339844 3.039,-5.8320312 3.0391,-5.8320308 -0.025,-7.167969 -0.018,-7.167969 -2.4805,-5.761719 -2.4804,-5.759765 -5.3379,-4.798828 -5.3379,-4.798829 -6.8516,-2.939453 -6.8515,-2.941406 -77.336,-0.289062 -77.3359,-0.289063 -4.5293,-12.710937 -4.53125,-12.710938 -4.64063,-13.324219 -4.64062,-13.324223 v -0.42578 -0.42578 l 91.0742,-0.0332 91.0742,-0.0352 29.6914,-38.15625 29.6934,-38.1582 0.3809,-0.81055 0.3789,-0.80859 H 1116.4395 1010.709 v -8 -8 l 112.2012,-0.0117 112.2011,-0.0117 32.3262,-41.73828 32.3262,-41.73828 -191.043,-0.25196 -191.04297,-0.2539 -35.46289,-30.9961 -35.46484,-30.99804 h -39.64258 z m 372.43949,308.763669 5.5879,0.470703 5.5859,0.46875 4.0683,2.71875 4.0704,2.716797 1.8027,2.410156 1.8047,2.412109 0.9707,3.771485 0.9726,3.773437 -1.2675,4.408203 -1.2676,4.408203 -4.3027,3.7675786 -4.3028,3.7695313 -4.9375,0.8828125 -4.9375,0.8828125 -3.9961,-0.7871094 v -0.00195 l -3.998,-0.7851563 -0.8164,-0.023437 -0.8164,-0.021484 -3.9629,-3.046875 -3.9629,-3.0468752 -1.9356,-4.439453 -1.9355,-4.4375 0.7715,-4.265625 0.7715,-4.263672 2.9316,-3.714844 2.9297,-3.714843 5.0859,-2.15625 z m -130.4102,0.236328 3.7481,0.02344 3.748,0.02344 4.7012,1.86914 4.7011,1.869141 3.2051,3.679688 3.2071,3.68164 0.5078,5.367188 0.5078,5.367187 -2.5176,4.554688 -2.5195,4.5566404 -4.7539,2.4960937 -4.7539,2.4941407 -6.127,0.00781 v 0.00391 l -6.125,0.00586 -4.1719,-2.0527344 -4.17185,-2.0527344 -2.74804,-3.511719 -2.74805,-3.511718 -0.49805,-5.259766 -0.49804,-5.261719 2.28711,-3.923828 2.28906,-3.925781 2.16015,-1.710938 2.16211,-1.710937 4.2051,-1.539063 z" />
      <path
         id="path4484"
         style="fill:#8a8a8a;stroke-width:1.06864"
         transform="matrix(-0.23168552,0,0,0.26458333,343.88405,199.09768)"
         d="m 767.47461,-348.37109 v 8 8 h 35.69531 35.69531 l 31.08008,27.25 31.08008,27.25 41.16406,117.18554 41.16602,117.18555 -3.39844,4.691406 -3.39844,4.691406 -1.34375,5.257813 -1.34375,5.257813 0.52539,5.541015 0.52344,5.539063 3.67383,6.5332028 3.67187,6.53320308 4.71876,3.53710932 4.71874,3.5371094 5.22657,2.2382813 5.22461,2.2402341 8.7734,0.367188 8.7735,0.36914 5.5019,-1.626953 5.502,-1.628906 5.4629,-3.5097656 5.4648,-3.5097656 3.7637,-5.2148438 3.7637,-5.2148438 1.4902,-4.7695312 1.4902,-4.769531 -0.5761,-6.292969 -0.5782,-6.291016 -2.3672,-4.689453 -2.3691,-4.6875 h 31.9121 31.9102 v 0.373047 0.373047 l -2.17,4.376953 -2.1699,4.376953 -0.7656,4.144532 -0.7637,4.144531 1.2227,5.791015 1.2207,5.789063 2.3555,4.2597655 2.3554,4.2597656 4.7305,4.1425781 4.7305,4.1425782 5.7617,2.5898437 5.7617,2.5898439 9.707,0.355469 9.7071,0.359375 6.7578,-2.492188 6.7578,-2.4921874 5.0449,-4.2929687 5.043,-4.2949219 2.7265,-4.6621094 2.7266,-4.6621096 1.002,-5.59375 1.0019,-5.59375 -0.916,-5.082031 -0.918,-5.083984 -2.5625,-4.634766 -2.5625,-4.634766 -4.6992,-4.115234 -4.6992,-4.113281 -6.7813,-2.91211 -6.7793,-2.912109 -77.3359,-0.289062 -77.33594,-0.289063 -4.60156,-12.960937 -4.60352,-12.960938 -4.56836,-12.863281 -4.56835,-12.863279 v -0.63672 -0.63672 h 90.73043 90.7305 l 2.7793,-3.25 2.7793,-3.25 27.6269,-35.5 27.629,-35.5 -105.7207,-0.25391 -105.7207,-0.25586 v -7.99414 -7.99609 l 112.2011,-0.0176 112.2012,-0.0195 32.2988,-41.73047 32.2989,-41.72851 -191.0157,-0.25391 -191.0156,-0.25195 -35.46289,-30.99805 -35.46484,-30.99609 H 807.11719 Z M 1139.3438,-39.375 h 4.2441 4.2441 l 3.6934,1.351562 3.6914,1.351563 3.6465,3.634766 3.6445,3.636718 1.1934,3.876953 1.1914,3.878907 -0.7364,3.384765 -0.7363,3.384766 -1.4414,2.5 -1.4414,2.5 -2.9297,2.3984375 -2.9316,2.3964844 -5.457,1.2460937 -5.4571,1.2460938 -3.4258,-0.5351563 -3.4257,-0.5371093 -3.004,-1.3203126 -3.0058,-1.3222656 -2.8926,-3.0097656 -2.8926,-3.011719 -1.373,-3.640625 -1.3731,-3.642578 0.6075,-3.955078 0.6054,-3.955078 2.877,-3.806641 2.8769,-3.808593 5.0039,-2.121094 z m -130.3379,0.04297 h 3.998 3.9961 l 4.7012,1.86914 4.7011,1.869141 3.2051,3.681641 3.2071,3.679687 0.5078,5.367188 0.5078,5.367187 -2.5,4.523438 -2.5,4.5234371 -4.041,2.1855469 -4.0391,2.1875 -3.5879,0.7089844 -3.5879,0.7089844 -3.4258,-0.4785157 -3.4257,-0.4785156 -4.7442,-2.3652344 -4.74412,-2.3652343 -2.5293,-4.5742188 -2.5293,-4.576172 0.50977,-5.367187 0.50781,-5.367188 3.20508,-3.679687 3.20703,-3.681641 4.70113,-1.869141 z" />
      <path
         id="path4482"
         style="fill:#787878;stroke-width:1.06864"
         transform="matrix(-0.23168552,0,0,0.26458333,343.88405,199.09768)"
         d="m 767.47461,-347.375 v 7.5 7.5 h 35.69531 35.69531 l 31.07227,27.25 31.07031,27.25 41.24805,117.26367 41.24805,117.265627 -3.46485,4.580078 -3.46484,4.580078 -1.35156,5.291016 -1.35157,5.289062 0.52539,5.541016 0.52344,5.541015 3.67383,6.5312505 3.67187,6.53320312 4.71876,3.53710938 4.71874,3.5371094 5.22657,2.2539062 5.22461,2.2558594 h 10.8496 10.8477 l 5.2265,-2.2558594 5.2246,-2.2539062 4.7188,-3.5371094 4.7207,-3.53710938 3.7578,-6.69335942 3.7598,-6.6933592 -0.022,-8.515625 -0.022,-8.513672 -2.4824,-4.75 -2.4824,-4.75 h 31.9082 31.9121 v 0.373047 0.373047 l -2.4668,4.876953 -2.4668,4.876953 -0.037,7 -0.039,7 1.5176,4 1.5195,4 3.5566,4.671875 3.5567,4.671875 4.3848,3.0390625 4.3828,3.0390625 6.2226,2.039063 6.2227,2.039062 7.664,-0.02344 7.6641,-0.02148 6.8516,-2.451172 6.8515,-2.4531248 5.8106,-5.2734374 5.8105,-5.2753907 2.541,-5.9550781 2.5411,-5.953125 v -6.341797 -6.341797 l -1.3731,-3.703125 -1.373,-3.705078 -3.8047,-5.058594 -3.8047,-5.060547 -5.1152,-3.216796 -5.1172,-3.21875 -4.9102,-1.71875 -4.9082,-1.716797 -76.9316,-0.50586 -76.92972,-0.503906 -8.98438,-25.5 -8.98437,-25.500005 -0.0215,-0.75 -0.0215,-0.75 h 90.73247 90.7305 l 2.7636,-3.25 2.7637,-3.25 27.6074,-35.5 27.6074,-35.5 -105.6836,-0.25586 -105.6855,-0.2539 v -7.9961 -7.99414 l 112.2012,-0.0371 112.2011,-0.0391 32.2832,-41.71289 32.2832,-41.71289 -191.0293,-0.25391 -191.03123,-0.25195 -34.8125,-30.49805 L 848,-347.375 h -40.26367 z m 372.43949,307.759766 5.6015,0.470703 5.5996,0.470703 3.9707,2.382812 3.9707,2.382813 2.2207,3.517578 2.2207,3.515625 0.7657,3.167969 0.7636,3.166015 -1.2402,4.03711 -1.2422,4.039062 -2.9492,3.0683596 -2.9473,3.0683594 -2.4472,1.1503906 -2.4453,1.1503906 -3.4258,0.7226563 -3.4258,0.7207031 -3.9981,-0.5292968 -3.996,-0.5273438 -3.004,-1.3320312 -3.0058,-1.3300782 -2.8926,-3.0097656 -2.8926,-3.011719 -1.373,-3.640625 -1.3731,-3.642578 0.6075,-3.955078 0.6054,-3.955078 2.877,-3.806641 2.8769,-3.808593 5.2891,-2.240235 z m -130.9082,0.285156 h 3.998 3.9961 l 4.5684,1.847656 4.5683,1.845703 2.4922,2.38086 2.4941,2.382812 1.2188,2.814453 1.2168,2.816406 v 4.595704 4.597656 l -2.8984,4.332031 -2.9004,4.3320314 -3.666,1.6738281 -3.668,1.671875 -3.4258,0.6914063 -3.4258,0.6914062 -3.4258,-0.4902344 -3.4257,-0.4902344 -4.3946,-2.1074218 -4.39451,-2.1074219 -2.87695,-4.2988285 -2.87695,-4.298828 0.48437,-5.865234 0.48438,-5.863281 3.22851,-3.707032 3.22852,-3.707031 4.70113,-1.869141 z" />
      <path
         id="path4480"
         style="fill:#626262;stroke-width:1.06864"
         transform="matrix(-0.23168552,0,0,0.26458333,343.88405,199.09768)"
         d="m 767.47461,-347.37305 v 7.5 7.5 h 35.69531 35.69531 l 31.1211,27.26563 31.12305,27.26562 41.14257,116.9336 41.14063,116.933591 -4.32227,7.458984 -4.32422,7.457031 0.002,8.09375 v 8.091797 l 3.06054,5.7187501 3.0625,5.7207031 5.03516,4.2792969 5.03516,4.28125 5.60547,2.5 5.60738,2.4999999 h 10.8496 10.8477 l 5.6992,-2.4999999 5.6972,-2.5 4.9571,-4.3046875 4.957,-4.3027344 3.0488,-5.6972656 3.0489,-5.6953126 -0.057,-8.5 -0.057,-8.5 -2.4727,-4.75 -2.4707,-4.75 h 31.9336 31.9356 v 0.25 0.248047 l -2.4317,5.501953 -2.4297,5.498047 0.016,7.207031 0.016,7.205078 3.4004,6.2949222 3.4023,6.2929688 4.4375,3.8886719 4.4395,3.8867187 6.2812,2.5917969 6.2813,2.5917965 9.1347,0.267578 9.1368,0.267579 6.2675,-2.15625 6.2696,-2.1542972 6.3925,-5.5996094 6.3926,-5.5976563 2.5821,-5.9921875 2.58,-5.9941406 -0.4863,-8 -0.4883,-8 -3.0312,-5.1875 -3.0332,-5.185547 -4.3008,-3.703125 -4.2988,-3.703125 -7.4239,-3.109375 -7.4218,-3.111328 -76.9844,-0.5 -76.9863,-0.5 -8.94532,-25.5 -8.94726,-25.5 -0.004,-0.74219 -0.004,-0.74414 91.02538,-0.25586 91.0253,-0.25586 30.0567,-38.5 30.0547,-38.5 -105.6641,-0.25586 -105.664,-0.25586 v -7.99414 -7.99414 l 112.2011,-0.043 112.2012,-0.0449 32.209,-41.70703 32.2109,-41.70508 -191.5292,-0.2539 -191.52737,-0.25196 -34.8125,-30.49804 -34.81446,-30.4961 h -39.6914 z m 380.70509,307.99805 4.8008,2.035156 4.8007,2.035156 2.9297,3.714844 2.9317,3.714844 0.7715,4.263672 0.7714,4.265625 -1.8808,4.314453 -1.8828,4.316406 -3.2774,2.7480471 -3.2773,2.75 -4.4102,1.421875 -4.4121,1.421875 -4.5605,-0.5527343 v 0.00195 l -4.5625,-0.5527344 -3.3106,-1.6992187 -3.3105,-1.6992188 -3.3926,-3.6738279 -3.3926,-3.675781 -0.5742,-4.457032 -0.5723,-4.455078 1.3399,-3.55664 1.3398,-3.556641 2.4141,-2.6875 2.416,-2.6875 4.6563,-1.853516 4.6582,-1.851562 4.4941,-0.02344 z m -142.957,0.5 h 7.7812 7.7832 l 4.3887,3.072266 4.3867,3.070312 1.998,3.429688 1.9961,3.427734 v 4.791016 4.789062 l -2.2578,3.876953 -2.2578,3.8750002 -3.582,2.234375 -3.584,2.234375 -3.5801,0.7480469 -3.5801,0.7480469 -1.1425,0.095703 -1.1426,0.097656 -4.5664,-1.109375 -4.5684,-1.1074219 -3.166,-1.9707031 -3.16796,-1.9707032 -2.25782,-3.8749998 -2.25781,-3.876953 0.002,-4.789062 0.004,-4.791016 1.9961,-3.427734 1.99609,-3.429688 4.3886,-3.070312 z" />
      <path
         id="path4478"
         style="fill:#4a4a4a;stroke-width:1.06864"
         transform="matrix(-0.23168552,0,0,0.26458333,343.88405,199.09768)"
         d="m 767.47461,-347.37305 v 7.5 7.5 h 35.69531 35.69531 l 31.23243,27.36328 31.23437,27.36329 41.05274,116.79687 41.05273,116.798829 -4.3457,7.5 -4.34571,7.498047 0.0391,8.089843 0.0391,8.089844 2.98437,5.6464845 2.98438,5.6484375 4.80078,4.2050781 4.80078,4.203125 6.44922,2.6484375 6.45118,2.6484374 h 9.7071 9.705 l 6.4512,-2.6484374 6.4492,-2.6484375 4.8008,-4.203125 4.8008,-4.2050781 3,-5.6484375 3,-5.6464845 -0.022,-8.5 -0.022,-8.5 -2.5234,-4.439453 -2.5235,-4.4375 v -0.3125 -0.310547 h 32.4043 32.4024 l -2.1856,3.867188 -2.1855,3.86914 -0.9258,5.125 -0.9238,5.125 1.0019,5.59375 1.002,5.59375 2.7598,4.7714846 2.7597,4.76953128 5.8281,4.58789062 5.8282,4.5878906 6.2695,2.0546879 6.2676,2.054687 7.0957,-0.06836 7.0937,-0.06641 4.5684,-1.257813 4.5683,-1.2578125 4.6856,-2.5957031 4.6875,-2.5957032 4.1543,-4.24999995 4.1543,-4.25000005 2.293,-5.3671874 2.2929,-5.3671878 V -20.875 -27.298828 l -2.4511,-5.736328 -2.4512,-5.738282 -5.2285,-4.894531 -5.2286,-4.896484 -4.5644,-2.037109 -4.5625,-2.039063 -3.459,-1.087891 -3.459,-1.08789 -76.4531,-0.529297 -76.45511,-0.529297 -8.8457,-25 -8.8457,-25 -0.0625,-1.75 -0.0644,-1.75 h 91.19141 91.1953 l 29.8164,-38.25 29.8164,-38.25 -105.5938,-0.25391 -105.5937,-0.25586 v -7.99023 -7.98828 l 112.2012,-0.25586 112.2011,-0.25586 32.1524,-41.5 32.1523,-41.5 -191.4707,-0.25195 -191.47066,-0.25196 -34.8125,-30.49804 -34.81445,-30.4961 H 807.16406 Z M 1008.5859,-39.375 h 4.42 4.4179 l 3.2149,1.064453 3.2148,1.064453 3.2422,2.685547 3.2422,2.685547 1.6777,2.8125 1.6778,2.8125 0.043,4.835938 0.043,4.835937 -1.8867,3.480469 -1.8848,3.4804685 -2.6836,2.2070313 -2.6816,2.2070312 -4.3906,1.4238281 -4.3907,1.4238281 -5.1015,-0.5195312 -5.1016,-0.5195312 -4.2969,-2.4921876 -4.2988,-2.4902343 -2.41406,-4.1445309 -2.41602,-4.144532 0.043,-4.792968 0.043,-4.791016 1.67773,-2.8125 1.67774,-2.8125 3.24219,-2.685547 3.24222,-2.685547 3.2148,-1.064453 z m 129.9453,0.002 h 4.8243 4.8242 l 5.0039,2.121094 5.0039,2.121094 2.877,3.80664 2.8769,3.808594 0.6055,3.953125 0.6074,3.955078 -1.3731,3.642578 -1.373,3.642578 -2.9941,3.1171879 -2.9961,3.1171875 -4.6153,1.8339844 -4.6152,1.8359374 -3.4863,0.023438 v -0.00195 l -3.4883,0.023437 -5.6484,-2.4824219 -5.6485,-2.484375 -2.709,-3.5058593 -2.709,-3.505859 -0.5644,-4.392579 -0.5645,-4.392578 1.3399,-3.55664 1.3398,-3.554688 2.3262,-2.589844 2.3281,-2.591797 4.4141,-1.970703 z" />
      <path
         id="path4476"
         style="fill:#252525;stroke-width:1.06864"
         transform="matrix(-0.23168552,0,0,0.26458333,343.88405,199.09768)"
         d="m 767.47461,-347.37305 v 7.5 7.5 h 36.26562 36.26758 l 30.50977,26.75 30.50976,26.75 41.37891,117.8086 41.38086,117.808591 -1.41016,1.691406 -1.4082,1.691406 -2.72461,5 -2.72461,5 -0.76562,5.158203 -0.76368,5.160156 1.84961,6.339844 1.84961,6.3417971 2.96094,3.9257813 2.95899,3.92578122 3.5625,2.93554688 3.5625,2.9375 6.28124,2.6386719 6.28128,2.6367186 h 9.707 9.707 l 6.2813,-2.6093749 6.2793,-2.609375 4.2461,-3.65625 4.2461,-3.6582031 2.7773,-4.2324219 2.7793,-4.234375 1.2559,-5.2988281 1.2558,-5.298828 -0.039,-3.201172 -0.039,-3.201172 -2.0723,-5 -2.0722,-5 -0.8672,-1.75 -0.8692,-1.75 h 32.6934 32.6914 l -2.5039,4.25 -2.5039,4.25 -0.4844,8 -0.4844,8 2.4024,5.5800782 2.4043,5.5800782 4.1543,4.24999998 4.1562,4.25000002 4.5215,2.5 4.5235,2.5 5.3027,1.4101566 5.3027,1.408203 6.2813,-0.01172 v -0.002 l 6.2812,-0.01172 6.5899,-2.373047 6.5879,-2.3730466 4.0761,-2.7207032 4.0743,-2.7207031 3.7753,-5.1699219 3.7754,-5.1679687 1.2578,-3.9628905 1.2559,-3.964844 0.01,-5.712891 0.01,-5.710937 -2.4687,-5.78125 -2.4707,-5.779297 -6.3887,-5.595703 -6.3887,-5.59375 -6.8437,-2.412109 -6.8457,-2.414063 -76.5137,-0.294922 -76.51366,-0.292969 -9.25,-26.439453 -9.25,-26.43945 0.58985,-0.51563 0.58984,-0.51758 h 90.93747 90.9375 l 29.7852,-38.25 29.7851,-38.25 -105.7812,-0.5 -105.7813,-0.5 -0.3339,-7.74414 -0.3321,-7.74609 112.7051,-0.25391 112.707,-0.25586 32.2305,-41.5 32.2305,-41.5 -191.4356,-0.25195 -191.43552,-0.25391 -34.8125,-30.49609 -34.81445,-30.49805 h -39.69141 z m 244.53129,307.751956 4.5664,0.53711 4.5644,0.535156 3.8672,2.320312 3.8652,2.320313 2.586,4.017578 2.584,4.015625 -0.078,5.027344 -0.078,5.02539 -1.7656,2.97461 -1.7676,2.972656 -2.6855,2.1972656 -2.6856,2.1953125 -3.9883,1.515625 -3.9902,1.5136719 -3.748,0.039063 -3.7481,0.039063 -4.2461,-1.5527344 -4.2461,-1.5527344 -3.166,-2.65625 -3.16797,-2.6562502 -1.64453,-4.849609 -1.64453,-4.847656 0.69336,-3.191407 0.69141,-3.193359 1.49218,-2.601562 1.49219,-2.601563 4.0293,-3.097656 4.03129,-3.09961 4.0937,-0.671875 z m 136.5039,0.03125 4.6543,2.080078 4.6562,2.080078 2.3281,2.589844 2.3262,2.589844 1.3399,3.556641 1.3398,3.55664 -0.5723,4.455078 -0.5742,4.457032 -3.3379,3.675781 -3.3359,3.673828 -5.0742,2.3164062 -5.0723,2.3144532 -5.4043,-0.4160156 -5.4023,-0.4160157 -4.5489,-2.7617187 -4.5488,-2.7597656 -2.3242,-4.2031248 -2.3242,-4.205078 v -4.22461 -4.222656 l 2.2734,-3.902344 2.2734,-3.902343 4.1192,-2.751954 4.1191,-2.75 6.5449,-0.416015 z" />
      <path
         id="path4474"
         style="fill:#171717;stroke-width:1.06864"
         transform="matrix(-0.23168552,0,0,0.26458333,343.88405,199.09768)"
         d="m 767.47461,-347.375 v 7.5 7.5 h 36.26758 36.26562 l 30.58008,26.79102 30.58008,26.79296 41.07226,116.8086 41.07227,116.806639 v 1.365234 1.365235 l -3.31836,4.582031 -3.31836,4.580078 -1.2539,6.302734 -1.25196,6.300781 1.10938,5.123047 1.10937,5.123047 2.78906,4.8203128 2.78711,4.81835932 5.32618,4.29882808 5.32617,4.2988282 5.33984,2.125 5.33987,2.1249996 h 9.707 9.707 l 5.3868,-2.1425778 5.3867,-2.1445312 5.5136,-4.515625 5.5137,-4.5175781 2.5332,-4.4394531 2.5313,-4.4394528 1.1855,-5.613282 1.1856,-5.615234 -1.1563,-5.476562 -1.1562,-5.47461 -1.7559,-2.974609 -1.7578,-2.976563 V -39.326172 -40.375 h 31.7851 31.7872 l 0.7109,0.623047 0.7129,0.623047 -2.5059,4.126953 -2.5058,4.126953 -0.016,9.5 -0.014,9.5 2.5742,4.5742188 2.5762,4.5761718 4.039,4.1328125 4.0391,4.1328125 7.3652,3.1738282 7.3653,3.1757812 7.7187,0.394531 v 0.002 l 7.7168,0.396485 5.9395,-1.859375 5.9394,-1.8574221 4.6563,-2.8261719 4.6562,-2.8242188 3.3984,-4.04687495 3.3985,-4.04882815 2.3926,-5.5468751 2.3925,-5.548828 -0.498,-7 -0.5,-7 -2.3672,-4.675781 -2.3672,-4.673828 -4.7929,-4.554688 -4.795,-4.554687 -6.4414,-2.769532 -6.4433,-2.771484 -78.1231,-0.5 -78.12303,-0.5 -9.50391,-27 -9.50195,-26.999997 -0.0215,-0.25 -0.0215,-0.25 91.64459,-0.0176 91.6445,-0.0195 29.8008,-38.23242 c 63.6192,-61.03396 -26.613,-38.36752 -76.2285,-38.48633 l -106.0274,-0.25586 v -7.99023 -7.99024 l 112.6153,-0.2539 112.6132,-0.25391 32.168,-41.5 32.166,-41.5 -191.3281,-0.25391 -191.32815,-0.25195 -34.8125,-30.49805 -34.81446,-30.49609 h -39.6914 z m 374.71679,307.753906 5.0606,0.5 5.0605,0.5 4.1289,2.757813 4.127,2.757812 2.1347,4.115235 2.1348,4.115234 0.025,3.783203 0.025,3.78125 -1.5528,3.21875 -1.5527,3.216797 -3.3008,2.8886719 -3.3008,2.8886719 -3.4257,1.3789062 -3.4258,1.3769531 -5.9278,-0.34375 -5.9257,-0.34375 -4.6153,-2.6738281 -4.6133,-2.6738281 -2.3066,-3.9589849 -2.3066,-3.958984 v -4.572266 -4.570312 l 1.5429,-3.234375 1.543,-3.234375 4.1426,-3.183594 4.1426,-3.185547 4.0937,-0.671875 z m -135.2676,0.248047 h 6.0801 6.0801 l 4.8437,2.484375 4.8438,2.486328 2.9648,5.210938 2.9649,5.210937 -0.01,2.052735 -0.01,2.052734 -1.1796,3.720703 -1.1797,3.71875 -3.0489,3.1718751 -3.0488,3.1738281 -4.6152,1.8359376 -4.6153,1.8359374 h -3.9921 -3.9981 l -4.6152,-1.8359374 -4.61526,-1.8359376 -3.0625,-3.1875 -3.0625,-3.1875002 -1.24219,-4.039062 -1.24219,-4.03711 0.76563,-3.166015 0.76367,-3.167969 2.43359,-3.847656 2.4336,-3.847656 4.67965,-2.402344 z"
         sodipodi:nodetypes="ccccccccccccccccccccccccccccccccccccccccccccccccccccccccccccccccccccccccccccccccccccccccccccccccccccccccccccccccccccccccccccccccccccccccccccccccccccccccc" />
      <path
         id="path4472"
         style="fill:#ff0000;stroke-width:0.264583"
         d="m 155.90684,-33.222344 v 1.984375 1.984375 h -8.40267 -8.40221 l -7.10443,7.108092 -7.10487,7.108611 -9.60274,31.189826 c -1.51796,5.066012 -3.91437,12.693155 -5.722,19.096516 -0.79079,2.801276 0,0 -2.77117,8.102336 l -0.66248,-13.301509 -4.70792,-0.30334 -15.700311,-0.0098 -27.453367,1.112594 c -3.010893,-3.51301 -5.081675,-9.648631 -4.3043,-8.046537 4.286066,8.833186 25.472178,-3.370945 39.324099,-2.488221 L 99.682821,5.00995 74.041767,4.9391528 C 74.161526,4.8016197 74.280519,4.663576 74.400602,4.5262573 73.364041,4.4359788 72.303524,4.1201907 71.254753,3.9133738 c 0.129164,-0.7848018 0.249085,-1.5764219 0.463371,-2.30115 -0.567398,0.7148433 -1.138642,1.4224185 -1.710511,2.1280358 -0.64163,-0.040658 -1.2739,0.01143 -1.887403,0.23926 -0.662783,0.2461446 -1.294427,0.5684838 -1.906888,0.9379294 L 47.559927,4.8657706 40.284006,-5.8576039 33.007621,-16.581497 l -0.08823,-0.250632 -0.08779,-0.250629 h 44.27501 44.275449 l 8.06646,-8.069792 8.06645,-8.069791 h 9.19594 z m -49.11009,76.574131 c -0.72249,2.112063 -0.63429,3.263185 -0.6145,3.197225 l -0.13577,1.198377 0.3584,0.404098 0.71678,1.564772 0.71633,1.565275 -0.0123,1.909445 -0.0123,1.908942 -0.70546,1.545643 -0.70548,1.545643 -1.07968,1.103789 -1.08014,1.104344 -1.50053,0.673338 -1.50054,0.673339 -1.463858,0.172085 -1.463881,0.172085 -1.529936,-0.44495 -1.529935,-0.444394 -0.960684,-0.616003 -0.960684,-0.616479 -0.845745,-0.888339 -0.845281,-0.888815 -0.706363,-1.545643 -0.706386,-1.545643 -0.0037,-1.89394 -0.0053,-1.89394 0.562927,-1.455209 0.562926,-1.455208 v -0.198437 -0.198438 h -7.569166 -7.56868 l 0.19457,0.463021 0.194129,0.463021 0.52266,1.322916 0.522636,1.322917 -0.112669,1.993159 -0.112228,1.993662 -0.642557,1.311037 -0.642116,1.311037 -1.138966,1.148238 -1.138526,1.148266 -1.414996,0.648017 -1.41546,0.648018 -1.679256,0.114194 -1.679721,0.11422 -0.996433,-0.250639 -0.995969,-0.251143 -1.001878,-0.511069 -1.001391,-0.511096 -1.152103,-1.145672 -1.152079,-1.146175 -0.68375,-1.455208 -0.683751,-1.455209 -0.0053,-2.116666 -0.0032,-2.116667 0.697327,-1.48672 0.696864,-1.486747 0.05294,-0.300222 -6.818876,-0.03619 -1.159331,-1.682565 -1.043952,-2.014352 32.139578,-0.0042 L 99.608079,43.9258 Z M 50.641066,9.3750537 l 0.5756,0.8459443 c -0.0183,0.0044 -0.04319,0.01021 -0.06109,0.01447 C 50.992163,9.9691333 50.822175,9.6857433 50.641066,9.3750564 Z M 100.24484,48.207314 h -1.224477 -1.224041 l -1.107295,0.564806 -1.107758,0.565362 -0.649808,0.986499 -0.650249,0.987028 -0.178305,1.128606 -0.178282,1.128607 0.435777,1.141545 0.436218,1.141518 0.72265,0.689875 0.723114,0.689901 0.793708,0.426826 0.793708,0.426852 1.517262,-0.09612 1.517258,-0.0961 0.99644,-0.792215 0.99599,-0.792718 0.6136,-1.175121 0.61359,-1.175623 -0.14299,-1.298125 -0.143,-1.298628 -0.66925,-1.011317 -0.66927,-1.01129 -1.10729,-0.565362 z m -32.694808,0.01032 -0.982857,0.488341 -0.982392,0.488368 -0.8109,1.016979 -0.810899,1.016476 v 1.780778 1.780752 l 0.706363,1.066615 0.705922,1.067117 1.145755,0.567399 1.146217,0.566897 h 1.000951 1.000511 l 0.973798,-0.406691 0.97426,-0.407221 0.500928,-0.452675 0.500927,-0.453205 0.500927,-0.98134 0.500927,-0.981842 v -1.183904 -1.183905 l -0.281451,-0.74467 -0.281475,-0.745172 -0.710904,-0.750861 -0.71044,-0.751364 -0.743919,-0.38862 -0.744383,-0.388594 -1.298713,-0.0098 z" />
    </g>
    <path
       style="fill:#ff0000;stroke-width:0.714286"
       d="m 495.32756,557.53534 c -1.57143,-0.1518 -6.55358,-0.62178 -11.07143,-1.04438 -13.64707,-1.27657 -28.77792,-3.34396 -62.5,-8.53962 -17.67857,-2.7238 -36.80357,-5.59201 -42.5,-6.37381 l -10.35715,-1.42146 99.61733,0.36691 c 54.78954,0.2018 99.78954,0.54004 100,0.75165 0.53135,0.53424 -4.26755,4.37571 -9.49864,7.60355 -4.99098,3.07968 -12.78778,5.72384 -21.7823,7.38712 -5.93579,1.09765 -34.67613,1.96865 -41.90781,1.27004 z"
       id="path4502"
       transform="scale(0.26458333)" />
    <path
       style="fill:#ff0000;stroke-width:0.714286"
       d="m 334.83253,667.77408 c -6.57472,-0.65626 -6.95586,-0.78585 -7.56378,-2.57164 -0.39968,-1.17408 -0.18231,-9.52821 0.57859,-22.23769 0.67033,-11.19643 1.26152,-20.16773 1.31378,-19.93623 0.0523,0.23151 3.63072,10.44502 7.95215,22.69669 4.32143,12.25166 7.85714,22.42832 7.85714,22.61479 0,0.40125 -1.01738,0.34446 -10.13788,-0.56592 z"
       id="path4506"
       transform="scale(0.26458333)" />
    <path
       style="fill:#ff0000;stroke-width:0.178571"
       d=""
       id="path4508"
       transform="scale(0.26458333)" />
    <path
       style="fill:#ff0000;stroke-width:0.178571"
       d=""
       id="path4510"
       transform="scale(0.26458333)" />
    <path
       style="fill:#ff0000;stroke-width:0.0472469"
       d="m 52.565462,89.560791 c -0.30789,-0.772649 -0.797488,-1.978871 -1.087998,-2.680488 -0.389803,-0.94143 -0.741878,-1.925582 -1.343737,-3.756139 -1.082164,-3.291417 -2.029661,-6.070973 -3.968056,-11.64059 L 44.556239,66.859168 V 49.407403 31.955637 h 40.0891 40.089101 v 8.711734 8.711737 l -1.71567,2.214139 -1.71567,2.21414 -3.11534,0.03027 c -1.71344,0.01664 -15.10664,0.05629 -29.762656,0.08808 -14.656029,0.0318 -26.655177,0.065 -26.664773,0.0738 -0.01796,0.01646 0.129818,4.380984 0.148675,4.391266 0.0058,0.0031 0.713758,0.07436 1.573276,0.158231 3.519704,0.343461 6.357866,0.739413 15.115439,2.10874 10.383343,1.623536 14.226543,2.122784 18.898813,2.455037 2.516536,0.178954 5.857726,0.231865 7.724876,0.12233 5.22922,-0.306768 8.92622,-1.4576 11.30385,-3.518746 0.22738,-0.197112 0.41342,-0.347541 0.41342,-0.334286 0,0.02127 -2.45344,3.182213 -12.36187,15.926684 l -2.61116,3.358544 -4.403926,0.03143 c -2.42216,0.01728 -13.250842,0.03143 -24.06373,0.03143 H 53.838198 l -0.346048,6.10667 c -0.190328,3.358674 -0.35074,6.111645 -0.356468,6.117712 -0.0057,0.0061 -0.262329,-0.621138 -0.57022,-1.393788 z"
       id="path4512" />
    <path
       style="fill:#ff0000;stroke-width:0.357143"
       d="m 336.66466,667.78487 c -2.79724,-1.67293 14.50237,17.52904 -2.05861,2.57644 -1.53671,-1.38746 3.53067,-11.17465 3.52884,-17.3679 -0.002,-5.22249 -9.59663,-21.05132 -9.04455,-26.43882 l 0.25289,-2.46785 4.18885,16.60049 c 2.2361,8.86171 9.06696,21.28164 9.06696,21.28164 l 2.26439,6.51785 -1.15296,-0.0377 c -0.63412,-0.0207 6.42384,7.39158 3.6266,5.71865 z"
       id="path4518"
       transform="scale(0.26458333)"
       sodipodi:nodetypes="sscscsccsss" />
    <g
       inkscape:label="Layer 1"
       id="layer1-6"
       transform="matrix(2.3108965,0,0,2.3248587,970.77512,467.68363)">
      <path
         id="path124"
         clip-path="url(#clipPath5416)"
         style="fill:#fe273e;stroke:none;stroke-width:0.999999;stroke-opacity:1"
         transform="matrix(0.26458333,0,0,0.26458333,-292.94882,146.68203)"
         d="m 1394.9473,-172.88477 c -0.05,0.0307 -0.098,0.0648 -0.1485,0.0957 -0.035,0.14975 -0.07,0.29946 -0.1054,0.44922 0.082,-0.18181 0.1811,-0.36301 0.2539,-0.54493 z m 20.1015,8.78125 c 0.228,11.08441 -2.7505,31.05139 -11.5605,39.27149 -4.399,4.10411 -12.0694,0.94081 -14.5254,7.74219 -2.21,6.11981 4.0519,6.16542 8.0859,4.98632 0.8295,6.01491 -1.6725,12.154084 -5.1836,17.693364 0.4195,0.561201 0.6222,1.394267 0.3672,2.46875 -0.2634,1.110293 -0.2531,2.408305 -0.8496,3.427734 -0.1001,0.171383 0.1845,-0.361869 0.211,-0.558594 0.025,-0.184735 4e-4,-0.734278 -0.059,-0.55664 -0.2482,0.778186 -0.3516,1.596865 -0.5274,2.394531 -0.1692,0.255304 -0.3385,0.510315 -0.5078,0.765625 -0.043,0.118195 -0.053,0.16373 -0.084,0.244141 -0.026,0.06981 0.043,-0.143222 0.064,-0.214844 0.01,-0.0098 0.013,-0.01951 0.02,-0.0293 0.039,-0.109713 0.1137,-0.298175 0.078,-0.226562 -0.3371,0.681243 -0.4544,0.950677 -0.539,1.154296 0.052,0.06462 -0.2017,0.485527 0,0 -0.029,-0.03631 -0.1649,0.0651 -0.5938,0.607422 -0.057,0.07279 0.1705,-0.07152 0.2559,-0.107422 -0.2331,0.440081 -0.4017,0.934777 -0.5196,1.425782 0.072,0.204747 0.1421,0.409992 0.1914,0.621093 0.076,0.323297 -0.052,0.762905 -0.051,1.103516 0.045,0.974403 -0.7044,1.919952 -1.1075,2.775391 0.029,-0.09281 0.054,-0.170241 0.02,-0.107422 -0.096,0.179443 -0.1774,0.36677 -0.2598,0.552734 5e-4,0.08824 -0.027,0.239538 -0.023,0.31836 0.01,0.129847 0.069,0.264703 0.029,0.388671 -0.204,0.638797 -0.4998,1.244987 -0.75,1.867188 -0.2413,0.242846 -0.5164,0.455295 -0.7227,0.728515 -0.058,0.07563 -0.016,0.189183 -0.039,0.28125 -0.031,0.124536 -0.078,0.244555 -0.1211,0.365235 -0.2194,0.612544 -0.441,1.176046 -0.7207,1.763672 -0.079,0.139052 -0.1737,0.268916 -0.2364,0.416015 -0.088,0.206162 -0.1798,0.768557 -0.2754,0.94336 -0.4258,0.778482 -0.8602,1.339082 -1.4121,1.861328 -0.1271,0.453806 -0.3947,0.927097 -0.5781,1.582031 -0.2363,0.564514 -0.3741,0.840764 -0.4629,0.984375 -0.1314,0.612079 -0.3635,1.43168 -0.4316,1.705078 -0.071,0.279636 -0.1314,0.561607 -0.2149,0.837891 -0.7952,2.634194 -0.097,0.213547 -0.5859,1.654297 0.01,0.02691 0.01,0.02315 0.014,0.05078 0.01,0.02646 -0.063,0.08862 -0.055,0.0625 0.026,-0.07795 0.02,-0.05091 0.041,-0.113281 -0.2924,-1.063002 -0.4344,-1.526342 -0.4981,-1.669922 -0.01,0.07336 4e-4,0.148232 -0.012,0.220703 0.069,0.464203 0.2559,1.419188 0.3965,2.228516 -0.067,0.200326 -0.1105,0.410772 -0.2012,0.601562 -0.1445,0.303719 -0.3058,0.600455 -0.5,0.875 -0.2689,0.380035 -0.8506,0.790761 -1.0351,1.25 -0.041,0.102236 0,0.219867 0,0.330078 -0.1093,0.743175 -0.2721,1.480034 -0.6992,2.076172 0.053,-0.01239 0.1053,-0.03133 0.1582,-0.04297 -6.887,16.322004 6.43,39.432155 26,35.619141 15.672,-3.052989 28.545,-17.612123 40,-27.619141 3.591,12.744 17.202,31.53974 33,27.386719 11.982,-3.148989 20.044,-13.749742 28,-22.386719 3.012,13.01401 18.804,27.442416 33,21.314454 10.802,-4.664013 17.412,-14.82445 26,-22.314454 1.62,6.785008 7.5531,30.245827 19.6601,22.966797 6.091,-3.661984 9.9687,-18.713795 13.4317,-24.966797 10.756,-19.419011 24.4852,-46.913942 42.9082,-59.999999 -4.956,21.862044 -22.5322,42.236988 -19.8262,65.999999 1.8289,16.05498 24.4912,23.575322 36.8262,15.611328 8.033,-5.187011 13.326,-13.181318 21,-18.611328 1.728,4.985008 4.046,8.733061 8.041,12.246094 2.81,2.47098 5.738,4.775513 8.959,6.6875 18.3171,10.874986 29.613,-6.980598 42,-17.933594 -7.297,24.855005 -25.549,54.89315 -46,70.785157 -5.923,4.603993 -12.1526,7.796917 -18.9805,10.753906 -1.7791,0.770003 -5.2106,2.448947 -3.2676,4.876953 2.261,2.825991 9.1011,2.335167 12.2481,1.994141 11.676,-1.265991 22.04,-5.158766 32,-11.466797 25.7611,-16.315994 38.1343,-44.39335 50.7773,-70.94336 4.696,-9.860976 12.2948,-21.896995 13.0098,-33 0.565,-8.766009 -12.1927,-28.410481 -22.5117,-20.396484 -4.593,3.567005 -7.3392,12.391483 -10.2852,17.396484 -6.262,10.640013 -13.6161,20.581002 -21.5801,30 -2.117,2.502993 -11.4838,14.09161 -15.3828,9.431641 -3.673,-4.389997 1.4212,-14.161644 3.2012,-18.431641 6.965,-16.699981 18.9225,-36.603117 34.7715,-46.162109 5.811,-3.50498 19.0075,2.163754 20.5664,-2.94921 6.953,-22.81467 -26.1664,-30.16313 -40.5664,-22.15821 -25.837,14.3624 -36.5538,42.065548 -52.3438,65.269529 -6.463,9.497991 -13.1832,21.567005 -23.6562,27 -6.16,-25.945991 25.1286,-50.757961 24.9179,-75.999999 -0.081,-9.68938 -13.4468,-24.25465 -23.9179,-21.47265 -6.663,1.77029 -12.3431,8.79655 -16.9981,13.47265 -6.235,6.26211 -11.2939,13.30801 -17.0019,19.999999 -0.1512,-12.916489 0.687,-21.860439 -12,-30.031249 -3.118,-2.00787 -10.0419,-5.76713 -13.3809,-2.36132 -2.4311,2.48001 -0.5624,7.27794 -1.1504,10.39257 -1.283,6.79287 -4.8275,13.64601 -7.4805,19.999999 -4.461,10.688996 -11.7347,20.281021 -17.9335,30 -7.953,12.469002 -16.2657,27.933997 -29.0547,36 -3.188,-13.88 9.3496,-26.38599 9.3496,-40 0,-8.493996 -13.087,-27.285492 -22.959,-19.396484 -4.445,3.552983 -6.6768,11.563489 -9.5938,16.396484 -6.584,10.909985 -13.7069,21.369991 -22.0859,31 -2.436,2.799005 -10.6194,13.458964 -15.1074,9.417969 -4.287,-3.859994 1.1766,-14.288948 2.8496,-18.417969 6.8139,-16.817978 18.7569,-36.117417 34.5469,-45.732422 2.906,-1.769978 6.485,-3.701487 10,-2.937497 2.987,0.64902 6.4503,4.396812 9.4863,2.00781 3.659,-2.87999 1.9982,-8.9001 0.3242,-12.33789 -4.033,-8.2837 -13.1825,-16.85881 -22.8105,-17.5039 -10.22,-0.6847 -20.699,7.29434 -28,13.50781 -19.827,16.875095 -30.1331,41.268127 -48.0391,59.996089 -6.312,6.601021 -12.7619,13.39706 -19.9609,19.039063 -1.874,1.468989 -5.8049,5.01375 -8.3809,3.09375 -2.383,-1.776983 -0.4985,-5.943824 0.1094,-8.132813 2.071,-7.453001 4.7246,-14.741984 7.3906,-22 4.665,-12.70298 9.3062,-25.60295 14.7422,-37.999999 1.742,-3.97099 3.3155,-10.68074 7.2715,-12.9746 6.444,-3.73629 17.6982,-2.0254 24.8672,-2.0254 -1.578,-10.1145 -13.206,-8 -21,-8 0.548,-5.46587 3.8727,-10.49141 3.8027,-16 -0.191,-15.13181 -14.4288,-23.99417 -27.793,-24 z m -27.334,75.476567 c -0.046,0.058 -0.091,0.118021 -0.1367,0.175781 0.031,0.09845 0.077,0.183574 0.1719,0.226563 0.1652,0.0749 0.071,-0.14605 -0.035,-0.402344 z m 1.209,4.242187 c 0.057,0.199664 0.1292,0.39597 0.1992,0.591797 0,-0.145869 -0.013,-0.217392 -0.1035,-0.443359 -0.032,-0.04898 -0.1105,-0.20445 -0.096,-0.148438 z m 0.2149,0.917969 c 0,0.0025 0,0.0035 0,0.0059 2e-4,-0.002 0,-0.0039 0,-0.0059 z m 0,0.0059 c 0,0.01691 -0.01,0.03388 -0.014,0.05078 -0.011,0.04365 0.029,0.175269 0.025,0.130859 -0.01,-0.115584 -0.012,-0.109728 -0.012,-0.181641 z m -0.9317,4.365235 c -0.037,0.116219 -0.084,0.265296 -0.1015,0.345703 -0.023,0.116107 0.048,-0.234307 0.098,-0.341797 0,-0.0013 0,-0.0025 0,-0.0039 z m -0.3398,0.650391 c -0.034,0.07843 -0.068,0.155777 -0.1016,0.234374 0.017,-0.01656 0.04,-0.02754 0.057,-0.04492 0.045,-0.04713 0.047,-0.116969 0.045,-0.189453 z m -10.6953,1.787109 c -1.6467,1.731657 -3.322,3.451822 -5.0332,5.150391 0.046,3.061714 0.061,6.13077 0.045,9.195312 -0.01,0.810815 0,1.621225 0,2.431641 0.3307,-0.0081 0.7129,0.05043 1.1894,0.226562 0,-1.398844 1.1646,-2.290146 2.584,-2.396484 0.105,-0.172863 0.2151,-0.35307 0.295,-0.472657 0.026,-0.184093 0.016,-0.225414 0.1699,-0.384765 -0.02,-0.108761 -0.077,-0.218142 -0.055,-0.326172 0.1194,-0.576881 0.2598,-1.1498 0.3887,-1.724609 0.048,-0.08289 0.047,-0.08214 0.084,-0.146485 -0.047,-0.469412 0,-0.938707 0,-1.410156 -0.015,-0.63563 0,-1.270533 0,-1.90625 0,-0.814004 9e-4,-1.629306 0,-2.443359 -0.01,-0.70752 0,-1.413555 0,-2.121094 v -1.292969 c -0.065,-0.816707 0.1043,-1.452618 0.3028,-2.273437 0.01,-0.03642 0.026,-0.06953 0.037,-0.105469 z m -0.1778,11.996094 c 0.01,0.0734 0.013,0.148176 0.033,0.21875 0.055,0.189823 0.3467,0.706731 0.2832,0.519531 -0.086,-0.253962 -0.201,-0.495729 -0.3164,-0.738281 z m -0.789,2.330078 c -4e-4,0.0013 0,0.0045 0,0.0059 0,-0.0019 0,-0.004 0,-0.0059 z m 0,0.0059 c -0.062,0.08439 -0.1247,0.169938 -0.1621,0.265625 0.021,-0.0011 0.043,-0.007 0.062,-0.0078 0.01,-2.82e-4 0.012,0.002 0.02,0.002 0.023,-0.07647 0.064,-0.198357 0.08,-0.259766 z m -0.1328,0.4375 c -0.029,0.0097 -0.053,0.0229 -0.078,0.03516 -0.044,0.205792 -0.078,0.43933 -0.033,0.31836 0.066,-0.177624 0.071,-0.227204 0.1113,-0.353516 z m -0.3848,0.195313 c -0.09,0.197801 -0.077,0.199452 -0.016,0.109375 -0.023,0.02923 -0.022,0.01674 0.016,-0.109375 z m -2.3906,3.009765 c -0.06,0.02066 -0.1026,0.109548 -0.1367,0.220703 0.042,-0.06736 0.108,-0.168346 0.1367,-0.220703 z m -59.5566,25.560547 c -0.2369,0.08739 -0.4737,0.171795 -0.7129,0.257813 0.163,0.16291 0.308,0.301406 0.4883,0.486328 0.07,-0.249583 0.1496,-0.496036 0.2246,-0.744141 z" />
      <path
         id="path1081"
         style="fill:#ffdb00;fill-opacity:1;fill-rule:evenodd;stroke:none;stroke-width:0.474628;stroke-opacity:1"
         inkscape:transform-center-x="-0.012316905"
         inkscape:transform-center-y="-0.35501821"
         transform="matrix(0.26458333,0,0,0.26458333,-292.94882,146.68203)"
         d="m 1287.6621,15.251953 c -0.3818,0.440885 -0.7193,0.907559 -0.9746,1.423828 -0.3788,0.76612 0.2492,0.462352 1.1777,-0.199219 -0.039,-0.241491 -0.077,-0.48316 -0.1152,-0.724609 z m 11.5625,4.386719 c -0.3755,0.09936 -0.7501,0.204081 -1.1269,0.296875 l 1.2832,0.730469 z" />
      <path
         id="path1081-5"
         style="fill:#ffce00;fill-opacity:1;fill-rule:evenodd;stroke:none;stroke-width:0.601448;stroke-opacity:1"
         inkscape:transform-center-x="-0.015850826"
         inkscape:transform-center-y="-0.44296659"
         transform="matrix(0.26458333,0,0,0.26458333,-292.94882,146.68203)"
         d="m 1223.1289,-53 -0.3437,0.693359 c 0.094,0.156871 0.1282,0.236551 0.2421,0.419922 0,-0.26984 0.04,-0.665653 0.1016,-1.113281 z m -11.1562,4.935547 -2.336,0.320312 1.0684,1.089844 c 0.2634,-0.255559 0.5662,-0.491891 0.9414,-0.75 0.104,-0.260214 0.2175,-0.477607 0.3262,-0.660156 z m 0.5253,0.08594 c -0.4296,-0.02276 -0.6186,0.166554 -0.6777,0.457032 0.2202,-0.148166 0.4067,-0.280619 0.6777,-0.457032 z" />
      <path
         id="path1081-3-6-3"
         style="fill:#ff9400;fill-opacity:1;fill-rule:evenodd;stroke:none;stroke-width:0.870489;stroke-opacity:1"
         inkscape:transform-center-x="-0.021831258"
         inkscape:transform-center-y="-0.67375564"
         transform="matrix(0.26458333,0,0,0.26458333,-292.94882,146.68203)"
         d="m 1376.6797,-242.22461 -0.4063,0.9043 c 1.1773,0.44189 2.3376,1.10419 3.4688,1.99804 0.1297,-0.14954 0.2676,-0.29906 0.418,-0.44921 -1.3577,-1.59547 -2.5207,-2.26055 -3.4805,-2.45313 z m 3.4805,2.45313 c 0.056,0.0659 0.1112,0.13206 0.1679,0.20117 0.093,-0.22675 0.1943,-0.44475 0.3067,-0.65039 -0.1682,0.14989 -0.3238,0.29856 -0.4746,0.44922 z m 0.1679,0.20117 c -0.074,0.18008 -0.1357,0.37249 -0.1972,0.56445 0.3397,0.28742 0.6783,0.58593 1.0117,0.91992 0.3308,0.33151 0.6521,0.68746 0.9512,1.0586 -0.6199,-1.02077 -1.2089,-1.86495 -1.7657,-2.54297 z m 2.8145,4.38867 c 0.1715,0.53741 0.3,1.08483 0.4043,1.63867 0.2042,0.13516 0.4226,0.28498 0.623,0.41602 -0.3503,-0.7403 -0.6926,-1.42322 -1.0273,-2.05469 z m -0.068,11.17773 c -0.1543,0.8328 -0.3396,1.86333 -0.5176,2.84766 0.1,-0.097 0.1551,-0.16643 0.2598,-0.26367 0.3494,-0.49118 0.7278,-1.04675 1.0488,-1.60156 -0.3236,-0.26117 -0.576,-0.60118 -0.791,-0.98243 z m -0.2578,2.58399 c -0.1028,0.14458 -0.1887,0.26406 -0.2852,0.39844 -0.033,0.18014 -0.06,0.33767 -0.094,0.51953 0.3773,-0.46269 0.7587,-0.92177 1.1152,-1.40039 0.3492,-0.46864 -0.1911,-0.024 -0.7363,0.48242 z"
         clip-path="url(#clipPath5392)" />
    </g>
    <text
       xml:space="preserve"
       id="text4648"
       style="font-style:normal;font-weight:normal;font-size:10.5833px;line-height:1.25;font-family:sans-serif;white-space:pre;shape-inside:url(#rect4650);fill:#000000;fill-opacity:1;stroke:none;" />
    <ellipse
       style="fill:#ff0000;fill-rule:evenodd;stroke-width:0.291696"
       id="path5455"
       cx="244.16696"
       cy="-62.743515"
       rx="20.183315"
       ry="20.537947" />
    <ellipse
       style="fill:#ff0000;fill-rule:evenodd;stroke-width:0.264583"
       id="path5457"
       cx="206.03377"
       cy="-452.55402"
       rx="78.596321"
       ry="68.701263" />
    <path
       style="fill:#ff0000;fill-rule:evenodd;stroke-width:5.71429"
       d="m 611.77808,-320.37648 -153.52765,0.83929 -37.91242,-258.78841 C 382.04879,-839.68597 313.50167,-894.62552 292.35931,-942.87908 l -38.44067,-87.73372 -83.96211,2.0478 -83.962108,2.0479 -2.327786,-15.8603 -2.327787,-15.8602 111.303451,1.5461 111.30345,1.5462 54.86698,95.65861 54.86699,95.65865 408.24217,-3.7508 408.24221,-3.7508 -14.5,25.23501 c -7.9749,13.87925 -25.4666,46.05027 -38.8703,71.49115 l -24.3703,46.25614 -115.0862,3.72885 c -63.29735,2.05087 -196.37009,3.73561 -295.71718,3.74386 -99.34703,0.008 -192.4913,1.64064 -206.98721,3.62753 l -65.51847,-2.79065 14.28842,50.07619 12.2696,52.97488 342.2952,-8.07482 c 154.74616,-3.65049 281.42984,-1.03825 281.42854,-0.45874 0,0.57953 -16.7059,28.86524 -37.1215,62.85714 l -37.1194,61.80348 -216.87741,2.85714 -216.8774,2.85714 c -142.80189,4.67212 -127.57287,-30.26264 -112.93105,46.13001 -0.47215,73.17945 -6.85187,74.11146 120.1101,79.41719 68.10459,2.84608 442.29116,8.8827 398.66016,-38.56236 l 4.4471,18.42031 -16.28,35.86897 -16.27988,35.86897 -170.58074,0.48343 c -93.81943,0.26571 -186.86506,-1.01995 -206.7681,-2.85715 z"
       id="path5459"
       transform="scale(0.26458333)"
       sodipodi:nodetypes="ccsscccccccccccsscscscccscsccccsccccccc" />
    <ellipse
       style="fill:#ff0000;fill-rule:evenodd;stroke-width:0.291695"
       id="path5455-2"
       cx="158.07059"
       cy="-64.011703"
       rx="20.183315"
       ry="20.537947"
       inkscape:transform-center-x="-74.808633"
       inkscape:transform-center-y="9.527219" />
    <path
       style="fill:#ff0000;fill-rule:evenodd;stroke-width:2.13888"
       d="m 336.43398,975.14953 c -4.54435,-4.49342 -5.58327,-10.55906 -2.38608,-13.93093 1.14213,-1.20451 -4.42191,-19.62912 -13.77707,-45.62107 -15.38447,-42.74351 -15.91135,-43.79917 -26.802,-53.70315 -10.84882,-9.86595 -11.43297,-10.10258 -24.94026,-10.10258 -7.78684,0 -13.83123,-0.92946 -13.83123,-2.12685 0,-1.2054 6.21802,-2.12686 14.35213,-2.12686 14.13992,0 14.53501,0.15726 26.71724,10.63429 l 12.3651,10.63428 h 71.3309 c 41.88033,0 71.03487,0.79814 70.61392,1.93313 -0.39434,1.06323 -5.31369,7.76283 -10.93184,14.88801 l -10.21484,12.95487 h -43.02152 c -42.515,0 -43.02155,0.0536 -43.02155,4.54782 0,4.50774 0.32102,4.53866 36.42189,3.50814 20.03199,-0.57183 37.57882,-0.33264 38.99291,0.53154 3.06902,1.87549 1.92238,3.99015 -9.47107,17.46649 l -8.54109,10.10257 h -34.30884 c -4.64518,0 -24.18261,-1.4171 -24.15946,3.48658 l 0.0287,6.07909 c 2.99726,3.98605 -0.45288,5.57312 6.37175,5.6343 l 23.64142,-0.55323 c 11.45093,-0.26796 29.16626,-0.11488 30.91342,2.29498 4.71363,6.50156 5.10975,7.66863 5.14058,15.45171 0.0165,4.15353 -3.5606,7.91173 -7.4919,10.07664 -5.31982,2.92955 -6.51047,2.92504 -11.83028,-0.0447 -4.53336,-2.5307 -5.91031,-4.8907 -5.89439,-10.10257 l 0.0208,-6.80048 h -12.5338 c -11.7254,0 -12.44199,0.286 -11.11035,4.43465 1.82478,5.6848 -6.35812,14.70704 -13.33881,14.70704 -2.75136,0 -6.93829,-1.91415 -9.30439,-4.25368 z m 14.70721,-1.86826 c 1.58231,-0.99168 2.55023,-4.08758 2.15097,-6.87971 -0.57408,-4.01473 -2.02667,-5.07663 -6.94439,-5.07663 -7.74155,0 -11.98353,5.60564 -7.91244,10.45601 3.10165,3.69542 8.23622,4.3017 12.70586,1.50033 z m 49.4722,0 c 1.58227,-0.99168 2.55024,-4.08758 2.15097,-6.87971 -0.57412,-4.01473 -2.02668,-5.07663 -6.94441,-5.07663 -7.74157,0 -11.98355,5.60564 -7.91243,10.45601 3.10165,3.69542 8.23624,4.3017 12.70587,1.50033 z"
       id="path5504"
       sodipodi:nodetypes="sssssssscssscssssscssccsssssscsssssssssssssss" />
    <g
       inkscape:label="Layer 1"
       id="layer1-7"
       transform="matrix(8.7620176,0,0,9.2018022,141.41649,-1157.9909)">
      <path
         sodipodi:type="star"
         style="fill:#ffdb00;fill-opacity:1;fill-rule:evenodd;stroke-width:0.264583"
         id="path1081-2"
         sodipodi:sides="5"
         sodipodi:cx="60.688801"
         sodipodi:cy="148.66925"
         sodipodi:r1="7.8929429"
         sodipodi:r2="3.9464717"
         sodipodi:arg1="0.95340502"
         sodipodi:arg2="1.5817236"
         inkscape:flatsided="false"
         inkscape:rounded="0"
         inkscape:randomized="0"
         d="m 65.258105,155.10509 -4.612428,-2.4896 -4.665729,2.38821 0.942433,-5.15601 -3.713115,-3.69937 5.194883,-0.69699 2.370898,-4.67455 2.268181,4.72525 5.178411,0.81034 -3.79307,3.61735 z"
         inkscape:transform-center-x="-0.012316905"
         inkscape:transform-center-y="-0.35501821"
         transform="matrix(0.46214744,0,0,0.48744708,20.686606,76.544329)" />
      <path
         sodipodi:type="star"
         style="fill:#ffba00;fill-opacity:1;fill-rule:evenodd;stroke-width:0.264583"
         id="path1081-3"
         sodipodi:sides="5"
         sodipodi:cx="60.688801"
         sodipodi:cy="148.66925"
         sodipodi:r1="7.8929429"
         sodipodi:r2="3.9464717"
         sodipodi:arg1="0.95340502"
         sodipodi:arg2="1.5817236"
         inkscape:flatsided="false"
         inkscape:rounded="0"
         inkscape:randomized="0"
         d="m 65.258105,155.10509 -4.612428,-2.4896 -4.665729,2.38821 0.942433,-5.15601 -3.713115,-3.69937 5.194883,-0.69699 2.370898,-4.67455 2.268181,4.72525 5.178411,0.81034 -3.79307,3.61735 z"
         inkscape:transform-center-x="-0.019680021"
         inkscape:transform-center-y="-0.46758753"
         transform="matrix(0.73844385,0,0,0.64200785,-6.8285522,18.346361)" />
      <path
         sodipodi:type="star"
         style="fill:#ffa100;fill-opacity:1;fill-rule:evenodd;stroke-width:0.264583"
         id="path1081-3-6"
         sodipodi:sides="5"
         sodipodi:cx="60.688801"
         sodipodi:cy="148.66925"
         sodipodi:r1="7.8929429"
         sodipodi:r2="3.9464717"
         sodipodi:arg1="0.95340502"
         sodipodi:arg2="1.5817236"
         inkscape:flatsided="false"
         inkscape:rounded="0"
         inkscape:randomized="0"
         d="m 65.258105,155.10509 -4.612428,-2.4896 -4.665729,2.38821 0.942433,-5.15601 -3.713115,-3.69937 5.194883,-0.69699 2.370898,-4.67455 2.268181,4.72525 5.178411,0.81034 -3.79307,3.61735 z"
         inkscape:transform-center-x="-0.019307204"
         inkscape:transform-center-y="-0.55725341"
         transform="matrix(0.72444125,0,0,0.7651218,5.1223041,-18.764845)" />
      <path
         sodipodi:type="star"
         style="fill:#ffce00;fill-opacity:1;fill-rule:evenodd;stroke-width:0.264583"
         id="path1081-5-2"
         sodipodi:sides="5"
         sodipodi:cx="60.688801"
         sodipodi:cy="148.66925"
         sodipodi:r1="7.8929429"
         sodipodi:r2="3.9464717"
         sodipodi:arg1="0.95340502"
         sodipodi:arg2="1.5817236"
         inkscape:flatsided="false"
         inkscape:rounded="0"
         inkscape:randomized="0"
         d="m 65.258105,155.10509 -4.612428,-2.4896 -4.665729,2.38821 0.942433,-5.15601 -3.713115,-3.69937 5.194883,-0.69699 2.370898,-4.67455 2.268181,4.72525 5.178411,0.81034 -3.79307,3.61735 z"
         inkscape:transform-center-x="-0.015850826"
         inkscape:transform-center-y="-0.44296659"
         transform="matrix(0.59476664,0,0,0.60820585,-4.5461491,45.161549)" />
      <path
         sodipodi:type="star"
         style="fill:#ff9400;fill-opacity:1;fill-rule:evenodd;stroke-width:0.264583"
         id="path1081-3-6-3-0"
         sodipodi:sides="5"
         sodipodi:cx="60.688801"
         sodipodi:cy="148.66925"
         sodipodi:r1="7.8929429"
         sodipodi:r2="3.9464717"
         sodipodi:arg1="0.95340502"
         sodipodi:arg2="1.5817236"
         inkscape:flatsided="false"
         inkscape:rounded="0"
         inkscape:randomized="0"
         d="m 65.258105,155.10509 -4.612428,-2.4896 -4.665729,2.38821 0.942433,-5.15601 -3.713115,-3.69937 5.194883,-0.69699 2.370898,-4.67455 2.268181,4.72525 5.178411,0.81034 -3.79307,3.61735 z"
         inkscape:transform-center-x="-0.021831258"
         inkscape:transform-center-y="-0.67375564"
         transform="matrix(0.81911344,0,0,0.92508977,22.136102,-49.01859)" />
    </g>
    <g
       inkscape:label="Layer 1"
       id="layer1-6-1"
       transform="matrix(9.238899,0,0,7.9516142,-655.92745,-130.63902)">
      <path
         id="path124-4"
         clip-path="url(#clipPath5416-9)"
         style="fill:#fe273e;stroke:none;stroke-width:8.57111;stroke-opacity:1"
         transform="matrix(0.02863797,0,0,0.03327417,70.996279,16.429245)"
         d="m 179.29688,2539.8184 c -0.46195,0.2441 -0.90453,0.516 -1.3711,0.7617 -0.32336,1.1907 -0.64755,2.3814 -0.97461,3.5722 0.75759,-1.4456 1.67311,-2.8874 2.34571,-4.3339 z m 185.71679,69.8261 c 2.10647,88.139 -25.41194,246.9085 -106.80664,312.2715 -40.64191,32.6343 -111.50848,7.4806 -134.19922,61.5625 -20.41796,48.6624 37.43536,49.0262 74.70508,39.6504 7.66367,47.8282 -15.45193,96.6432 -47.89062,140.6895 3.87571,4.4624 5.74849,11.0869 3.39257,19.6308 -2.43352,8.8286 -2.3386,19.1498 -7.84961,27.2559 -0.92481,1.3627 1.70439,-2.8771 1.94922,-4.4414 0.23098,-1.469 0.004,-5.8383 -0.54492,-4.4258 -2.29309,6.1878 -3.24885,12.6963 -4.87305,19.0391 -1.56322,2.03 -3.12726,4.0577 -4.6914,6.0878 -0.39727,0.9399 -0.48899,1.3021 -0.77539,1.9414 -0.24021,0.5552 0.39582,-1.1375 0.58984,-1.707 0.0924,-0.078 0.12088,-0.1565 0.18555,-0.2344 0.36032,-0.8724 1.05053,-2.3702 0.7207,-1.8007 -3.11443,5.4169 -4.19886,7.5586 -4.98047,9.1777 0.48043,0.5138 -1.86348,3.8607 0,0 -0.26793,-0.2887 -1.52181,0.5177 -5.48437,4.8301 -0.52662,0.5788 1.57428,-0.5681 2.36328,-0.8535 -2.15359,3.4993 -3.71152,7.4336 -4.80078,11.3378 0.6652,1.6281 1.31405,3.259 1.76953,4.9376 0.70216,2.5707 -0.4819,6.0669 -0.47266,8.7753 0.41575,7.7481 -6.50822,15.2663 -10.23242,22.0684 0.26793,-0.738 0.49967,-1.353 0.18555,-0.8535 -0.88694,1.4268 -1.63911,2.9158 -2.40039,4.3945 0.005,0.7017 -0.24985,1.9045 -0.21289,2.5313 0.0924,1.0325 0.63713,2.106 0.26757,3.0918 -1.88473,5.0794 -4.61616,9.8982 -6.92773,14.8457 -2.22935,1.931 -4.77175,3.6204 -6.67773,5.7929 -0.53586,0.6014 -0.14688,1.5043 -0.35938,2.2364 -0.28641,0.9902 -0.72094,1.9447 -1.11914,2.9043 -2.027014,4.8707 -4.074083,9.3528 -6.658203,14.0253 -0.729873,1.1057 -1.606268,2.137 -2.185547,3.3067 -0.813023,1.6393 -1.65973,6.112 -2.542969,7.5019 -3.933923,6.1902 -7.947926,10.6481 -13.046875,14.8008 -1.174264,3.6085 -3.647383,7.3723 -5.341797,12.5801 -2.183151,4.4888 -3.454976,6.6842 -4.27539,7.8262 -1.213992,4.867 -3.359112,11.3846 -3.988281,13.5586 -0.655962,2.2235 -1.212927,4.4652 -1.984376,6.6621 -7.346772,20.9461 -0.897164,1.698 -5.414062,13.1543 0.09239,0.214 0.09195,0.1846 0.128906,0.4043 0.09239,0.2104 -0.581723,0.7057 -0.507812,0.498 0.240211,-0.6198 0.184889,-0.4064 0.378906,-0.9023 -2.701454,-8.4526 -4.013045,-12.1357 -4.601562,-13.2774 -0.09239,0.5834 0.0032,1.1777 -0.111329,1.7539 0.637484,3.6912 2.365074,11.2853 3.664063,17.7207 -0.619006,1.593 -1.021407,3.2662 -1.859375,4.7832 -1.335021,2.4151 -2.824947,4.774 -4.619141,6.9571 -2.48434,3.0219 -7.857923,6.2897 -9.5625,9.9414 -0.378795,0.8129 0,1.7467 0,2.623 -1.009811,5.9095 -2.515004,11.7695 -6.460937,16.5098 0.489661,-0.099 0.972199,-0.2492 1.460937,-0.3418 -63.628296,129.7863 59.40764,313.5501 240.212894,283.2305 144.79202,-24.2762 263.7231,-140.0453 369.55468,-219.6172 33.17689,101.3353 158.92865,250.7908 304.88477,217.7676 110.70045,-25.0396 185.18475,-109.3319 258.68945,-178.0098 27.8276,103.4824 173.7274,218.2116 304.8828,169.4844 99.7986,-37.0865 160.8673,-117.878 240.211,-177.4356 14.967,53.9518 69.7833,240.5031 181.6386,182.6231 56.2742,-29.1187 92.0995,-148.8059 124.0938,-198.5274 99.3736,-154.4125 226.2156,-373.0404 396.4238,-477.0957 -45.788,173.8386 -208.1723,335.8524 -183.1719,524.8067 16.8971,127.663 226.2726,187.4613 340.2344,124.1347 74.2161,-41.2451 123.1163,-104.8129 194.0156,-147.9902 15.9648,39.6389 37.3816,69.4427 74.291,97.3769 25.9613,19.6483 53.013,37.9724 82.7715,53.1758 169.2299,86.4737 273.591,-55.5075 388.0332,-142.6015 -67.4162,197.6374 -236.0455,436.4903 -424.9902,562.8574 -54.722,36.6092 -112.2751,61.9969 -175.3574,85.5097 -16.437,6.1228 -48.1407,19.4728 -30.1895,38.7793 20.8892,22.4712 84.0834,18.5692 113.1582,15.8575 107.8734,-10.0667 203.6251,-41.0207 295.6446,-91.1797 238.0042,-129.7385 352.3195,-352.9998 469.1269,-564.1153 43.3859,-78.4106 113.5915,-174.1155 120.1973,-262.4023 5.22,-69.7039 -112.6482,-225.9098 -207.9844,-162.1855 -42.4343,28.3634 -67.8056,98.5322 -95.0234,138.33 -57.854,84.6053 -125.7984,163.6526 -199.377,238.5489 -19.5587,19.9028 -106.0967,112.0503 -142.1191,74.9961 -33.9345,-34.9076 13.1289,-112.6072 29.5742,-146.5606 64.3489,-132.7918 174.8227,-291.0531 321.25,-367.0625 53.6872,-27.8702 175.6092,17.2052 190.0117,-23.4512 64.2381,-181.4134 -241.7489,-239.8454 -374.7891,-176.1933 -238.7054,114.2042 -337.7174,334.4889 -483.5996,518.998 -59.711,75.5244 -121.7976,171.4923 -218.5566,214.6934 -56.9116,-206.3125 232.1615,-403.6073 230.2148,-604.3223 -0.7483,-77.0462 -124.2351,-192.8636 -220.9765,-170.7422 -61.5588,14.0767 -114.0359,69.9464 -157.043,107.1289 -57.6045,49.7939 -104.3425,105.8192 -157.0781,159.0313 -1.3969,-102.7069 6.3467,-173.8258 -110.8672,-238.7969 -28.8069,-15.9658 -92.7763,-45.8571 -123.625,-18.7754 -22.4607,19.7201 -5.1964,57.8704 -10.6289,82.6367 -11.8535,54.0143 -44.6005,108.5088 -69.1113,159.0332 -41.2148,84.9948 -108.4155,161.2673 -165.6856,238.5489 -73.477,99.1487 -150.2773,222.12 -268.4336,286.2578 -29.4536,-110.3684 86.3809,-209.8111 86.3809,-318.0645 0,-67.5409 -120.9108,-216.9647 -212.1172,-154.2343 -41.0669,28.2519 -61.6849,91.9488 -88.6348,130.3789 -60.8289,86.752 -126.638,169.9258 -204.0508,246.5 -22.5059,22.2566 -98.11,107.0211 -139.57418,74.8886 -39.60715,-30.6931 10.8695,-113.6207 26.32618,-146.4531 62.9529,-133.7301 173.2936,-287.1917 319.1758,-363.6465 26.8482,-14.0742 59.9139,-29.4324 92.3887,-23.3574 27.5965,5.1608 59.5932,34.9613 87.6425,15.9648 33.8052,-22.9005 18.462,-70.7694 2.9961,-98.1054 -37.2605,-65.8688 -121.792,-134.0561 -210.7441,-139.1856 -94.4216,-5.4444 -191.2363,58.0031 -258.68947,107.4102 -183.17965,134.1842 -278.3964,328.1469 -443.82813,477.0644 -58.31593,52.4888 -117.90713,106.5296 -184.41797,151.3926 -17.31369,11.6809 -53.63028,39.8667 -77.42968,24.5996 -22.0163,-14.1299 -4.60461,-47.2619 1.01172,-64.6679 19.13376,-59.2634 43.65034,-117.2226 68.28125,-174.9356 43.09946,-101.0092 85.97851,-203.5855 136.20117,-302.1621 16.09416,-31.5758 30.6306,-84.93 67.17969,-103.1699 59.53546,-29.7096 163.51242,-16.1035 229.74609,-16.1035 -14.57898,-80.4266 -122.0096,-63.6133 -194.01758,-63.6133 5.06292,-43.4625 35.77954,-83.4244 35.13281,-127.2266 -1.7646,-120.3204 -133.30073,-190.7893 -256.76953,-190.8379 z m -252.53711,600.1602 c -0.42499,0.4612 -0.84145,0.9391 -1.26367,1.3984 0.28641,0.7829 0.71307,1.459 1.58984,1.8008 1.52627,0.5956 0.65511,-1.1613 -0.32421,-3.1992 z m 11.1543,33.6387 c -0.008,0.01 -0.003,0.038 0.0137,0.094 h 0.002 c 0.52662,1.5877 1.19313,3.1479 1.83985,4.7051 0,-1.1599 -0.11896,-1.7286 -0.95508,-3.5254 -0.25869,-0.3408 -0.84728,-1.3299 -0.90039,-1.2734 z m 1.99219,7.4394 c 0,0.017 0.002,0.019 0.002,0.035 0.001,-0.012 0.008,-0.024 0.008,-0.035 z m 0.002,0.035 c -0.0136,0.1228 -0.0893,0.2464 -0.12305,0.3691 -0.10162,0.3471 0.26938,1.3942 0.23243,1.041 -0.0897,-0.8917 -0.10827,-0.8896 -0.10938,-1.4101 z m -8.63281,34.6758 h 0.0312 c -0.34184,0.9241 -0.77582,2.1086 -0.9375,2.748 -0.2125,0.9232 0.4443,-1.8621 0.90625,-2.7168 z m -3.10742,5.1718 c -0.31413,0.6237 -0.62903,1.2383 -0.93946,1.8633 0.15706,-0.1317 0.37028,-0.2192 0.52735,-0.3574 0.41575,-0.3748 0.43449,-0.9295 0.41601,-1.5059 z m -98.812504,14.211 c -15.21369517,13.7694 -30.69235,27.4467 -46.501954,40.9531 0.42499,24.3456 0.563839,48.7491 0.416016,73.1172 -0.09239,6.4473 0,12.8918 0,19.3359 3.055304,-0.064 6.585946,0.4003 10.988281,1.8008 0,-11.1231 10.7593542,-18.2091 23.8730472,-19.0547 0.9700844,-1.3745 1.9883745,-2.8088 2.7265626,-3.7598 0.2402113,-1.4638 0.1484459,-1.7915 1.5703124,-3.0586 -0.1847779,-0.8648 -0.7130214,-1.7347 -0.5097656,-2.5937 1.1031246,-4.5871 2.4009024,-9.1422 3.5917964,-13.7129 0.443468,-0.6591 0.433552,-0.6544 0.775391,-1.166 -0.434228,-3.7326 0,-7.4641 0,-11.2129 -0.138583,-5.0543 0,-10.1013 0,-15.1562 0,-6.4727 0.0083,-12.9567 0,-19.4297 -0.09239,-5.626 0,-11.2392 0,-16.8653 v -10.2812 c -0.600528,-6.4942 0.964907,-11.5513 2.798828,-18.0781 0.09239,-0.2896 0.240169,-0.5522 0.341797,-0.8379 z m -1.644532,95.3867 c 7.06e-4,0 0.0012,0 0.002,0 -2.02e-4,0 2.01e-4,0 0,0 z m 0.002,0 c 0.09191,0.5824 0.120312,1.1764 0.304687,1.7363 0.508139,1.5094 3.201904,5.6194 2.615234,4.1309 -0.794019,-2.0181 -1.854464,-3.9398 -2.919921,-5.8672 z m -7.2929692,18.5762 c -0.5716439,0.6696 -1.1493259,1.3481 -1.4941407,2.1074 0.1940169,-0.01 0.3967266,-0.056 0.5722657,-0.062 0.092389,0 0.1116356,0.018 0.1855468,0.018 0.2120748,-0.6069 0.5878885,-1.5733 0.7363282,-2.0625 z m -1.2246094,3.4746 c -0.2679281,0.077 -0.4897307,0.1818 -0.7207032,0.2793 -0.4065115,1.6363 -0.7204379,3.4931 -0.3046874,2.5312 0.6097673,-1.4124 0.6569692,-1.8061 1.0292968,-2.8105 z m -3.5546875,1.5527 c -0.83150092,1.5728 -0.71201036,1.5854 -0.1484375,0.8691 -0.2124947,0.2325 -0.2026407,0.1337 0.1484375,-0.8691 z m -22.0859379,23.9316 c -0.554334,0.1643 -0.948625,0.872 -1.263672,1.7559 0.388034,-0.5356 0.998516,-1.3395 1.263672,-1.7559 z m -550.23838,203.2522 c -2.18869,0.6949 -4.37599,1.3668 -6.58593,2.0508 1.50594,1.2954 2.84594,2.3967 4.51171,3.8672 0.64673,-1.9846 1.38131,-3.9452 2.07422,-5.918 z" />
      <path
         id="path1081-4"
         style="fill:#ffdb00;fill-opacity:1;fill-rule:evenodd;stroke:none;stroke-width:0.474628;stroke-opacity:1"
         inkscape:transform-center-x="-0.012316905"
         inkscape:transform-center-y="-0.35501821"
         transform="matrix(0.26458333,0,0,0.26458333,-292.94882,146.68203)"
         d="m 1287.6621,15.251953 c -0.3818,0.440885 -0.7193,0.907559 -0.9746,1.423828 -0.3788,0.76612 0.2492,0.462352 1.1777,-0.199219 -0.039,-0.241491 -0.077,-0.48316 -0.1152,-0.724609 z m 11.5625,4.386719 c -0.3755,0.09936 -0.7501,0.204081 -1.1269,0.296875 l 1.2832,0.730469 z" />
      <path
         id="path1081-5-8"
         style="fill:#ffce00;fill-opacity:1;fill-rule:evenodd;stroke:none;stroke-width:0.601448;stroke-opacity:1"
         inkscape:transform-center-x="-0.015850826"
         inkscape:transform-center-y="-0.44296659"
         transform="matrix(0.26458333,0,0,0.26458333,-292.94882,146.68203)"
         d="m 1223.1289,-53 -0.3437,0.693359 c 0.094,0.156871 0.1282,0.236551 0.2421,0.419922 0,-0.26984 0.04,-0.665653 0.1016,-1.113281 z m -11.1562,4.935547 -2.336,0.320312 1.0684,1.089844 c 0.2634,-0.255559 0.5662,-0.491891 0.9414,-0.75 0.104,-0.260214 0.2175,-0.477607 0.3262,-0.660156 z m 0.5253,0.08594 c -0.4296,-0.02276 -0.6186,0.166554 -0.6777,0.457032 0.2202,-0.148166 0.4067,-0.280619 0.6777,-0.457032 z" />
      <path
         id="path1081-3-6-3-4"
         style="fill:#ff9400;fill-opacity:1;fill-rule:evenodd;stroke:none;stroke-width:0.870489;stroke-opacity:1"
         inkscape:transform-center-x="-0.021831258"
         inkscape:transform-center-y="-0.67375564"
         transform="matrix(0.26458333,0,0,0.26458333,-292.94882,146.68203)"
         d="m 1376.6797,-242.22461 -0.4063,0.9043 c 1.1773,0.44189 2.3376,1.10419 3.4688,1.99804 0.1297,-0.14954 0.2676,-0.29906 0.418,-0.44921 -1.3577,-1.59547 -2.5207,-2.26055 -3.4805,-2.45313 z m 3.4805,2.45313 c 0.056,0.0659 0.1112,0.13206 0.1679,0.20117 0.093,-0.22675 0.1943,-0.44475 0.3067,-0.65039 -0.1682,0.14989 -0.3238,0.29856 -0.4746,0.44922 z m 0.1679,0.20117 c -0.074,0.18008 -0.1357,0.37249 -0.1972,0.56445 0.3397,0.28742 0.6783,0.58593 1.0117,0.91992 0.3308,0.33151 0.6521,0.68746 0.9512,1.0586 -0.6199,-1.02077 -1.2089,-1.86495 -1.7657,-2.54297 z m 2.8145,4.38867 c 0.1715,0.53741 0.3,1.08483 0.4043,1.63867 0.2042,0.13516 0.4226,0.28498 0.623,0.41602 -0.3503,-0.7403 -0.6926,-1.42322 -1.0273,-2.05469 z m -0.068,11.17773 c -0.1543,0.8328 -0.3396,1.86333 -0.5176,2.84766 0.1,-0.097 0.1551,-0.16643 0.2598,-0.26367 0.3494,-0.49118 0.7278,-1.04675 1.0488,-1.60156 -0.3236,-0.26117 -0.576,-0.60118 -0.791,-0.98243 z m -0.2578,2.58399 c -0.1028,0.14458 -0.1887,0.26406 -0.2852,0.39844 -0.033,0.18014 -0.06,0.33767 -0.094,0.51953 0.3773,-0.46269 0.7587,-0.92177 1.1152,-1.40039 0.3492,-0.46864 -0.1911,-0.024 -0.7363,0.48242 z"
         clip-path="url(#clipPath5392-7)" />
    </g>
    <ellipse
       style="fill:#ff0000;fill-rule:evenodd;stroke-width:0.264583"
       id="path5729"
       cx="-269.25824"
       cy="997.66553"
       rx="30.740694"
       ry="26.419899" />
    <ellipse
       style="fill:#ff0000;fill-rule:evenodd;stroke-width:0.264583"
       id="path5729-9"
       cx="-133.28917"
       cy="997.01581"
       rx="30.740694"
       ry="26.419899" />
    <rect
       style="fill:#ff0000;fill-rule:evenodd;stroke-width:0.120982"
       id="rect5849"
       width="125.08818"
       height="12.938723"
       x="58.871037"
       y="787.12457"
       ry="0.39460477"
       transform="matrix(0.85306763,0.52180036,-0.67289413,0.7397388,0,0)" />
    <path
       id="path5504-3"
       style="fill:#ff0000;fill-rule:evenodd;stroke-width:1.44966"
       d="m 726.51851,364.09428 v 0.002 0.002 c -4.86804,0 -8.58934,0.70741 -8.58934,1.63262 0,0.91909 3.61739,1.6322 8.27759,1.6322 8.08376,0 8.43324,0.18186 14.92595,7.75451 6.51775,7.60193 6.83326,8.41221 16.04026,41.22056 4.65161,16.57528 7.73462,29.13273 8.25346,33.44028 0.0136,0.002 0.0274,0.005 0.041,0.005 0.25022,0.10749 0.49107,0.26517 0.75092,0.3229 0.14511,0.0322 0.29205,-0.0656 0.43916,-0.0588 1.28491,0.0602 2.56727,0.19177 3.85193,0.2598 3.6775,0.19493 4.0055,0.1751 7.17537,0.21814 0.24773,0.0406 0.49525,0.0836 0.74286,0.12529 0.0369,-0.0252 0.09,-0.0342 0.16052,-0.004 0.0354,0.0135 0.0705,0.0336 0.10588,0.05 0.0775,0.0135 0.15509,0.027 0.23256,0.0403 -0.0286,-0.091 0.0293,-0.20372 0.17753,-0.20146 0.31175,0.005 0.62348,-0.002 0.93523,-0.002 0.20632,0 0.41256,0.002 0.61886,0 0.005,0.005 0.002,0.002 0.007,0.005 0,-1.6e-4 0.005,-0.002 0.005,-0.002 0.0308,-0.007 0.0585,-0.009 0.083,-0.005 0.0503,0.007 0.0843,0.0354 0.10429,0.071 0.0907,0.002 0.28554,0.007 0.33928,0.0433 0.0204,0.0135 0.0363,0.0309 0.0526,0.05 0.13989,-0.005 0.27917,-0.009 0.41196,-0.0113 0.0315,0 0.0764,-0.0284 0.10453,-0.0225 0.009,0.002 0.0159,0.009 0.0204,0.0203 0.007,0.0225 0.009,0.0336 0.0159,0.0516 0.21494,0.009 0.42986,0.009 0.64484,0.007 0.0336,0 0.0612,0.002 0.0859,0.002 0.024,-0.002 0.049,-0.005 0.0732,-0.007 0.0406,-0.0113 0.076,-0.0399 0.12312,-0.11155 0.0891,-0.0994 0.0267,-0.0476 0.21131,-0.0949 0.0159,-0.005 0.0292,-0.005 0.0422,-0.002 0.0338,0.002 0.0583,0.0239 0.0755,0.0532 0.002,-1.8e-4 0.002,-0.002 0.005,-0.002 0.0639,-0.009 0.10905,0.041 0.11472,0.11335 0.98276,-0.0581 2.24627,-0.0719 3.87082,-0.0719 h 6.77051 c 0.0283,-0.0309 0.0712,-0.0545 0.13082,-0.0611 0.22265,-0.0241 0.40543,-0.0469 0.62441,-0.0599 0.0385,-0.002 0.078,-0.0113 0.11563,-0.002 0.002,0 0.005,0.005 0.005,0.005 1.1508,-0.19155 2.59461,-0.0498 3.47711,0.0158 0.0279,-1.8e-4 0.0555,0 0.0834,0 h 0.20406 c -0.90939,-0.25719 -1.03529,-0.35309 -0.75553,-0.33872 0.29949,0.0158 1.03769,0.15437 1.70436,0.33951 0.52082,0.002 1.04164,0.002 1.56244,0.002 0.74655,-0.002 1.49323,-0.002 2.23973,0 0.45251,-0.005 0.90492,-0.002 1.35738,0 0.005,-0.007 0.009,-0.0135 0.0136,-0.0158 0.0113,-0.005 0.0252,0.005 0.0401,0.0158 h 0.30338 c 0.16529,0.002 0.33073,1.3e-4 0.49606,-0.002 0.0136,-0.0113 0.0283,-0.0225 0.0492,-0.0324 0.0424,-0.0203 0.11904,-0.018 0.16211,-0.0203 0.0204,0.002 0.0408,0.005 0.0612,0.007 0.0159,0.002 0.0317,-0.002 0.046,0.005 0.005,0.002 -0.009,0.009 -0.009,0.0135 0,0.009 -0.002,0.018 -0.002,0.0277 0.0499,0 0.0998,-1.2e-4 0.14964,0 0.0181,-0.009 0.036,-0.0113 0.0567,-0.002 0.002,0 0.002,0.002 0.005,0.002 0.0617,0 0.12334,-0.002 0.18501,0 0.0771,-0.0113 0.15463,-0.0203 0.23103,-0.0372 0.31545,-0.0689 0.25612,-0.0852 0.56565,-0.13768 0.1451,-0.0246 0.29139,-0.0397 0.43699,-0.0595 0.15962,-0.023 0.3198,-0.0421 0.47906,-0.0694 0.12833,-0.0225 0.25545,-0.0523 0.38319,-0.0786 0.25124,-0.0791 0.29427,-0.10163 0.5174,-0.12259 0.0959,-0.23233 0.22779,-0.40157 0.37764,-0.49698 -0.41845,-1.56439 -1.17738,-3.0327 -2.56199,-5.4821 -1.04565,-1.8497 -11.64768,-1.96679 -18.50081,-1.76112 l -14.14874,0.42404 c -4.08434,-0.0469 -2.01959,-1.26515 -3.81329,-4.32468 l -0.0181,-4.66515 c -0.0136,-3.76386 11.67861,-2.67619 14.45864,-2.67619 h 20.53299 l 5.1116,-7.7537 c 6.81864,-10.34394 7.50499,-11.96755 5.66828,-13.40712 -0.84631,-0.6633 -11.3476,-0.84743 -23.33622,-0.40856 -21.6054,0.79099 -21.7976,0.76832 -21.7976,-2.69165 0,-3.44959 0.30323,-3.49133 25.74728,-3.49133 h 25.7473 l 6.11331,-9.94359 c 3.36229,-5.46902 6.30632,-10.611 6.5423,-11.42705 0.25194,-0.8712 -17.19621,-1.48426 -42.2604,-1.48426 h -42.69032 l -7.4002,-8.16228 c -7.29064,-8.04169 -7.52721,-8.16221 -15.98922,-8.16223 z m 70.53906,86.73409 c 0.0526,0.0113 0.10542,0.018 0.15961,0 -0.0533,-1.6e-4 -0.10633,-7e-5 -0.15961,0 z m -17.4762,0.023 c 0.10656,0.018 0.21313,0.0367 0.31948,0.0557 0.0249,-0.0113 0.0533,-0.0203 0.0751,-0.036 0.009,-0.007 0.0181,-0.0135 0.0286,-0.0203 z m 1.06977,0.009 v 0 c -0.0181,0.005 -0.0385,0.0113 -0.0578,0.0158 0.0503,-0.005 0.0866,-0.007 0.10611,0.009 0.002,0 0.002,7e-5 0.005,-0.002 -0.0159,-0.007 -0.0345,-0.0135 -0.0533,-0.0225 z m -0.17662,0.0293 c -0.0159,0 -0.0333,-1.8e-4 -0.0499,0.002 0.007,2e-5 0.009,0 0.0159,0 0.0136,0 0.0204,-0.002 0.034,-0.002 z m 0.24959,0.009 v 0.0345 h 0.0286 c -0.005,-0.009 -0.007,-0.018 -0.009,-0.027 -0.007,-0.002 -0.0136,-0.005 -0.0181,-0.007 z m 18.27904,11.69082 v 0 c -0.0136,0.0135 -0.0277,0.0252 -0.0422,0.0374 -0.002,0.0755 -0.002,0.10524 -0.005,0.17375 0.0365,0 0.0691,-0.002 0.10543,-0.002 0.007,-0.0759 0.0113,-0.11335 0.0181,-0.19921 -0.0261,-0.005 -0.0524,-0.007 -0.0782,-0.0113 z" />
    <ellipse
       style="fill:#ff0000;fill-rule:evenodd;stroke-width:0.0819797"
       id="path6069"
       cx="773.48438"
       cy="459.93481"
       rx="6.106153"
       ry="7.2410851" />
    <ellipse
       style="fill:#ff0000;fill-rule:evenodd;stroke-width:0.0819797"
       id="path6069-6"
       cx="799.79175"
       cy="460.06113"
       rx="6.106153"
       ry="7.2410851" />
  </g>
</svg>
