<?xml version="1.0" encoding="UTF-8"?>
<svg width="150.34mm" height="77.527mm" version="1.1" viewBox="0 0 150.34 77.527" xmlns="http://www.w3.org/2000/svg" xmlns:cc="http://creativecommons.org/ns#" xmlns:dc="http://purl.org/dc/elements/1.1/" xmlns:osb="http://www.openswatchbook.org/uri/2009/osb" xmlns:rdf="http://www.w3.org/1999/02/22-rdf-syntax-ns#">
 <metadata>
  <rdf:RDF>
   <cc:Work rdf:about="">
    <dc:format>image/svg+xml</dc:format>
    <dc:type rdf:resource="http://purl.org/dc/dcmitype/StillImage"/>
    <dc:title/>
   </cc:Work>
  </rdf:RDF>
 </metadata>
 <g transform="translate(-27.101 -81.213)">
  <path d="m56.314 114.38v0.26458c-5.8428 2.4332-12.531 6.8802-15.752 12.435-3.9877 6.8762 1.1074 13.108 8.3438 13.974 5.6549 0.67654 11.77-1.9762 16.404-4.9824 2.0315-1.3176 4.2709-3.9783 6.6146-4.494-1.8222 4.3185 1.7013 10.433 6.8792 9.4245 4.1466-0.80777 7.5525-4.6601 10.583-7.3078 0.95012 3.3718 4.5514 8.345 8.7312 7.2461 3.1702-0.83317 5.3033-3.638 7.4083-5.9232 0.79692 3.4433 4.9752 7.2612 8.7312 5.6399 2.858-1.234 4.6069-3.9227 6.8792-5.9044 0.42862 1.7952 1.9984 8.0029 5.2017 6.077 1.6116-0.9689 2.6374-4.9517 3.5536-6.6061 2.8459-5.138 6.4786-12.413 11.353-15.875-1.3113 5.7843-5.9616 11.175-5.2456 17.462 0.48392 4.2479 6.4799 6.2381 9.7436 4.1309 2.1254-1.3724 3.5258-3.488 5.5562-4.9247 0.4572 1.319 1.0702 2.3106 2.1272 3.2401 0.74348 0.65378 1.5184 1.2636 2.3707 1.7695 4.8464 2.8773 7.8351-1.8471 11.112-4.745-1.9307 6.5762-6.7598 14.524-12.171 18.729-1.5671 1.2181-3.2152 2.063-5.0218 2.8453-0.4707 0.20373-1.3788 0.64823-0.86466 1.2906 0.59822 0.74771 2.408 0.61754 3.2406 0.52731 3.0893-0.33496 5.8314-1.3644 8.4667-3.0334 6.8159-4.3169 10.09-11.746 13.435-18.771 1.2425-2.609 3.253-5.7936 3.4422-8.7312 0.14949-2.3193-3.2261-7.5168-5.9563-5.3964-1.2152 0.94377-1.942 3.2784-2.7215 4.6027-1.6568 2.8152-3.6023 5.4454-5.7094 7.9375-0.56012 0.66225-3.0382 3.7288-4.0698 2.4958-0.97181-1.1615 0.37571-3.7473 0.84667-4.8771 1.8428-4.4185 5.0067-9.6843 9.2001-12.213 1.5375-0.92736 5.0289 0.57256 5.4414-0.78026 1.8396-6.0364-6.9231-7.9807-10.733-5.8628-6.836 3.8-9.6716 11.13-13.849 17.269-1.71 2.513-3.488 5.7063-6.259 7.1438-1.6298-6.8649 6.6484-13.43 6.5926-20.108-0.0214-2.5636-3.5576-6.4171-6.328-5.681-1.7629 0.46839-3.266 2.3271-4.4976 3.5643-1.6497 1.6568-2.9879 3.5211-4.4982 5.2917-0.04-3.4175 0.18177-5.7838-3.175-7.9457-0.82497-0.53125-2.6572-1.526-3.5406-0.62489-0.64321 0.65617-0.1487 1.9257-0.30428 2.7497-0.33946 1.7973-1.2771 3.6105-1.9791 5.2917-1.1803 2.8281-3.1049 5.366-4.745 7.9375-2.1042 3.2991-4.3034 7.3909-7.6872 9.525-0.84349-3.6724 2.4738-6.9813 2.4738-10.583 0-2.2474-3.4629-7.2192-6.0748-5.1319-1.1761 0.94006-1.7666 3.0594-2.5384 4.3381-1.742 2.8866-3.6264 5.6541-5.8433 8.2021-0.64452 0.74057-2.8099 3.561-3.9973 2.4918-1.1343-1.0213 0.31141-3.7806 0.75406-4.8731 1.8029-4.4498 4.9628-9.5557 9.1406-12.1 0.76888-0.46831 1.7158-0.97975 2.6458-0.77761 0.79031 0.17172 1.7066 1.1636 2.5098 0.53155 0.96811-0.762 0.52891-2.3551 0.086-3.2647-1.0671-2.1917-3.488-4.4606-6.0354-4.6312-2.704-0.18116-5.4766 1.93-7.4083 3.5739-5.2459 4.4649-7.9727 10.919-12.71 15.874-1.67 1.7465-3.3766 3.5449-5.2813 5.0377-0.49583 0.38867-1.5359 1.3264-2.2175 0.81835-0.6305-0.47016-0.13176-1.5727 0.0291-2.1518 0.54795-1.9719 1.2499-3.9005 1.9553-5.8208 1.2343-3.361 2.4622-6.7741 3.9005-10.054 0.4609-1.0507 0.87736-2.8255 1.924-3.4324 1.705-0.98856 4.6826-0.53631 6.5794-0.53631-0.41751-2.6761-3.4941-2.1167-5.5562-2.1167 0.14499-1.4462 1.0245-2.7758 1.0059-4.2333-0.05053-4.0046-3.8193-6.3496-7.3559-6.35 0.06032 2.9328-0.7276 8.2159-3.0586 10.391-1.1639 1.0859-3.1938 0.24895-3.8436 2.0485-0.58473 1.6192 1.0724 1.631 2.1397 1.319 0.38629 2.8012-1.9574 5.7192-3.6909 7.6729-4.3622 4.916-9.7483 9.6584-15.888 12.221-2.4522 1.0234-7.1217 3.271-9.3521 0.65273-1.768-2.0757 1.3567-5.1403 2.7385-6.5228 3.2593-3.2607 7.1697-5.8915 11.111-8.2502 1.5454-0.92498 4.6598-1.7301 5.4986-3.4174 0.53446-1.0756-0.1815-2.4585-0.67918-3.4147-0.88979-1.7093-2.4093-4.1071-4.5548-4.2711-1.9661-0.15034-5.7882 1.8983-7.2199-0.30033-0.86741-1.332 1.6037-2.9607 2.4574-3.6266 3.0681-2.3932 7.4554-4.2262 11.377-4.2374-0.43445 3.2111-1.4073 5.9551-0.79375 9.2604 2.594-2.3076 4.3257-6.2076 6.4415-8.9958 0.74454-0.98087 2.1616-2.4014 2.1902-3.7031 0.08149-3.6887-5.0038-2.5355-5.9859-1e-3 -1.5224-0.73652-2.5511-2.1107-4.2333-2.6313-3.1766-0.98309-8.0941 1.2013-10.848 2.7138-4.4527 2.4457-9.9248 9.1284-3.9685 13.239 1.4804 1.0216 3.3545 0.5683 5.0269 0.96647m-17.022 17.374-0.08821 0.17621z" fill="#fe273e"/>
  <g fill-rule="evenodd">
   <path transform="matrix(.46215 0 0 .48745 20.687 76.544)" d="m65.258 155.11-4.6124-2.4896-4.6657 2.3882 0.94243-5.156-3.7131-3.6994 5.1949-0.69699 2.3709-4.6746 2.2682 4.7252 5.1784 0.81034-3.7931 3.6174z" fill="#ffdb00"/>
   <path transform="matrix(.73844 0 0 .64201 -6.8286 18.346)" d="m65.258 155.11-4.6124-2.4896-4.6657 2.3882 0.94243-5.156-3.7131-3.6994 5.1949-0.69699 2.3709-4.6746 2.2682 4.7252 5.1784 0.81034-3.7931 3.6174z" fill="#ffba00"/>
   <path transform="matrix(.72444 0 0 .76512 5.1223 -18.765)" d="m65.258 155.11-4.6124-2.4896-4.6657 2.3882 0.94243-5.156-3.7131-3.6994 5.1949-0.69699 2.3709-4.6746 2.2682 4.7252 5.1784 0.81034-3.7931 3.6174z" fill="#ffa100"/>
   <path transform="matrix(.59477 0 0 .60821 -4.5461 45.162)" d="m65.258 155.11-4.6124-2.4896-4.6657 2.3882 0.94243-5.156-3.7131-3.6994 5.1949-0.69699 2.3709-4.6746 2.2682 4.7252 5.1784 0.81034-3.7931 3.6174z" fill="#ffce00"/>
   <path transform="matrix(.81911 0 0 .92509 22.136 -49.019)" d="m65.258 155.11-4.6124-2.4896-4.6657 2.3882 0.94243-5.156-3.7131-3.6994 5.1949-0.69699 2.3709-4.6746 2.2682 4.7252 5.1784 0.81034-3.7931 3.6174z" fill="#ff9400"/>
  </g>
 </g>
</svg>
