<?xml version="1.0" encoding="UTF-8" standalone="no"?>
<svg
   xmlns:osb="http://www.openswatchbook.org/uri/2009/osb"
   xmlns:dc="http://purl.org/dc/elements/1.1/"
   xmlns:cc="http://creativecommons.org/ns#"
   xmlns:rdf="http://www.w3.org/1999/02/22-rdf-syntax-ns#"
   xmlns:svg="http://www.w3.org/2000/svg"
   xmlns="http://www.w3.org/2000/svg"
   xmlns:sodipodi="http://sodipodi.sourceforge.net/DTD/sodipodi-0.dtd"
   xmlns:inkscape="http://www.inkscape.org/namespaces/inkscape"
   width="413.72546mm"
   height="177.02878mm"
   viewBox="0 0 413.72546 177.02878"
   version="1.1"
   id="svg3562"
   inkscape:version="1.0.1 (1.0.1+r73)"
   sodipodi:docname="logo_v3.svg">
  <defs
     id="defs3556">
    <rect
       x="-486.10193"
       y="711.59406"
       width="339.72787"
       height="340.49969"
       id="rect5605" />
    <rect
       x="280.50986"
       y="104.14363"
       width="67.823967"
       height="44.086842"
       id="rect4650" />
    <linearGradient
       id="linearGradient3133"
       osb:paint="solid">
      <stop
         style="stop-color:#000000;stop-opacity:1;"
         offset="0"
         id="stop3131" />
    </linearGradient>
    <clipPath
       clipPathUnits="userSpaceOnUse"
       id="clipPath5392">
      <path
         id="path5394"
         style="fill:#ff0000;fill-opacity:1;fill-rule:nonzero;stroke:none"
         d="m 1378.9961,-242.22461 c 0.3826,0.38658 0.7642,0.77325 1.1523,1.15625 0.5332,-0.15492 1.0741,-0.26978 1.6172,-0.33008 0.9143,-0.10149 1.7133,-0.0601 2.4043,0.0781 v -0.9043 z m -1.7422,7.4707 c -0.3236,0.30082 -0.6493,0.59531 -0.9805,0.87696 v 13.375 h 4.2676 c 0.5027,-3.36348 1.037,-6.72099 1.6289,-10.06836 -1.6974,-1.31448 -3.3374,-2.71466 -4.916,-4.1836 z m 3.2754,0.77539 c -0.1226,0.0927 -0.2414,0.18888 -0.3359,0.3086 -0.064,0.0817 0.2585,-0.0329 0.2812,-0.13477 0.01,-0.0475 0.041,-0.12158 0.055,-0.17383 z" />
    </clipPath>
    <clipPath
       clipPathUnits="userSpaceOnUse"
       id="clipPath5416">
      <path
         id="path5418"
         style="fill:#ff0000;fill-opacity:1;fill-rule:nonzero;stroke:none"
         d="M 1313.0234,-172.88477 V 45.572266 h 464.8321 V -172.88477 Z m 60.918,90.47852 c 0.8302,-5.17e-4 1.7202,0.401726 2.4902,1.220703 0.4654,-0.335045 0.9783,-0.521543 1.5,-0.521484 v 0 c 1.6243,1.82e-4 3.2671,1.623775 3.3359,4.873047 0.035,1.68314 0.1,3.276572 -0.3574,4.910156 -0.1839,0.657301 -0.7262,1.571962 -1.0195,2.121094 -0.7214,1.198034 -1.263,2.518296 -1.6582,3.859375 -0.035,0.118072 -0.088,0.482436 -0.084,0.359375 0.012,-0.336503 0.073,-0.669078 0.1074,-1.003907 -0.041,-0.03085 -0.093,-0.08309 -0.1367,-0.11914 -0.1288,0.259374 -0.2718,0.512681 -0.4023,0.771484 -0.1037,0.129351 -0.1873,0.267979 -0.2598,0.410156 0.2568,0.262134 0.4952,0.531969 0.6719,0.826172 0.1558,0.259446 -0.1505,0.592314 -0.293,0.859375 -0.5122,0.960908 -1.1209,1.813385 -1.7363,2.667969 -0.119,0.279069 -0.2389,0.557372 -0.3536,0.837891 -0.06,0.08068 -0.1019,0.1688 -0.1562,0.251953 0.018,0.03073 0.039,0.05989 0.055,0.0918 0.1643,0.342153 -0.2984,0.698932 -0.4356,1.052734 -0.1874,0.482188 -0.3591,0.970048 -0.539,1.455078 -0.063,0.131088 -0.1119,0.265216 -0.166,0.398438 -0.1871,0.866517 -0.369,1.735312 -0.7032,2.541015 -0.2129,0.987726 -0.4411,1.968776 -0.9511,2.88086 -0.09,0.160104 -0.2035,0.304781 -0.3145,0.451171 -0.015,0.152894 -0.022,0.306995 -0.045,0.458985 -0.1455,0.95783 -2.0271,4.152463 -2.5117,5.091797 -0.045,0.247086 -1.15,1.914811 -1.045,2.410156 1.3496,6.358355 -8.0979,4.753648 -6.3886,-1.517578 0.3722,-1.365449 0.8797,-2.678086 1.5996,-3.904297 1.3388,-2.591327 0.5756,-1.145964 1.4922,-2.84375 0.1538,-0.28529 0.3029,-0.574222 0.4609,-0.857422 0.011,-0.01761 0.038,-0.063 0.041,-0.04297 0.054,0.351924 0.061,1.41445 0.1153,1.0625 0.1001,-0.654859 0.018,-1.325843 0.025,-1.988281 0.2419,-0.45067 0.4848,-0.900889 0.7266,-1.351562 -0.024,0.04965 -0.053,0.09766 -0.059,0.152343 -0.01,0.0666 0.1647,-0.01778 0.1836,-0.08203 0.1334,-0.451861 0.1469,-0.931329 0.252,-1.390625 0.067,-0.2944 0.085,-0.329282 0.1367,-0.546875 -0.031,0.08551 -0.059,0.171947 -0.094,0.255859 -0.05,0.120276 0.054,-0.171299 0.1231,-0.371093 0.2148,-0.902677 0.432,-1.624142 0.6777,-2.289063 0.1959,-0.784933 0.3956,-1.568656 0.6738,-2.322265 0,-6.7e-4 10e-5,-0.0013 0,-0.002 -0.038,-0.862728 0.4081,-1.532275 0.8633,-2.304688 0.2917,-0.420202 0.472,-0.692641 0.6602,-0.955078 4e-4,-6.32e-4 0,-0.0013 0,-0.002 0.036,-0.19961 0.065,-0.400574 0.1114,-0.597657 0.3174,-1.363331 0.6707,-2.849998 1.4687,-4.027343 0.011,0.0089 0.01,0.03452 0.018,0.04883 0.142,-2.587827 0.2966,-5.248755 -0.4746,-7.75 -1.0773,-3.493932 0.486,-5.528111 2.3906,-5.529297 z" />
    </clipPath>
    <clipPath
       clipPathUnits="userSpaceOnUse"
       id="clipPath5416-9">
      <path
         id="path5418-6"
         style="fill:#ff0000;fill-opacity:1;fill-rule:nonzero;stroke:none"
         d="M 1313.0234,-172.88477 V 45.572266 h 464.8321 V -172.88477 Z m 60.918,90.47852 c 0.8302,-5.17e-4 1.7202,0.401726 2.4902,1.220703 0.4654,-0.335045 0.9783,-0.521543 1.5,-0.521484 v 0 c 1.6243,1.82e-4 3.2671,1.623775 3.3359,4.873047 0.035,1.68314 0.1,3.276572 -0.3574,4.910156 -0.1839,0.657301 -0.7262,1.571962 -1.0195,2.121094 -0.7214,1.198034 -1.263,2.518296 -1.6582,3.859375 -0.035,0.118072 -0.088,0.482436 -0.084,0.359375 0.012,-0.336503 0.073,-0.669078 0.1074,-1.003907 -0.041,-0.03085 -0.093,-0.08309 -0.1367,-0.11914 -0.1288,0.259374 -0.2718,0.512681 -0.4023,0.771484 -0.1037,0.129351 -0.1873,0.267979 -0.2598,0.410156 0.2568,0.262134 0.4952,0.531969 0.6719,0.826172 0.1558,0.259446 -0.1505,0.592314 -0.293,0.859375 -0.5122,0.960908 -1.1209,1.813385 -1.7363,2.667969 -0.119,0.279069 -0.2389,0.557372 -0.3536,0.837891 -0.06,0.08068 -0.1019,0.1688 -0.1562,0.251953 0.018,0.03073 0.039,0.05989 0.055,0.0918 0.1643,0.342153 -0.2984,0.698932 -0.4356,1.052734 -0.1874,0.482188 -0.3591,0.970048 -0.539,1.455078 -0.063,0.131088 -0.1119,0.265216 -0.166,0.398438 -0.1871,0.866517 -0.369,1.735312 -0.7032,2.541015 -0.2129,0.987726 -0.4411,1.968776 -0.9511,2.88086 -0.09,0.160104 -0.2035,0.304781 -0.3145,0.451171 -0.015,0.152894 -0.022,0.306995 -0.045,0.458985 -0.1455,0.95783 -2.0271,4.152463 -2.5117,5.091797 -0.045,0.247086 -1.15,1.914811 -1.045,2.410156 1.3496,6.358355 -8.0979,4.753648 -6.3886,-1.517578 0.3722,-1.365449 0.8797,-2.678086 1.5996,-3.904297 1.3388,-2.591327 0.5756,-1.145964 1.4922,-2.84375 0.1538,-0.28529 0.3029,-0.574222 0.4609,-0.857422 0.011,-0.01761 0.038,-0.063 0.041,-0.04297 0.054,0.351924 0.061,1.41445 0.1153,1.0625 0.1001,-0.654859 0.018,-1.325843 0.025,-1.988281 0.2419,-0.45067 0.4848,-0.900889 0.7266,-1.351562 -0.024,0.04965 -0.053,0.09766 -0.059,0.152343 -0.01,0.0666 0.1647,-0.01778 0.1836,-0.08203 0.1334,-0.451861 0.1469,-0.931329 0.252,-1.390625 0.067,-0.2944 0.085,-0.329282 0.1367,-0.546875 -0.031,0.08551 -0.059,0.171947 -0.094,0.255859 -0.05,0.120276 0.054,-0.171299 0.1231,-0.371093 0.2148,-0.902677 0.432,-1.624142 0.6777,-2.289063 0.1959,-0.784933 0.3956,-1.568656 0.6738,-2.322265 0,-6.7e-4 10e-5,-0.0013 0,-0.002 -0.038,-0.862728 0.4081,-1.532275 0.8633,-2.304688 0.2917,-0.420202 0.472,-0.692641 0.6602,-0.955078 4e-4,-6.32e-4 0,-0.0013 0,-0.002 0.036,-0.19961 0.065,-0.400574 0.1114,-0.597657 0.3174,-1.363331 0.6707,-2.849998 1.4687,-4.027343 0.011,0.0089 0.01,0.03452 0.018,0.04883 0.142,-2.587827 0.2966,-5.248755 -0.4746,-7.75 -1.0773,-3.493932 0.486,-5.528111 2.3906,-5.529297 z" />
    </clipPath>
    <clipPath
       clipPathUnits="userSpaceOnUse"
       id="clipPath5392-7">
      <path
         id="path5394-2"
         style="fill:#ff0000;fill-opacity:1;fill-rule:nonzero;stroke:none"
         d="m 1378.9961,-242.22461 c 0.3826,0.38658 0.7642,0.77325 1.1523,1.15625 0.5332,-0.15492 1.0741,-0.26978 1.6172,-0.33008 0.9143,-0.10149 1.7133,-0.0601 2.4043,0.0781 v -0.9043 z m -1.7422,7.4707 c -0.3236,0.30082 -0.6493,0.59531 -0.9805,0.87696 v 13.375 h 4.2676 c 0.5027,-3.36348 1.037,-6.72099 1.6289,-10.06836 -1.6974,-1.31448 -3.3374,-2.71466 -4.916,-4.1836 z m 3.2754,0.77539 c -0.1226,0.0927 -0.2414,0.18888 -0.3359,0.3086 -0.064,0.0817 0.2585,-0.0329 0.2812,-0.13477 0.01,-0.0475 0.041,-0.12158 0.055,-0.17383 z" />
    </clipPath>
  </defs>
  <sodipodi:namedview
     id="base"
     pagecolor="#ffffff"
     bordercolor="#666666"
     borderopacity="1.0"
     inkscape:pageopacity="0.0"
     inkscape:pageshadow="2"
     inkscape:zoom="0.11313708"
     inkscape:cx="2029.3162"
     inkscape:cy="1154.4736"
     inkscape:document-units="mm"
     inkscape:current-layer="layer1"
     inkscape:document-rotation="0"
     showgrid="false"
     inkscape:object-paths="false"
     inkscape:snap-nodes="false"
     inkscape:object-nodes="false"
     inkscape:snap-intersection-paths="true"
     inkscape:snap-bbox="false"
     inkscape:snap-global="false"
     inkscape:window-width="1875"
     inkscape:window-height="1025"
     inkscape:window-x="1920"
     inkscape:window-y="27"
     inkscape:window-maximized="1" />
  <metadata
     id="metadata3559">
    <rdf:RDF>
      <cc:Work
         rdf:about="">
        <dc:format>image/svg+xml</dc:format>
        <dc:type
           rdf:resource="http://purl.org/dc/dcmitype/StillImage" />
        <dc:title></dc:title>
      </cc:Work>
    </rdf:RDF>
  </metadata>
  <g
     inkscape:label="Layer 1"
     inkscape:groupmode="layer"
     id="layer1"
     transform="translate(-717.54312,-360.4241)">
    <path
       style="fill:#ff0000;stroke-width:0.178571"
       d=""
       id="path4508"
       transform="scale(0.26458333)" />
    <path
       style="fill:#ff0000;stroke-width:0.178571"
       d=""
       id="path4510"
       transform="scale(0.26458333)" />
    <g
       inkscape:label="Layer 1"
       id="layer1-6"
       transform="matrix(2.3108965,0,0,2.3248587,721.22545,168.40603)">
      <path
         id="path124"
         clip-path="url(#clipPath5416)"
         style="fill:#fe273e;stroke:none;stroke-width:0.999999;stroke-opacity:1"
         transform="matrix(0.26458333,0,0,0.26458333,-292.94882,146.68203)"
         d="m 1394.9473,-172.88477 c -0.05,0.0307 -0.098,0.0648 -0.1485,0.0957 -0.035,0.14975 -0.07,0.29946 -0.1054,0.44922 0.082,-0.18181 0.1811,-0.36301 0.2539,-0.54493 z m 20.1015,8.78125 c 0.228,11.08441 -2.7505,31.05139 -11.5605,39.27149 -4.399,4.10411 -12.0694,0.94081 -14.5254,7.74219 -2.21,6.11981 4.0519,6.16542 8.0859,4.98632 0.8295,6.01491 -1.6725,12.154084 -5.1836,17.693364 0.4195,0.561201 0.6222,1.394267 0.3672,2.46875 -0.2634,1.110293 -0.2531,2.408305 -0.8496,3.427734 -0.1001,0.171383 0.1845,-0.361869 0.211,-0.558594 0.025,-0.184735 4e-4,-0.734278 -0.059,-0.55664 -0.2482,0.778186 -0.3516,1.596865 -0.5274,2.394531 -0.1692,0.255304 -0.3385,0.510315 -0.5078,0.765625 -0.043,0.118195 -0.053,0.16373 -0.084,0.244141 -0.026,0.06981 0.043,-0.143222 0.064,-0.214844 0.01,-0.0098 0.013,-0.01951 0.02,-0.0293 0.039,-0.109713 0.1137,-0.298175 0.078,-0.226562 -0.3371,0.681243 -0.4544,0.950677 -0.539,1.154296 0.052,0.06462 -0.2017,0.485527 0,0 -0.029,-0.03631 -0.1649,0.0651 -0.5938,0.607422 -0.057,0.07279 0.1705,-0.07152 0.2559,-0.107422 -0.2331,0.440081 -0.4017,0.934777 -0.5196,1.425782 0.072,0.204747 0.1421,0.409992 0.1914,0.621093 0.076,0.323297 -0.052,0.762905 -0.051,1.103516 0.045,0.974403 -0.7044,1.919952 -1.1075,2.775391 0.029,-0.09281 0.054,-0.170241 0.02,-0.107422 -0.096,0.179443 -0.1774,0.36677 -0.2598,0.552734 5e-4,0.08824 -0.027,0.239538 -0.023,0.31836 0.01,0.129847 0.069,0.264703 0.029,0.388671 -0.204,0.638797 -0.4998,1.244987 -0.75,1.867188 -0.2413,0.242846 -0.5164,0.455295 -0.7227,0.728515 -0.058,0.07563 -0.016,0.189183 -0.039,0.28125 -0.031,0.124536 -0.078,0.244555 -0.1211,0.365235 -0.2194,0.612544 -0.441,1.176046 -0.7207,1.763672 -0.079,0.139052 -0.1737,0.268916 -0.2364,0.416015 -0.088,0.206162 -0.1798,0.768557 -0.2754,0.94336 -0.4258,0.778482 -0.8602,1.339082 -1.4121,1.861328 -0.1271,0.453806 -0.3947,0.927097 -0.5781,1.582031 -0.2363,0.564514 -0.3741,0.840764 -0.4629,0.984375 -0.1314,0.612079 -0.3635,1.43168 -0.4316,1.705078 -0.071,0.279636 -0.1314,0.561607 -0.2149,0.837891 -0.7952,2.634194 -0.097,0.213547 -0.5859,1.654297 0.01,0.02691 0.01,0.02315 0.014,0.05078 0.01,0.02646 -0.063,0.08862 -0.055,0.0625 0.026,-0.07795 0.02,-0.05091 0.041,-0.113281 -0.2924,-1.063002 -0.4344,-1.526342 -0.4981,-1.669922 -0.01,0.07336 4e-4,0.148232 -0.012,0.220703 0.069,0.464203 0.2559,1.419188 0.3965,2.228516 -0.067,0.200326 -0.1105,0.410772 -0.2012,0.601562 -0.1445,0.303719 -0.3058,0.600455 -0.5,0.875 -0.2689,0.380035 -0.8506,0.790761 -1.0351,1.25 -0.041,0.102236 0,0.219867 0,0.330078 -0.1093,0.743175 -0.2721,1.480034 -0.6992,2.076172 0.053,-0.01239 0.1053,-0.03133 0.1582,-0.04297 -6.887,16.322004 6.43,39.432155 26,35.619141 15.672,-3.052989 28.545,-17.612123 40,-27.619141 3.591,12.744 17.202,31.53974 33,27.386719 11.982,-3.148989 20.044,-13.749742 28,-22.386719 3.012,13.01401 18.804,27.442416 33,21.314454 10.802,-4.664013 17.412,-14.82445 26,-22.314454 1.62,6.785008 7.5531,30.245827 19.6601,22.966797 6.091,-3.661984 9.9687,-18.713795 13.4317,-24.966797 10.756,-19.419011 24.4852,-46.913942 42.9082,-59.999999 -4.956,21.862044 -22.5322,42.236988 -19.8262,65.999999 1.8289,16.05498 24.4912,23.575322 36.8262,15.611328 8.033,-5.187011 13.326,-13.181318 21,-18.611328 1.728,4.985008 4.046,8.733061 8.041,12.246094 2.81,2.47098 5.738,4.775513 8.959,6.6875 18.3171,10.874986 29.613,-6.980598 42,-17.933594 -7.297,24.855005 -25.549,54.89315 -46,70.785157 -5.923,4.603993 -12.1526,7.796917 -18.9805,10.753906 -1.7791,0.770003 -5.2106,2.448947 -3.2676,4.876953 2.261,2.825991 9.1011,2.335167 12.2481,1.994141 11.676,-1.265991 22.04,-5.158766 32,-11.466797 25.7611,-16.315994 38.1343,-44.39335 50.7773,-70.94336 4.696,-9.860976 12.2948,-21.896995 13.0098,-33 0.565,-8.766009 -12.1927,-28.410481 -22.5117,-20.396484 -4.593,3.567005 -7.3392,12.391483 -10.2852,17.396484 -6.262,10.640013 -13.6161,20.581002 -21.5801,30 -2.117,2.502993 -11.4838,14.09161 -15.3828,9.431641 -3.673,-4.389997 1.4212,-14.161644 3.2012,-18.431641 6.965,-16.699981 18.9225,-36.603117 34.7715,-46.162109 5.811,-3.50498 19.0075,2.163754 20.5664,-2.94921 6.953,-22.81467 -26.1664,-30.16313 -40.5664,-22.15821 -25.837,14.3624 -36.5538,42.065548 -52.3438,65.269529 -6.463,9.497991 -13.1832,21.567005 -23.6562,27 -6.16,-25.945991 25.1286,-50.757961 24.9179,-75.999999 -0.081,-9.68938 -13.4468,-24.25465 -23.9179,-21.47265 -6.663,1.77029 -12.3431,8.79655 -16.9981,13.47265 -6.235,6.26211 -11.2939,13.30801 -17.0019,19.999999 -0.1512,-12.916489 0.687,-21.860439 -12,-30.031249 -3.118,-2.00787 -10.0419,-5.76713 -13.3809,-2.36132 -2.4311,2.48001 -0.5624,7.27794 -1.1504,10.39257 -1.283,6.79287 -4.8275,13.64601 -7.4805,19.999999 -4.461,10.688996 -11.7347,20.281021 -17.9335,30 -7.953,12.469002 -16.2657,27.933997 -29.0547,36 -3.188,-13.88 9.3496,-26.38599 9.3496,-40 0,-8.493996 -13.087,-27.285492 -22.959,-19.396484 -4.445,3.552983 -6.6768,11.563489 -9.5938,16.396484 -6.584,10.909985 -13.7069,21.369991 -22.0859,31 -2.436,2.799005 -10.6194,13.458964 -15.1074,9.417969 -4.287,-3.859994 1.1766,-14.288948 2.8496,-18.417969 6.8139,-16.817978 18.7569,-36.117417 34.5469,-45.732422 2.906,-1.769978 6.485,-3.701487 10,-2.937497 2.987,0.64902 6.4503,4.396812 9.4863,2.00781 3.659,-2.87999 1.9982,-8.9001 0.3242,-12.33789 -4.033,-8.2837 -13.1825,-16.85881 -22.8105,-17.5039 -10.22,-0.6847 -20.699,7.29434 -28,13.50781 -19.827,16.875095 -30.1331,41.268127 -48.0391,59.996089 -6.312,6.601021 -12.7619,13.39706 -19.9609,19.039063 -1.874,1.468989 -5.8049,5.01375 -8.3809,3.09375 -2.383,-1.776983 -0.4985,-5.943824 0.1094,-8.132813 2.071,-7.453001 4.7246,-14.741984 7.3906,-22 4.665,-12.70298 9.3062,-25.60295 14.7422,-37.999999 1.742,-3.97099 3.3155,-10.68074 7.2715,-12.9746 6.444,-3.73629 17.6982,-2.0254 24.8672,-2.0254 -1.578,-10.1145 -13.206,-8 -21,-8 0.548,-5.46587 3.8727,-10.49141 3.8027,-16 -0.191,-15.13181 -14.4288,-23.99417 -27.793,-24 z m -27.334,75.476567 c -0.046,0.058 -0.091,0.118021 -0.1367,0.175781 0.031,0.09845 0.077,0.183574 0.1719,0.226563 0.1652,0.0749 0.071,-0.14605 -0.035,-0.402344 z m 1.209,4.242187 c 0.057,0.199664 0.1292,0.39597 0.1992,0.591797 0,-0.145869 -0.013,-0.217392 -0.1035,-0.443359 -0.032,-0.04898 -0.1105,-0.20445 -0.096,-0.148438 z m 0.2149,0.917969 c 0,0.0025 0,0.0035 0,0.0059 2e-4,-0.002 0,-0.0039 0,-0.0059 z m 0,0.0059 c 0,0.01691 -0.01,0.03388 -0.014,0.05078 -0.011,0.04365 0.029,0.175269 0.025,0.130859 -0.01,-0.115584 -0.012,-0.109728 -0.012,-0.181641 z m -0.9317,4.365235 c -0.037,0.116219 -0.084,0.265296 -0.1015,0.345703 -0.023,0.116107 0.048,-0.234307 0.098,-0.341797 0,-0.0013 0,-0.0025 0,-0.0039 z m -0.3398,0.650391 c -0.034,0.07843 -0.068,0.155777 -0.1016,0.234374 0.017,-0.01656 0.04,-0.02754 0.057,-0.04492 0.045,-0.04713 0.047,-0.116969 0.045,-0.189453 z m -10.6953,1.787109 c -1.6467,1.731657 -3.322,3.451822 -5.0332,5.150391 0.046,3.061714 0.061,6.13077 0.045,9.195312 -0.01,0.810815 0,1.621225 0,2.431641 0.3307,-0.0081 0.7129,0.05043 1.1894,0.226562 0,-1.398844 1.1646,-2.290146 2.584,-2.396484 0.105,-0.172863 0.2151,-0.35307 0.295,-0.472657 0.026,-0.184093 0.016,-0.225414 0.1699,-0.384765 -0.02,-0.108761 -0.077,-0.218142 -0.055,-0.326172 0.1194,-0.576881 0.2598,-1.1498 0.3887,-1.724609 0.048,-0.08289 0.047,-0.08214 0.084,-0.146485 -0.047,-0.469412 0,-0.938707 0,-1.410156 -0.015,-0.63563 0,-1.270533 0,-1.90625 0,-0.814004 9e-4,-1.629306 0,-2.443359 -0.01,-0.70752 0,-1.413555 0,-2.121094 v -1.292969 c -0.065,-0.816707 0.1043,-1.452618 0.3028,-2.273437 0.01,-0.03642 0.026,-0.06953 0.037,-0.105469 z m -0.1778,11.996094 c 0.01,0.0734 0.013,0.148176 0.033,0.21875 0.055,0.189823 0.3467,0.706731 0.2832,0.519531 -0.086,-0.253962 -0.201,-0.495729 -0.3164,-0.738281 z m -0.789,2.330078 c -4e-4,0.0013 0,0.0045 0,0.0059 0,-0.0019 0,-0.004 0,-0.0059 z m 0,0.0059 c -0.062,0.08439 -0.1247,0.169938 -0.1621,0.265625 0.021,-0.0011 0.043,-0.007 0.062,-0.0078 0.01,-2.82e-4 0.012,0.002 0.02,0.002 0.023,-0.07647 0.064,-0.198357 0.08,-0.259766 z m -0.1328,0.4375 c -0.029,0.0097 -0.053,0.0229 -0.078,0.03516 -0.044,0.205792 -0.078,0.43933 -0.033,0.31836 0.066,-0.177624 0.071,-0.227204 0.1113,-0.353516 z m -0.3848,0.195313 c -0.09,0.197801 -0.077,0.199452 -0.016,0.109375 -0.023,0.02923 -0.022,0.01674 0.016,-0.109375 z m -2.3906,3.009765 c -0.06,0.02066 -0.1026,0.109548 -0.1367,0.220703 0.042,-0.06736 0.108,-0.168346 0.1367,-0.220703 z m -59.5566,25.560547 c -0.2369,0.08739 -0.4737,0.171795 -0.7129,0.257813 0.163,0.16291 0.308,0.301406 0.4883,0.486328 0.07,-0.249583 0.1496,-0.496036 0.2246,-0.744141 z" />
      <path
         id="path1081"
         style="fill:#ffdb00;fill-opacity:1;fill-rule:evenodd;stroke:none;stroke-width:0.474628;stroke-opacity:1"
         inkscape:transform-center-x="-0.012316905"
         inkscape:transform-center-y="-0.35501821"
         transform="matrix(0.26458333,0,0,0.26458333,-292.94882,146.68203)"
         d="m 1287.6621,15.251953 c -0.3818,0.440885 -0.7193,0.907559 -0.9746,1.423828 -0.3788,0.76612 0.2492,0.462352 1.1777,-0.199219 -0.039,-0.241491 -0.077,-0.48316 -0.1152,-0.724609 z m 11.5625,4.386719 c -0.3755,0.09936 -0.7501,0.204081 -1.1269,0.296875 l 1.2832,0.730469 z" />
      <path
         id="path1081-5"
         style="fill:#ffce00;fill-opacity:1;fill-rule:evenodd;stroke:none;stroke-width:0.601448;stroke-opacity:1"
         inkscape:transform-center-x="-0.015850826"
         inkscape:transform-center-y="-0.44296659"
         transform="matrix(0.26458333,0,0,0.26458333,-292.94882,146.68203)"
         d="m 1223.1289,-53 -0.3437,0.693359 c 0.094,0.156871 0.1282,0.236551 0.2421,0.419922 0,-0.26984 0.04,-0.665653 0.1016,-1.113281 z m -11.1562,4.935547 -2.336,0.320312 1.0684,1.089844 c 0.2634,-0.255559 0.5662,-0.491891 0.9414,-0.75 0.104,-0.260214 0.2175,-0.477607 0.3262,-0.660156 z m 0.5253,0.08594 c -0.4296,-0.02276 -0.6186,0.166554 -0.6777,0.457032 0.2202,-0.148166 0.4067,-0.280619 0.6777,-0.457032 z" />
      <path
         id="path1081-3-6-3"
         style="fill:#ff9400;fill-opacity:1;fill-rule:evenodd;stroke:none;stroke-width:0.870489;stroke-opacity:1"
         inkscape:transform-center-x="-0.021831258"
         inkscape:transform-center-y="-0.67375564"
         transform="matrix(0.26458333,0,0,0.26458333,-292.94882,146.68203)"
         d="m 1376.6797,-242.22461 -0.4063,0.9043 c 1.1773,0.44189 2.3376,1.10419 3.4688,1.99804 0.1297,-0.14954 0.2676,-0.29906 0.418,-0.44921 -1.3577,-1.59547 -2.5207,-2.26055 -3.4805,-2.45313 z m 3.4805,2.45313 c 0.056,0.0659 0.1112,0.13206 0.1679,0.20117 0.093,-0.22675 0.1943,-0.44475 0.3067,-0.65039 -0.1682,0.14989 -0.3238,0.29856 -0.4746,0.44922 z m 0.1679,0.20117 c -0.074,0.18008 -0.1357,0.37249 -0.1972,0.56445 0.3397,0.28742 0.6783,0.58593 1.0117,0.91992 0.3308,0.33151 0.6521,0.68746 0.9512,1.0586 -0.6199,-1.02077 -1.2089,-1.86495 -1.7657,-2.54297 z m 2.8145,4.38867 c 0.1715,0.53741 0.3,1.08483 0.4043,1.63867 0.2042,0.13516 0.4226,0.28498 0.623,0.41602 -0.3503,-0.7403 -0.6926,-1.42322 -1.0273,-2.05469 z m -0.068,11.17773 c -0.1543,0.8328 -0.3396,1.86333 -0.5176,2.84766 0.1,-0.097 0.1551,-0.16643 0.2598,-0.26367 0.3494,-0.49118 0.7278,-1.04675 1.0488,-1.60156 -0.3236,-0.26117 -0.576,-0.60118 -0.791,-0.98243 z m -0.2578,2.58399 c -0.1028,0.14458 -0.1887,0.26406 -0.2852,0.39844 -0.033,0.18014 -0.06,0.33767 -0.094,0.51953 0.3773,-0.46269 0.7587,-0.92177 1.1152,-1.40039 0.3492,-0.46864 -0.1911,-0.024 -0.7363,0.48242 z"
         clip-path="url(#clipPath5392)" />
    </g>
    <text
       xml:space="preserve"
       id="text4648"
       style="font-style:normal;font-weight:normal;font-size:10.5833px;line-height:1.25;font-family:sans-serif;white-space:pre;shape-inside:url(#rect4650);fill:#000000;fill-opacity:1;stroke:none;" />
    <g
       inkscape:label="Layer 1"
       id="layer1-6-1"
       transform="matrix(9.238899,0,0,7.9516142,-655.92745,-130.63902)">
      <path
         id="path124-4"
         clip-path="url(#clipPath5416-9)"
         style="fill:#fe273e;stroke:none;stroke-width:8.57111;stroke-opacity:1"
         transform="matrix(0.02863797,0,0,0.03327417,70.996279,16.429245)"
         d="m 179.29688,2539.8184 c -0.46195,0.2441 -0.90453,0.516 -1.3711,0.7617 -0.32336,1.1907 -0.64755,2.3814 -0.97461,3.5722 0.75759,-1.4456 1.67311,-2.8874 2.34571,-4.3339 z m 185.71679,69.8261 c 2.10647,88.139 -25.41194,246.9085 -106.80664,312.2715 -40.64191,32.6343 -111.50848,7.4806 -134.19922,61.5625 -20.41796,48.6624 37.43536,49.0262 74.70508,39.6504 7.66367,47.8282 -15.45193,96.6432 -47.89062,140.6895 3.87571,4.4624 5.74849,11.0869 3.39257,19.6308 -2.43352,8.8286 -2.3386,19.1498 -7.84961,27.2559 -0.92481,1.3627 1.70439,-2.8771 1.94922,-4.4414 0.23098,-1.469 0.004,-5.8383 -0.54492,-4.4258 -2.29309,6.1878 -3.24885,12.6963 -4.87305,19.0391 -1.56322,2.03 -3.12726,4.0577 -4.6914,6.0878 -0.39727,0.9399 -0.48899,1.3021 -0.77539,1.9414 -0.24021,0.5552 0.39582,-1.1375 0.58984,-1.707 0.0924,-0.078 0.12088,-0.1565 0.18555,-0.2344 0.36032,-0.8724 1.05053,-2.3702 0.7207,-1.8007 -3.11443,5.4169 -4.19886,7.5586 -4.98047,9.1777 0.48043,0.5138 -1.86348,3.8607 0,0 -0.26793,-0.2887 -1.52181,0.5177 -5.48437,4.8301 -0.52662,0.5788 1.57428,-0.5681 2.36328,-0.8535 -2.15359,3.4993 -3.71152,7.4336 -4.80078,11.3378 0.6652,1.6281 1.31405,3.259 1.76953,4.9376 0.70216,2.5707 -0.4819,6.0669 -0.47266,8.7753 0.41575,7.7481 -6.50822,15.2663 -10.23242,22.0684 0.26793,-0.738 0.49967,-1.353 0.18555,-0.8535 -0.88694,1.4268 -1.63911,2.9158 -2.40039,4.3945 0.005,0.7017 -0.24985,1.9045 -0.21289,2.5313 0.0924,1.0325 0.63713,2.106 0.26757,3.0918 -1.88473,5.0794 -4.61616,9.8982 -6.92773,14.8457 -2.22935,1.931 -4.77175,3.6204 -6.67773,5.7929 -0.53586,0.6014 -0.14688,1.5043 -0.35938,2.2364 -0.28641,0.9902 -0.72094,1.9447 -1.11914,2.9043 -2.027014,4.8707 -4.074083,9.3528 -6.658203,14.0253 -0.729873,1.1057 -1.606268,2.137 -2.185547,3.3067 -0.813023,1.6393 -1.65973,6.112 -2.542969,7.5019 -3.933923,6.1902 -7.947926,10.6481 -13.046875,14.8008 -1.174264,3.6085 -3.647383,7.3723 -5.341797,12.5801 -2.183151,4.4888 -3.454976,6.6842 -4.27539,7.8262 -1.213992,4.867 -3.359112,11.3846 -3.988281,13.5586 -0.655962,2.2235 -1.212927,4.4652 -1.984376,6.6621 -7.346772,20.9461 -0.897164,1.698 -5.414062,13.1543 0.09239,0.214 0.09195,0.1846 0.128906,0.4043 0.09239,0.2104 -0.581723,0.7057 -0.507812,0.498 0.240211,-0.6198 0.184889,-0.4064 0.378906,-0.9023 -2.701454,-8.4526 -4.013045,-12.1357 -4.601562,-13.2774 -0.09239,0.5834 0.0032,1.1777 -0.111329,1.7539 0.637484,3.6912 2.365074,11.2853 3.664063,17.7207 -0.619006,1.593 -1.021407,3.2662 -1.859375,4.7832 -1.335021,2.4151 -2.824947,4.774 -4.619141,6.9571 -2.48434,3.0219 -7.857923,6.2897 -9.5625,9.9414 -0.378795,0.8129 0,1.7467 0,2.623 -1.009811,5.9095 -2.515004,11.7695 -6.460937,16.5098 0.489661,-0.099 0.972199,-0.2492 1.460937,-0.3418 -63.628296,129.7863 59.40764,313.5501 240.212894,283.2305 144.79202,-24.2762 263.7231,-140.0453 369.55468,-219.6172 33.17689,101.3353 158.92865,250.7908 304.88477,217.7676 110.70045,-25.0396 185.18475,-109.3319 258.68945,-178.0098 27.8276,103.4824 173.7274,218.2116 304.8828,169.4844 99.7986,-37.0865 160.8673,-117.878 240.211,-177.4356 14.967,53.9518 69.7833,240.5031 181.6386,182.6231 56.2742,-29.1187 92.0995,-148.8059 124.0938,-198.5274 99.3736,-154.4125 226.2156,-373.0404 396.4238,-477.0957 -45.788,173.8386 -208.1723,335.8524 -183.1719,524.8067 16.8971,127.663 226.2726,187.4613 340.2344,124.1347 74.2161,-41.2451 123.1163,-104.8129 194.0156,-147.9902 15.9648,39.6389 37.3816,69.4427 74.291,97.3769 25.9613,19.6483 53.013,37.9724 82.7715,53.1758 169.2299,86.4737 273.591,-55.5075 388.0332,-142.6015 -67.4162,197.6374 -236.0455,436.4903 -424.9902,562.8574 -54.722,36.6092 -112.2751,61.9969 -175.3574,85.5097 -16.437,6.1228 -48.1407,19.4728 -30.1895,38.7793 20.8892,22.4712 84.0834,18.5692 113.1582,15.8575 107.8734,-10.0667 203.6251,-41.0207 295.6446,-91.1797 238.0042,-129.7385 352.3195,-352.9998 469.1269,-564.1153 43.3859,-78.4106 113.5915,-174.1155 120.1973,-262.4023 5.22,-69.7039 -112.6482,-225.9098 -207.9844,-162.1855 -42.4343,28.3634 -67.8056,98.5322 -95.0234,138.33 -57.854,84.6053 -125.7984,163.6526 -199.377,238.5489 -19.5587,19.9028 -106.0967,112.0503 -142.1191,74.9961 -33.9345,-34.9076 13.1289,-112.6072 29.5742,-146.5606 64.3489,-132.7918 174.8227,-291.0531 321.25,-367.0625 53.6872,-27.8702 175.6092,17.2052 190.0117,-23.4512 64.2381,-181.4134 -241.7489,-239.8454 -374.7891,-176.1933 -238.7054,114.2042 -337.7174,334.4889 -483.5996,518.998 -59.711,75.5244 -121.7976,171.4923 -218.5566,214.6934 -56.9116,-206.3125 232.1615,-403.6073 230.2148,-604.3223 -0.7483,-77.0462 -124.2351,-192.8636 -220.9765,-170.7422 -61.5588,14.0767 -114.0359,69.9464 -157.043,107.1289 -57.6045,49.7939 -104.3425,105.8192 -157.0781,159.0313 -1.3969,-102.7069 6.3467,-173.8258 -110.8672,-238.7969 -28.8069,-15.9658 -92.7763,-45.8571 -123.625,-18.7754 -22.4607,19.7201 -5.1964,57.8704 -10.6289,82.6367 -11.8535,54.0143 -44.6005,108.5088 -69.1113,159.0332 -41.2148,84.9948 -108.4155,161.2673 -165.6856,238.5489 -73.477,99.1487 -150.2773,222.12 -268.4336,286.2578 -29.4536,-110.3684 86.3809,-209.8111 86.3809,-318.0645 0,-67.5409 -120.9108,-216.9647 -212.1172,-154.2343 -41.0669,28.2519 -61.6849,91.9488 -88.6348,130.3789 -60.8289,86.752 -126.638,169.9258 -204.0508,246.5 -22.5059,22.2566 -98.11,107.0211 -139.57418,74.8886 -39.60715,-30.6931 10.8695,-113.6207 26.32618,-146.4531 62.9529,-133.7301 173.2936,-287.1917 319.1758,-363.6465 26.8482,-14.0742 59.9139,-29.4324 92.3887,-23.3574 27.5965,5.1608 59.5932,34.9613 87.6425,15.9648 33.8052,-22.9005 18.462,-70.7694 2.9961,-98.1054 -37.2605,-65.8688 -121.792,-134.0561 -210.7441,-139.1856 -94.4216,-5.4444 -191.2363,58.0031 -258.68947,107.4102 -183.17965,134.1842 -278.3964,328.1469 -443.82813,477.0644 -58.31593,52.4888 -117.90713,106.5296 -184.41797,151.3926 -17.31369,11.6809 -53.63028,39.8667 -77.42968,24.5996 -22.0163,-14.1299 -4.60461,-47.2619 1.01172,-64.6679 19.13376,-59.2634 43.65034,-117.2226 68.28125,-174.9356 43.09946,-101.0092 85.97851,-203.5855 136.20117,-302.1621 16.09416,-31.5758 30.6306,-84.93 67.17969,-103.1699 59.53546,-29.7096 163.51242,-16.1035 229.74609,-16.1035 -14.57898,-80.4266 -122.0096,-63.6133 -194.01758,-63.6133 5.06292,-43.4625 35.77954,-83.4244 35.13281,-127.2266 -1.7646,-120.3204 -133.30073,-190.7893 -256.76953,-190.8379 z m -252.53711,600.1602 c -0.42499,0.4612 -0.84145,0.9391 -1.26367,1.3984 0.28641,0.7829 0.71307,1.459 1.58984,1.8008 1.52627,0.5956 0.65511,-1.1613 -0.32421,-3.1992 z m 11.1543,33.6387 c -0.008,0.01 -0.003,0.038 0.0137,0.094 h 0.002 c 0.52662,1.5877 1.19313,3.1479 1.83985,4.7051 0,-1.1599 -0.11896,-1.7286 -0.95508,-3.5254 -0.25869,-0.3408 -0.84728,-1.3299 -0.90039,-1.2734 z m 1.99219,7.4394 c 0,0.017 0.002,0.019 0.002,0.035 0.001,-0.012 0.008,-0.024 0.008,-0.035 z m 0.002,0.035 c -0.0136,0.1228 -0.0893,0.2464 -0.12305,0.3691 -0.10162,0.3471 0.26938,1.3942 0.23243,1.041 -0.0897,-0.8917 -0.10827,-0.8896 -0.10938,-1.4101 z m -8.63281,34.6758 h 0.0312 c -0.34184,0.9241 -0.77582,2.1086 -0.9375,2.748 -0.2125,0.9232 0.4443,-1.8621 0.90625,-2.7168 z m -3.10742,5.1718 c -0.31413,0.6237 -0.62903,1.2383 -0.93946,1.8633 0.15706,-0.1317 0.37028,-0.2192 0.52735,-0.3574 0.41575,-0.3748 0.43449,-0.9295 0.41601,-1.5059 z m -98.812504,14.211 c -15.21369517,13.7694 -30.69235,27.4467 -46.501954,40.9531 0.42499,24.3456 0.563839,48.7491 0.416016,73.1172 -0.09239,6.4473 0,12.8918 0,19.3359 3.055304,-0.064 6.585946,0.4003 10.988281,1.8008 0,-11.1231 10.7593542,-18.2091 23.8730472,-19.0547 0.9700844,-1.3745 1.9883745,-2.8088 2.7265626,-3.7598 0.2402113,-1.4638 0.1484459,-1.7915 1.5703124,-3.0586 -0.1847779,-0.8648 -0.7130214,-1.7347 -0.5097656,-2.5937 1.1031246,-4.5871 2.4009024,-9.1422 3.5917964,-13.7129 0.443468,-0.6591 0.433552,-0.6544 0.775391,-1.166 -0.434228,-3.7326 0,-7.4641 0,-11.2129 -0.138583,-5.0543 0,-10.1013 0,-15.1562 0,-6.4727 0.0083,-12.9567 0,-19.4297 -0.09239,-5.626 0,-11.2392 0,-16.8653 v -10.2812 c -0.600528,-6.4942 0.964907,-11.5513 2.798828,-18.0781 0.09239,-0.2896 0.240169,-0.5522 0.341797,-0.8379 z m -1.644532,95.3867 c 7.06e-4,0 0.0012,0 0.002,0 -2.02e-4,0 2.01e-4,0 0,0 z m 0.002,0 c 0.09191,0.5824 0.120312,1.1764 0.304687,1.7363 0.508139,1.5094 3.201904,5.6194 2.615234,4.1309 -0.794019,-2.0181 -1.854464,-3.9398 -2.919921,-5.8672 z m -7.2929692,18.5762 c -0.5716439,0.6696 -1.1493259,1.3481 -1.4941407,2.1074 0.1940169,-0.01 0.3967266,-0.056 0.5722657,-0.062 0.092389,0 0.1116356,0.018 0.1855468,0.018 0.2120748,-0.6069 0.5878885,-1.5733 0.7363282,-2.0625 z m -1.2246094,3.4746 c -0.2679281,0.077 -0.4897307,0.1818 -0.7207032,0.2793 -0.4065115,1.6363 -0.7204379,3.4931 -0.3046874,2.5312 0.6097673,-1.4124 0.6569692,-1.8061 1.0292968,-2.8105 z m -3.5546875,1.5527 c -0.83150092,1.5728 -0.71201036,1.5854 -0.1484375,0.8691 -0.2124947,0.2325 -0.2026407,0.1337 0.1484375,-0.8691 z m -22.0859379,23.9316 c -0.554334,0.1643 -0.948625,0.872 -1.263672,1.7559 0.388034,-0.5356 0.998516,-1.3395 1.263672,-1.7559 z m -550.23838,203.2522 c -2.18869,0.6949 -4.37599,1.3668 -6.58593,2.0508 1.50594,1.2954 2.84594,2.3967 4.51171,3.8672 0.64673,-1.9846 1.38131,-3.9452 2.07422,-5.918 z" />
      <path
         id="path1081-4"
         style="fill:#ffdb00;fill-opacity:1;fill-rule:evenodd;stroke:none;stroke-width:0.474628;stroke-opacity:1"
         inkscape:transform-center-x="-0.012316905"
         inkscape:transform-center-y="-0.35501821"
         transform="matrix(0.26458333,0,0,0.26458333,-292.94882,146.68203)"
         d="m 1287.6621,15.251953 c -0.3818,0.440885 -0.7193,0.907559 -0.9746,1.423828 -0.3788,0.76612 0.2492,0.462352 1.1777,-0.199219 -0.039,-0.241491 -0.077,-0.48316 -0.1152,-0.724609 z m 11.5625,4.386719 c -0.3755,0.09936 -0.7501,0.204081 -1.1269,0.296875 l 1.2832,0.730469 z" />
      <path
         id="path1081-5-8"
         style="fill:#ffce00;fill-opacity:1;fill-rule:evenodd;stroke:none;stroke-width:0.601448;stroke-opacity:1"
         inkscape:transform-center-x="-0.015850826"
         inkscape:transform-center-y="-0.44296659"
         transform="matrix(0.26458333,0,0,0.26458333,-292.94882,146.68203)"
         d="m 1223.1289,-53 -0.3437,0.693359 c 0.094,0.156871 0.1282,0.236551 0.2421,0.419922 0,-0.26984 0.04,-0.665653 0.1016,-1.113281 z m -11.1562,4.935547 -2.336,0.320312 1.0684,1.089844 c 0.2634,-0.255559 0.5662,-0.491891 0.9414,-0.75 0.104,-0.260214 0.2175,-0.477607 0.3262,-0.660156 z m 0.5253,0.08594 c -0.4296,-0.02276 -0.6186,0.166554 -0.6777,0.457032 0.2202,-0.148166 0.4067,-0.280619 0.6777,-0.457032 z" />
      <path
         id="path1081-3-6-3-4"
         style="fill:#ff9400;fill-opacity:1;fill-rule:evenodd;stroke:none;stroke-width:0.870489;stroke-opacity:1"
         inkscape:transform-center-x="-0.021831258"
         inkscape:transform-center-y="-0.67375564"
         transform="matrix(0.26458333,0,0,0.26458333,-292.94882,146.68203)"
         d="m 1376.6797,-242.22461 -0.4063,0.9043 c 1.1773,0.44189 2.3376,1.10419 3.4688,1.99804 0.1297,-0.14954 0.2676,-0.29906 0.418,-0.44921 -1.3577,-1.59547 -2.5207,-2.26055 -3.4805,-2.45313 z m 3.4805,2.45313 c 0.056,0.0659 0.1112,0.13206 0.1679,0.20117 0.093,-0.22675 0.1943,-0.44475 0.3067,-0.65039 -0.1682,0.14989 -0.3238,0.29856 -0.4746,0.44922 z m 0.1679,0.20117 c -0.074,0.18008 -0.1357,0.37249 -0.1972,0.56445 0.3397,0.28742 0.6783,0.58593 1.0117,0.91992 0.3308,0.33151 0.6521,0.68746 0.9512,1.0586 -0.6199,-1.02077 -1.2089,-1.86495 -1.7657,-2.54297 z m 2.8145,4.38867 c 0.1715,0.53741 0.3,1.08483 0.4043,1.63867 0.2042,0.13516 0.4226,0.28498 0.623,0.41602 -0.3503,-0.7403 -0.6926,-1.42322 -1.0273,-2.05469 z m -0.068,11.17773 c -0.1543,0.8328 -0.3396,1.86333 -0.5176,2.84766 0.1,-0.097 0.1551,-0.16643 0.2598,-0.26367 0.3494,-0.49118 0.7278,-1.04675 1.0488,-1.60156 -0.3236,-0.26117 -0.576,-0.60118 -0.791,-0.98243 z m -0.2578,2.58399 c -0.1028,0.14458 -0.1887,0.26406 -0.2852,0.39844 -0.033,0.18014 -0.06,0.33767 -0.094,0.51953 0.3773,-0.46269 0.7587,-0.92177 1.1152,-1.40039 0.3492,-0.46864 -0.1911,-0.024 -0.7363,0.48242 z"
         clip-path="url(#clipPath5392-7)" />
    </g>
    <path
       id="path5504-3"
       style="fill:#ff0000;fill-rule:evenodd;stroke-width:2.13888"
       d="m 732.28129,364.09428 v 0.003 0.003 c -8.13412,0 -14.35212,0.92162 -14.35212,2.12701 0,1.1974 6.04436,2.12648 13.8312,2.12648 13.5073,0 14.09126,0.23681 24.94008,10.10275 10.89064,9.90399 11.41783,10.95965 26.802,53.70316 7.77245,21.59469 12.92394,37.95485 13.79088,43.56685 0.023,0.003 0.0458,0.005 0.0687,0.007 0.4181,0.14015 0.82053,0.34546 1.25471,0.42066 0.24241,0.0419 0.488,-0.0855 0.7338,-0.0765 2.14698,0.0785 4.28969,0.24976 6.4363,0.33848 6.14479,0.25397 6.69285,0.2282 11.98944,0.28421 0.41394,0.0529 0.82754,0.10885 1.24126,0.1633 0.0617,-0.033 0.15055,-0.0445 0.26821,-0.006 0.059,0.019 0.11785,0.0436 0.17674,0.0651 0.12957,0.0172 0.25903,0.0354 0.3886,0.0527 -0.0476,-0.11848 0.049,-0.26549 0.29662,-0.26252 0.52091,0.007 1.0418,-0.003 1.56271,-0.003 0.34459,0 0.68935,0.003 1.03405,0 0.008,0.005 0.003,0.003 0.01,0.005 0,-2.1e-4 0.008,-0.003 0.009,-0.003 0.0516,-0.009 0.0979,-0.0103 0.1385,-0.006 0.0843,0.01 0.14105,0.0462 0.17415,0.0925 0.15166,0.003 0.4771,0.0101 0.5669,0.0563 0.0325,0.0167 0.0607,0.0402 0.0878,0.0651 0.23363,-0.006 0.46646,-0.0122 0.68834,-0.0161 0.0526,0 0.12769,-0.0371 0.17465,-0.0284 0.0156,0.003 0.0282,0.0109 0.0357,0.0269 0.0132,0.0285 0.0164,0.0437 0.0259,0.0672 0.35904,0.0103 0.71826,0.013 1.07746,0.008 0.056,0 0.10221,0.003 0.14367,0.003 0.0402,-0.003 0.0817,-0.006 0.12247,-0.009 0.0679,-0.0145 0.1269,-0.052 0.20567,-0.14523 0.14898,-0.12943 0.0446,-0.0618 0.35295,-0.1235 0.0257,-0.005 0.049,-0.006 0.0703,-0.004 0.0563,0.004 0.0973,0.031 0.1261,0.0692 0.003,-2.4e-4 0.004,-0.004 0.006,-0.004 0.10697,-0.0109 0.18224,0.0535 0.19172,0.1478 1.64211,-0.0759 3.75332,-0.0936 6.46782,-0.0936 h 11.313 c 0.0475,-0.0401 0.11901,-0.0712 0.2186,-0.0796 0.37181,-0.0314 0.67743,-0.0611 1.04333,-0.0781 0.0643,-0.003 0.13028,-0.0148 0.19327,-0.004 0.003,0 0.006,0.005 0.009,0.006 1.92288,-0.24964 4.3354,-0.065 5.80995,0.0212 0.0465,-2.4e-4 0.093,0 0.13955,0 h 0.34104 c -1.51953,-0.33507 -1.7299,-0.46003 -1.26243,-0.4413 0.50043,0.0201 1.73389,0.20103 2.84787,0.44233 0.87024,0.003 1.74046,0.003 2.6107,0.004 1.2474,-0.003 2.49507,-0.003 3.7424,0 0.75612,-0.006 1.51204,-0.003 2.26808,0 0.006,-0.0101 0.0135,-0.0177 0.0222,-0.0206 0.0182,-0.006 0.0421,0.005 0.0672,0.0206 h 0.50694 c 0.2763,0.003 0.55261,1.6e-4 0.82888,-0.003 0.0246,-0.0143 0.0473,-0.0288 0.0822,-0.0424 0.071,-0.0276 0.19878,-0.0249 0.27078,-0.0269 0.0343,0.003 0.0683,0.005 0.10231,0.008 0.0251,0.003 0.053,-0.003 0.077,0.006 0.007,0.003 -0.014,0.0109 -0.014,0.0164 0,0.0122 -0.004,0.0241 -0.005,0.0362 0.0834,0 0.16676,-1.6e-4 0.25013,0 0.0291,-0.0124 0.0603,-0.0153 0.0946,-0.003 0.003,0 0.004,0.003 0.006,0.003 0.103,0 0.206,-0.003 0.309,0 0.12862,-0.0161 0.25824,-0.0268 0.38603,-0.0486 0.5271,-0.0898 0.42796,-0.11112 0.94517,-0.17933 0.2426,-0.032 0.48689,-0.0516 0.73017,-0.0775 0.26691,-0.0299 0.53438,-0.0548 0.80047,-0.0904 0.21432,-0.0287 0.42683,-0.068 0.64029,-0.10232 0.41979,-0.10292 0.49168,-0.13242 0.86453,-0.1597 0.1601,-0.30268 0.3806,-0.52319 0.63098,-0.64749 -0.69919,-2.03813 -1.96731,-3.95105 -4.28088,-7.14221 -1.7472,-2.40985 -19.46235,-2.56239 -30.91336,-2.29442 l -23.64145,0.55243 c -6.82458,-0.0612 -3.37455,-1.64825 -6.37169,-5.6343 l -0.0288,-6.07785 c -0.0233,-4.90366 19.51403,-3.48663 24.15924,-3.48663 h 34.30902 l 8.54109,-10.10169 c 11.39341,-13.47634 12.54022,-15.59165 9.47124,-17.46715 -1.41412,-0.86416 -18.96097,-1.10403 -38.99297,-0.53226 -36.10091,1.03052 -36.42206,1.00099 -36.42206,-3.50677 0,-4.49421 0.50667,-4.54858 43.02167,-4.54858 h 43.02167 l 10.21488,-12.95474 c 5.61811,-7.12518 10.53735,-13.82429 10.93163,-14.88747 0.421,-1.13501 -28.73349,-1.93373 -70.61377,-1.93373 h -71.33214 l -12.36515,-10.634 C 746.81591,364.25133 746.42064,364.0943 732.28129,364.09428 Z m 117.86515,112.99931 c 0.0878,0.0161 0.17621,0.0227 0.26665,0 -0.0889,-1.9e-4 -0.17778,-8e-5 -0.26665,0 z m -29.20132,0.0299 c 0.17793,0.0241 0.35591,0.0479 0.53382,0.0724 0.0417,-0.0159 0.089,-0.0274 0.12557,-0.047 0.0159,-0.008 0.0317,-0.0169 0.0476,-0.0254 z m 1.7875,0.0114 v 0 c -0.0321,0.007 -0.0643,0.0138 -0.0967,0.0201 0.0842,-0.007 0.1446,-0.009 0.17725,0.0103 0.003,0 0.005,8e-5 0.008,-0.003 -0.0276,-0.008 -0.0574,-0.0175 -0.0889,-0.0289 z m -0.29509,0.0382 c -0.028,0 -0.0558,-2.2e-4 -0.0832,0.003 0.0109,3e-5 0.0151,0 0.0265,0 0.0246,0 0.0346,-0.003 0.0568,-0.003 z m 0.41703,0.0114 v 0.045 h 0.0476 c -0.007,-0.0111 -0.0114,-0.0233 -0.0156,-0.0351 -0.01,-0.003 -0.0222,-0.007 -0.032,-0.01 z m 30.54284,15.23111 v 0 c -0.0233,0.0164 -0.0464,0.0328 -0.0703,0.0486 -0.004,0.0984 -0.004,0.137 -0.007,0.22635 0.0611,0 0.11547,-0.003 0.17622,-0.003 0.0119,-0.099 0.0188,-0.14764 0.032,-0.25943 -0.0436,-0.005 -0.0874,-0.009 -0.13073,-0.0135 z" />
    <path
       style="fill:#000000;stroke-width:0.584652"
       d="m 850.77946,497.6145 c -3.73109,-1.62516 -6.19679,-6.36134 -5.25836,-10.10036 0.99854,-3.97846 5.30543,-7.16162 9.72644,-7.18865 5.23218,-0.032 10.31074,5.25852 9.68991,10.0943 -0.35508,2.76574 -2.62131,5.80169 -5.26842,7.05782 -2.41717,1.14703 -6.42865,1.2088 -8.88957,0.13689 z"
       id="path297" />
    <path
       style="fill:#000000;stroke-width:0.584652"
       d="m 809.04949,497.09196 c -8.27117,-4.68464 -5.62087,-15.86428 3.949,-16.65789 8.9981,-0.74619 14.10391,8.90765 7.88422,14.90712 -3.49579,3.372 -7.83679,4.01427 -11.83322,1.75077 z"
       id="path299" />
    <path
       style="fill:#000000;stroke-width:0.206706"
       d="m 762.33943,384.27526 c -2.25813,-2.59382 -10.16117,-9.91779 -13.31117,-12.27559 -4.27888,-3.20278 -7.00607,-3.29978 -15.64144,-3.313 -9.14004,-0.014 -15.8437,-1.39005 -15.8437,-2.57113 0,-1.92914 19.98081,-3.05169 26.44156,-1.42938 2.10911,0.5296 4.76795,1.37838 7.09959,3.09851 2.14491,1.58236 1.65785,1.39083 11.98531,10.36797 l 8.41017,7.12522 -2.89895,0.0329 c -1.34377,0.0152 -2.59517,0.004 -3.25362,0.05 -0.4211,0.0293 -1.33481,0.22481 -1.39584,0.22544 -0.061,6.1e-4 -0.67337,-0.25583 -1.59191,-1.31092 z"
       id="path307"
       sodipodi:nodetypes="ssssssscsscs" />
    <path
       style="fill:#000000;stroke-width:0.012207"
       d="m 23.688396,28.198847 c -0.184631,-0.01907 -0.607605,-0.06264 -0.939941,-0.09684 C 13.613585,27.162033 6.8180114,25.845055 3.412517,24.354713 2.8961933,24.128755 2.5246883,23.929153 2.2101244,23.708695 2.0260269,23.579672 1.7971729,23.40235 1.8048469,23.394676 c 0.00291,-0.0029 0.066792,0.03875 0.1419709,0.09256 2.3382534,1.673804 8.6180942,3.16423 17.9757092,4.266267 1.125204,0.132514 2.859868,0.319415 3.817749,0.411343 0.260113,0.02496 0.289917,0.03007 0.289917,0.04968 0,0.01202 -0.0014,0.02121 -0.0031,0.02042 -0.0017,-7.91e-4 -0.154114,-0.01704 -0.338745,-0.0361 z"
       id="path329"
       transform="matrix(0.26458333,0,0,0.26458333,717.92917,360.4241)" />
    <path
       style="fill:#000000;stroke-width:0.0976562"
       d=""
       id="path333"
       transform="matrix(0.26458333,0,0,0.26458333,717.92917,360.4241)" />
    <path
       style="fill:#ff0000;fill-opacity:1;stroke-width:1.5625"
       d="m 1317.1663,664.67528 c -2.4494,-1.92663 -3.6888,-4.11325 -3.1408,-5.54119 0.4978,-1.29728 8.0244,-5.7998 16.7258,-10.00559 22.3373,-10.79672 33.6394,-18.72625 52.2876,-36.68493 27.1588,-26.15451 50.2392,-59.11036 69.6824,-99.49732 10.031,-20.83599 20.4058,-47.96044 18.9147,-49.45154 -0.4335,-0.43348 -8.5907,6.75008 -18.1271,15.96344 -30.8533,29.80811 -46.1013,36.58706 -66.6237,29.61952 -17.305,-5.87519 -37.9702,-23.33706 -46.0031,-38.87219 -2.8862,-5.58177 -5.7398,-10.15127 -6.3413,-10.15444 -0.6016,-0.003 -10.4824,8.95907 -21.9575,19.9161 -11.7821,11.25015 -24.5426,21.91306 -29.3153,24.49629 -22.7623,12.32041 -58.6566,3.22921 -73.6522,-18.65443 -6.231,-9.09319 -8.17,-19.09613 -7.09,-36.57718 1.1083,-17.9402 5.9191,-35.37501 16.4755,-59.70887 4.2373,-9.76742 11.3033,-26.05875 15.7022,-36.20295 8.4151,-19.40561 14.953,-40.14974 12.654,-40.14974 -0.7475,0 -7.4424,5.75827 -14.8774,12.79615 -14.783,13.9933 -32.1686,36.23105 -47.0078,60.12715 -14.8499,23.91333 -39.4915,69.74798 -45.4734,84.58281 -11.6593,28.91464 -18.8853,39.8325 -28.0354,42.35895 -13.8075,3.81243 -23.8991,-7.28061 -33.9928,-37.36606 -2.9234,-8.71344 -5.7387,-16.26598 -6.2561,-16.78344 -0.5175,-0.51743 -10.9566,8.86979 -23.198,20.86052 -27.0991,26.54406 -36.7626,32.48028 -52.89879,32.49523 -20.95723,0.0194 -42.68239,-15.95337 -54.37158,-39.97515 l -5.9962,-12.32247 -13.70822,14.93376 c -30.23197,32.93479 -53.62012,43.71194 -76.29043,35.15432 -16.81133,-6.34596 -36.87911,-28.8328 -46.3524,-51.93989 -2.02582,-4.94141 -4.18584,-8.98438 -4.80003,-8.98438 -0.61417,0 -6.28557,4.79152 -12.6031,10.64783 -34.21479,31.71687 -52.48848,44.50948 -72.19405,50.53989 -26.36139,8.06728 -51.46711,-3.75172 -63.9301,-30.0963 -4.70141,-9.93798 -7.83577,-26.61434 -6.46838,-34.41511 1.20026,-6.84732 5.4027,-20.45665 6.93469,-22.45756 0.65798,-0.85937 2.25069,-5.07812 3.53936,-9.375 1.28866,-4.29687 4.44898,-12.03125 7.02292,-17.1875 6.51807,-13.05734 9.7029,-21.00422 9.7029,-24.21095 0,-1.50455 1.46069,-6.03769 3.24597,-10.07363 1.78529,-4.03593 3.48911,-10.32173 3.78627,-13.96843 0.29716,-3.64672 1.94127,-9.04725 3.65358,-12.00119 4.12709,-7.11971 8.06418,-20.91166 8.06418,-28.24948 v -5.90525 l -7.75576,0.32947 c -10.08844,0.42855 -13.71346,-2.68232 -11.62227,-9.97386 1.93356,-6.74193 7.37592,-10.45531 19.44429,-13.26704 7.64496,-1.78115 11.4826,-3.70928 15.83693,-7.95691 12.4223,-12.1179 22.60719,-42.68367 24.26776,-72.82977 l 0.92856,-16.85703 7.18462,1.03683 c 16.34581,2.35889 29.85508,8.84035 40.39573,19.381 14.4085,14.4085 17.82983,32.47363 10.63409,56.14972 -2.2008,7.24129 -4.00145,14.03625 -4.00145,15.09991 0,1.39121 4.93311,2.0813 17.57812,2.45903 15.22258,0.45472 18.23799,0.99575 22.50227,4.03746 2.70828,1.9318 5.60169,5.456 6.42981,7.83155 l 1.50567,4.31919 -22.83606,-0.0191 c -20.11751,-0.0168 -23.70392,0.38207 -30.12615,3.35042 -4.00955,1.85321 -8.51124,5.23318 -10.00376,7.51104 -9.60001,14.65147 -61.73596,155.52884 -64.19344,173.4581 -1.92328,14.03191 6.38275,15.70264 21.54282,4.33327 13.30811,-9.98049 48.80667,-45.76683 62.92374,-63.43386 6.28487,-7.86528 20.42665,-27.30833 31.42618,-43.20677 26.68808,-38.57424 31.70134,-45.00676 49.1468,-63.06048 17.91223,-18.53676 35.77648,-32.3464 51.58847,-39.87957 10.15298,-4.8371 13.25757,-5.58084 23.4375,-5.61468 9.85122,-0.0327 13.23873,0.69595 21.10928,4.5409 26.625,13.00698 47.12486,49.8485 34.39284,61.80957 l -3.8884,3.65297 -10.67522,-4.29751 c -9.50802,-3.82762 -11.38175,-4.10726 -17.13696,-2.55754 -16.8119,4.52697 -47.0389,31.69517 -64.95378,58.38079 -18.04809,26.88407 -38.51973,72.68116 -38.51973,86.17246 0,13.86637 6.3884,17.87848 17.80981,11.18509 17.23188,-10.09855 56.62555,-62.96292 79.72641,-106.98891 11.85173,-22.58721 17.17129,-28.34309 26.19459,-28.34309 15.5327,0 38.0107,26.39477 39.9862,46.95377 0.957,9.95951 -1.1409,17.90615 -11.7354,44.45248 -7.8718,19.724 -8.8009,23.2962 -9.4485,36.32813 -0.464,9.33484 -0.1486,14.45312 0.8902,14.45312 2.3897,0 15.8325,-11.02662 23.0361,-18.89578 10.3517,-11.30791 18.0437,-22.2445 42.2072,-60.01047 33.423,-52.2377 36.0387,-56.70769 45.5005,-77.75534 12.385,-27.55031 16.1454,-39.99961 16.1454,-53.45194 0,-8.94074 0.592,-11.81288 2.8574,-13.86305 7.3011,-6.60737 24.995,0.11528 40.25,15.29263 11.8893,11.82879 14.8555,19.88608 16.1327,43.82322 l 0.9161,17.17051 15.3499,-18.73301 c 20.2253,-24.68302 45.2342,-49.98134 54.9626,-55.59881 15.0312,-8.67936 30.8241,-4.41907 46.5383,12.55418 14.8148,16.00179 18.6945,28.80455 14.6034,48.19147 -3.0712,14.55419 -10.8731,32.65075 -25.6403,59.47305 -24.7735,44.99697 -31.6164,63.64509 -31.5712,86.03765 0.031,15.53266 1.1248,17.242 8.223,12.85505 15.7786,-9.75173 39.4093,-41.90569 78.243,-106.46436 21.5662,-35.85231 34.3734,-54.14967 49.4021,-70.57932 12.5408,-13.70974 32.9708,-29.73045 44.9309,-35.23365 30.3617,-13.9703 75.272,-2.75214 88.3593,22.07128 4.5085,8.55158 4.7261,25.78013 0.3861,30.57569 -2.6601,2.93944 -4.5949,3.20597 -22.2025,3.0585 -18.303,-0.15328 -19.6664,0.0563 -26.6865,4.10169 -11.2659,6.49208 -37.4589,33.78528 -48.6499,50.69331 -10.8004,16.31789 -28.7841,52.13967 -35.1497,70.015 -4.6135,12.95519 -5.1977,22.98814 -1.6349,28.07483 7.5993,10.84953 24.5881,-3.01588 58.0503,-47.3777 14.3349,-19.00427 25.5743,-36.98032 36.1177,-57.76574 5.2373,-10.32481 11.8957,-21.07283 14.7966,-23.88448 6.6397,-6.43536 14.2412,-7.88863 22.0014,-4.20619 7.6636,3.63662 20.1553,17.60222 25.1071,28.06942 9.9685,21.07161 7.3216,31.63944 -24.2191,96.69502 -28.2039,58.17306 -37.3342,75.47184 -50.0984,94.9189 -23.2884,35.48133 -48.7608,60.10704 -79.7056,77.05621 -29.7894,16.31626 -75.3627,25.02183 -86.2317,16.47225 z"
       id="path361"
       transform="matrix(0.26458333,0,0,0.26458333,717.54312,360.4241)" />
  </g>
</svg>
