<svg xmlns="http://www.w3.org/2000/svg" viewBox="0 0 57.63 36.3"><g transform="translate(.75 .75)"><path fill="#040506" d="M18.9 28.29V26.8a.87.87 0 00-.82-.93.94.94 0 00-.11 0 .9.9 0 00-.83.42.86.86 0 00-.77-.42.78.78 0 00-.69.35v-.3h-.51v2.36h.51v-1.3a.55.55 0 01.47-.62.46.46 0 01.1 0c.35 0 .52.22.52.61v1.3h.51v-1.3a.55.55 0 01.48-.61.53.53 0 01.1 0c.35 0 .52.22.52.61v1.3zm7.63-2.35h-.84v-.72h-.51v.72h-.48v.46h.48v1.07c0 .55.2.87.81.87a1.2 1.2 0 00.64-.18l-.15-.43a.94.94 0 01-.45.13c-.25 0-.33-.16-.33-.4V26.4h.83zm4.36-.06a.7.7 0 00-.62.34v-.28h-.5v2.35h.5v-1.32c0-.39.17-.6.5-.6a.84.84 0 01.33.06l.15-.48a1.08 1.08 0 00-.36-.07zm-6.6.24a1.75 1.75 0 00-.95-.24c-.6 0-.98.28-.98.75 0 .38.28.62.81.7l.24.03c.28.04.41.11.41.24 0 .19-.18.29-.53.29a1.25 1.25 0 01-.78-.25l-.24.4a1.7 1.7 0 001.01.3c.68 0 1.07-.31 1.07-.76 0-.41-.3-.63-.82-.7l-.24-.03c-.22-.03-.4-.08-.4-.23s.17-.28.45-.28a1.52 1.52 0 01.73.2zm13.7-.24a.7.7 0 00-.62.34v-.28h-.5v2.35h.5v-1.32c0-.39.17-.6.5-.6a.84.84 0 01.32.06l.16-.48a1.07 1.07 0 00-.36-.07zM31.4 27.1a1.19 1.19 0 001.14 1.24.96.96 0 00.11 0 1.23 1.23 0 00.85-.28l-.25-.42a1.03 1.03 0 01-.61.22.7.7 0 01-.71-.7v-.06a.7.7 0 01.65-.75h.05a1.04 1.04 0 01.62.21l.25-.4a1.23 1.23 0 00-.85-.29A1.19 1.19 0 0031.4 27a1.06 1.06 0 000 .12zm4.79 0v-1.17h-.51v.28a.89.89 0 00-.75-.34 1.18 1.18 0 00-1.17 1.18v.05a1.18 1.18 0 001.12 1.24h.05a.89.89 0 00.74-.35v.29h.52zm-1.9 0a.7.7 0 01.65-.75.47.47 0 01.06 0 .7.7 0 01.71.7v.06a.7.7 0 01-.65.75H35a.7.7 0 01-.71-.7.46.46 0 010-.06zm-6.17-1.23A1.15 1.15 0 0026.95 27v.11a1.16 1.16 0 001.08 1.24 1.13 1.13 0 00.12 0 1.44 1.44 0 00.97-.33l-.26-.38a1.12 1.12 0 01-.68.24.65.65 0 01-.7-.57h1.75v-.2a1.13 1.13 0 00-1-1.23.99.99 0 00-.1 0zm0 .46a.58.58 0 01.59.56h-1.22a.6.6 0 01.63-.57zm12.81.77V25h-.5v1.23a.9.9 0 00-.75-.34 1.18 1.18 0 00-1.18 1.18v.05a1.18 1.18 0 001.13 1.24h.05a.9.9 0 00.74-.35v.29h.51zm-1.9 0a.7.7 0 01.65-.75h.06a.7.7 0 01.71.7v.05a.7.7 0 01-.65.75h-.06a.7.7 0 01-.7-.69l-.01-.06zm-17.26 0v-1.17h-.5v.28a.89.89 0 00-.75-.34 1.18 1.18 0 00-1.17 1.18v.05a1.18 1.18 0 001.12 1.24h.05a.9.9 0 00.74-.35v.29h.51zm-1.9 0a.7.7 0 01.66-.75h.06a.7.7 0 01.7.7v.05a.7.7 0 01-.65.75h-.05a.7.7 0 01-.71-.7.44.44 0 010-.05zm7.35-4.93l.21.18a8.85 8.85 0 01-13.74-7.37 8.85 8.85 0 018.84-8.84 8.8 8.8 0 014.9 1.47l-.2.18a9.52 9.52 0 000 14.38zm6.25-16.03a8.8 8.8 0 00-4.9 1.48l.21.17a9.52 9.52 0 010 14.38l-.21.18a8.85 8.85 0 0013.74-7.37 8.85 8.85 0 00-8.84-8.84zM28 8.05l-.34.27a8.84 8.84 0 000 13.34l.34.28.34-.28a8.84 8.84 0 000-13.34 5.5 5.5 0 00-.34-.28"/><rect width="56.13" height="34.8" fill="none" stroke="#040506" stroke-miterlimit="10" stroke-width="1.5" rx="5.81"/></g></svg>